<svg xmlns="http://www.w3.org/2000/svg" xmlns:xlink="http://www.w3.org/1999/xlink" width="500" zoomAndPan="magnify" viewBox="0 0 375 374.999991" height="500" preserveAspectRatio="xMidYMid meet" version="1.0"><defs><g/><clipPath id="a875a0c259"><path d="M 18.878906 84.691406 L 72.128906 84.691406 L 72.128906 290.191406 L 18.878906 290.191406 Z M 18.878906 84.691406 " clip-rule="nonzero"/></clipPath><clipPath id="27aed3920d"><path d="M 74.117188 84.808594 L 116.867188 84.808594 L 116.867188 290.070312 L 74.117188 290.070312 Z M 74.117188 84.808594 " clip-rule="nonzero"/></clipPath><clipPath id="a2d52645cb"><path d="M 18.878906 223.296875 L 72.128906 223.296875 L 72.128906 290.046875 L 18.878906 290.046875 Z M 18.878906 223.296875 " clip-rule="nonzero"/></clipPath></defs><rect x="-37.5" width="450" fill="#ffffff" y="-37.499999" height="449.999989" fill-opacity="1"/><rect x="-37.5" width="450" fill="#ffffff" y="-37.499999" height="449.999989" fill-opacity="1"/><g fill="#373737" fill-opacity="1"><g transform="translate(100.448237, 206.392676)"><g><path d="M 24.890625 -23.0625 C 25.097656 -23.0625 25.269531 -22.992188 25.40625 -22.859375 C 25.539062 -22.722656 25.609375 -22.539062 25.609375 -22.3125 L 25.609375 -0.703125 C 25.609375 -0.492188 25.539062 -0.320312 25.40625 -0.1875 C 25.269531 -0.0507812 25.097656 0.015625 24.890625 0.015625 L 22.359375 0.015625 C 21.992188 0.015625 21.738281 -0.148438 21.59375 -0.484375 L 20.65625 -3.59375 C 19.738281 -2.300781 18.59375 -1.289062 17.21875 -0.5625 C 15.851562 0.15625 14.335938 0.515625 12.671875 0.515625 C 11.097656 0.515625 9.640625 0.210938 8.296875 -0.390625 C 6.960938 -0.992188 5.796875 -1.835938 4.796875 -2.921875 C 3.796875 -4.003906 3.015625 -5.273438 2.453125 -6.734375 C 1.890625 -8.191406 1.609375 -9.773438 1.609375 -11.484375 C 1.609375 -13.242188 1.882812 -14.859375 2.4375 -16.328125 C 2.988281 -17.804688 3.765625 -19.085938 4.765625 -20.171875 C 5.765625 -21.265625 6.929688 -22.109375 8.265625 -22.703125 C 9.609375 -23.304688 11.066406 -23.609375 12.640625 -23.609375 C 14.304688 -23.609375 15.828125 -23.242188 17.203125 -22.515625 C 18.585938 -21.796875 19.738281 -20.773438 20.65625 -19.453125 L 21.59375 -22.5625 C 21.738281 -22.894531 21.992188 -23.0625 22.359375 -23.0625 Z M 13.734375 -5.125 C 14.609375 -5.125 15.429688 -5.285156 16.203125 -5.609375 C 16.984375 -5.941406 17.664062 -6.398438 18.25 -6.984375 C 18.84375 -7.566406 19.304688 -8.242188 19.640625 -9.015625 C 19.972656 -9.785156 20.140625 -10.617188 20.140625 -11.515625 C 20.140625 -12.421875 19.96875 -13.265625 19.625 -14.046875 C 19.289062 -14.828125 18.828125 -15.503906 18.234375 -16.078125 C 17.640625 -16.660156 16.957031 -17.113281 16.1875 -17.4375 C 15.414062 -17.769531 14.59375 -17.9375 13.71875 -17.9375 C 12.851562 -17.9375 12.039062 -17.769531 11.28125 -17.4375 C 10.53125 -17.113281 9.863281 -16.660156 9.28125 -16.078125 C 8.707031 -15.503906 8.253906 -14.828125 7.921875 -14.046875 C 7.585938 -13.265625 7.421875 -12.421875 7.421875 -11.515625 C 7.421875 -10.617188 7.585938 -9.785156 7.921875 -9.015625 C 8.253906 -8.242188 8.710938 -7.566406 9.296875 -6.984375 C 9.878906 -6.398438 10.546875 -5.941406 11.296875 -5.609375 C 12.054688 -5.285156 12.867188 -5.125 13.734375 -5.125 Z M 13.734375 -5.125 "/></g></g></g><g fill="#373737" fill-opacity="1"><g transform="translate(129.074327, 206.392676)"><g><path d="M 30.703125 -23.5625 C 32.378906 -23.5625 33.859375 -23.160156 35.140625 -22.359375 C 36.421875 -21.554688 37.421875 -20.414062 38.140625 -18.9375 C 38.867188 -17.457031 39.234375 -15.691406 39.234375 -13.640625 L 39.234375 -0.703125 C 39.234375 -0.234375 38.992188 0 38.515625 0 L 34.1875 0 C 33.707031 0 33.46875 -0.234375 33.46875 -0.703125 L 33.46875 -13.3125 C 33.46875 -14.289062 33.28125 -15.15625 32.90625 -15.90625 C 32.539062 -16.65625 32.019531 -17.242188 31.34375 -17.671875 C 30.664062 -18.109375 29.867188 -18.328125 28.953125 -18.328125 C 27.984375 -18.328125 27.125 -18.101562 26.375 -17.65625 C 25.632812 -17.21875 25.054688 -16.613281 24.640625 -15.84375 C 24.222656 -15.070312 24.015625 -14.1875 24.015625 -13.1875 L 24 -13.234375 L 24 -0.703125 C 24 -0.234375 23.765625 0 23.296875 0 L 18.953125 0 C 18.484375 0 18.25 -0.234375 18.25 -0.703125 L 18.25 -13.3125 C 18.25 -14.289062 18.0625 -15.15625 17.6875 -15.90625 C 17.320312 -16.65625 16.796875 -17.242188 16.109375 -17.671875 C 15.429688 -18.109375 14.632812 -18.328125 13.71875 -18.328125 C 12.75 -18.328125 11.890625 -18.101562 11.140625 -17.65625 C 10.398438 -17.21875 9.820312 -16.613281 9.40625 -15.84375 C 8.988281 -15.070312 8.78125 -14.1875 8.78125 -13.1875 L 8.78125 -0.6875 C 8.78125 -0.21875 8.546875 0.015625 8.078125 0.015625 L 3.71875 0.015625 C 3.25 0.015625 3.015625 -0.21875 3.015625 -0.6875 L 3.015625 -22.3125 C 3.015625 -22.539062 3.082031 -22.722656 3.21875 -22.859375 C 3.351562 -22.992188 3.53125 -23.0625 3.75 -23.0625 L 6.265625 -23.0625 C 6.453125 -23.0625 6.609375 -23.015625 6.734375 -22.921875 C 6.859375 -22.835938 6.957031 -22.71875 7.03125 -22.5625 L 8.078125 -19.125 C 8.535156 -20.007812 9.140625 -20.785156 9.890625 -21.453125 C 10.640625 -22.117188 11.488281 -22.632812 12.4375 -23 C 13.394531 -23.375 14.40625 -23.5625 15.46875 -23.5625 C 17.21875 -23.5625 18.75 -23.125 20.0625 -22.25 C 21.382812 -21.375 22.382812 -20.148438 23.0625 -18.578125 C 23.476562 -19.578125 24.066406 -20.445312 24.828125 -21.1875 C 25.585938 -21.9375 26.472656 -22.519531 27.484375 -22.9375 C 28.503906 -23.351562 29.578125 -23.5625 30.703125 -23.5625 Z M 30.703125 -23.5625 "/></g></g></g><g fill="#373737" fill-opacity="1"><g transform="translate(171.094065, 206.392676)"><g><path d="M 24.890625 -23.0625 C 25.097656 -23.0625 25.269531 -22.992188 25.40625 -22.859375 C 25.539062 -22.722656 25.609375 -22.539062 25.609375 -22.3125 L 25.609375 -0.703125 C 25.609375 -0.492188 25.539062 -0.320312 25.40625 -0.1875 C 25.269531 -0.0507812 25.097656 0.015625 24.890625 0.015625 L 22.359375 0.015625 C 21.992188 0.015625 21.738281 -0.148438 21.59375 -0.484375 L 20.65625 -3.59375 C 19.738281 -2.300781 18.59375 -1.289062 17.21875 -0.5625 C 15.851562 0.15625 14.335938 0.515625 12.671875 0.515625 C 11.097656 0.515625 9.640625 0.210938 8.296875 -0.390625 C 6.960938 -0.992188 5.796875 -1.835938 4.796875 -2.921875 C 3.796875 -4.003906 3.015625 -5.273438 2.453125 -6.734375 C 1.890625 -8.191406 1.609375 -9.773438 1.609375 -11.484375 C 1.609375 -13.242188 1.882812 -14.859375 2.4375 -16.328125 C 2.988281 -17.804688 3.765625 -19.085938 4.765625 -20.171875 C 5.765625 -21.265625 6.929688 -22.109375 8.265625 -22.703125 C 9.609375 -23.304688 11.066406 -23.609375 12.640625 -23.609375 C 14.304688 -23.609375 15.828125 -23.242188 17.203125 -22.515625 C 18.585938 -21.796875 19.738281 -20.773438 20.65625 -19.453125 L 21.59375 -22.5625 C 21.738281 -22.894531 21.992188 -23.0625 22.359375 -23.0625 Z M 13.734375 -5.125 C 14.609375 -5.125 15.429688 -5.285156 16.203125 -5.609375 C 16.984375 -5.941406 17.664062 -6.398438 18.25 -6.984375 C 18.84375 -7.566406 19.304688 -8.242188 19.640625 -9.015625 C 19.972656 -9.785156 20.140625 -10.617188 20.140625 -11.515625 C 20.140625 -12.421875 19.96875 -13.265625 19.625 -14.046875 C 19.289062 -14.828125 18.828125 -15.503906 18.234375 -16.078125 C 17.640625 -16.660156 16.957031 -17.113281 16.1875 -17.4375 C 15.414062 -17.769531 14.59375 -17.9375 13.71875 -17.9375 C 12.851562 -17.9375 12.039062 -17.769531 11.28125 -17.4375 C 10.53125 -17.113281 9.863281 -16.660156 9.28125 -16.078125 C 8.707031 -15.503906 8.253906 -14.828125 7.921875 -14.046875 C 7.585938 -13.265625 7.421875 -12.421875 7.421875 -11.515625 C 7.421875 -10.617188 7.585938 -9.785156 7.921875 -9.015625 C 8.253906 -8.242188 8.710938 -7.566406 9.296875 -6.984375 C 9.878906 -6.398438 10.546875 -5.941406 11.296875 -5.609375 C 12.054688 -5.285156 12.867188 -5.125 13.734375 -5.125 Z M 13.734375 -5.125 "/></g></g></g><g fill="#218dcc" fill-opacity="1"><g transform="translate(199.720541, 206.392676)"><g><path d="M 16.09375 -23.609375 C 17.882812 -23.609375 19.460938 -23.207031 20.828125 -22.40625 C 22.203125 -21.601562 23.273438 -20.457031 24.046875 -18.96875 C 24.828125 -17.488281 25.21875 -15.726562 25.21875 -13.6875 L 25.21875 -0.703125 C 25.21875 -0.234375 24.984375 0 24.515625 0 L 20.1875 0 C 19.71875 0 19.484375 -0.234375 19.484375 -0.703125 L 19.484375 -13.34375 C 19.484375 -14.332031 19.269531 -15.203125 18.84375 -15.953125 C 18.414062 -16.703125 17.816406 -17.289062 17.046875 -17.71875 C 16.273438 -18.15625 15.367188 -18.375 14.328125 -18.375 C 13.316406 -18.375 12.390625 -18.132812 11.546875 -17.65625 C 10.703125 -17.1875 10.03125 -16.566406 9.53125 -15.796875 C 9.03125 -15.023438 8.78125 -14.179688 8.78125 -13.265625 L 8.78125 -0.6875 C 8.78125 -0.21875 8.546875 0.015625 8.078125 0.015625 L 3.71875 0.015625 C 3.25 0.015625 3.015625 -0.21875 3.015625 -0.6875 L 3.015625 -22.3125 C 3.015625 -22.539062 3.082031 -22.722656 3.21875 -22.859375 C 3.351562 -22.992188 3.53125 -23.0625 3.75 -23.0625 L 6.265625 -23.0625 C 6.453125 -23.0625 6.609375 -23.015625 6.734375 -22.921875 C 6.859375 -22.835938 6.957031 -22.71875 7.03125 -22.5625 L 8.109375 -19 C 8.609375 -19.894531 9.269531 -20.691406 10.09375 -21.390625 C 10.914062 -22.085938 11.84375 -22.628906 12.875 -23.015625 C 13.914062 -23.410156 14.988281 -23.609375 16.09375 -23.609375 Z M 16.09375 -23.609375 "/></g></g></g><g fill="#218dcc" fill-opacity="1"><g transform="translate(227.733695, 206.392676)"><g><path d="M 25.015625 -12.625 C 25.015625 -11.988281 24.878906 -11.375 24.609375 -10.78125 C 24.347656 -10.195312 23.992188 -9.710938 23.546875 -9.328125 C 23.109375 -8.953125 22.609375 -8.765625 22.046875 -8.765625 L 7.859375 -8.765625 C 8.140625 -8.023438 8.578125 -7.363281 9.171875 -6.78125 C 9.773438 -6.195312 10.492188 -5.738281 11.328125 -5.40625 C 12.160156 -5.070312 13.0625 -4.90625 14.03125 -4.90625 C 14.46875 -4.90625 14.957031 -4.976562 15.5 -5.125 C 16.050781 -5.28125 16.601562 -5.488281 17.15625 -5.75 C 17.71875 -6.019531 18.226562 -6.320312 18.6875 -6.65625 C 18.851562 -6.789062 19.046875 -6.835938 19.265625 -6.796875 C 19.484375 -6.765625 19.660156 -6.664062 19.796875 -6.5 L 22.109375 -3.453125 C 22.234375 -3.265625 22.285156 -3.066406 22.265625 -2.859375 C 22.253906 -2.648438 22.164062 -2.46875 22 -2.3125 C 21.351562 -1.769531 20.554688 -1.28125 19.609375 -0.84375 C 18.671875 -0.40625 17.695312 -0.0625 16.6875 0.1875 C 15.6875 0.4375 14.75 0.5625 13.875 0.5625 C 12.144531 0.5625 10.535156 0.253906 9.046875 -0.359375 C 7.566406 -0.984375 6.269531 -1.84375 5.15625 -2.9375 C 4.050781 -4.039062 3.179688 -5.320312 2.546875 -6.78125 C 1.921875 -8.238281 1.609375 -9.804688 1.609375 -11.484375 C 1.609375 -13.179688 1.914062 -14.757812 2.53125 -16.21875 C 3.144531 -17.675781 3.992188 -18.957031 5.078125 -20.0625 C 6.171875 -21.175781 7.441406 -22.039062 8.890625 -22.65625 C 10.335938 -23.28125 11.898438 -23.59375 13.578125 -23.59375 C 15.179688 -23.59375 16.675781 -23.3125 18.0625 -22.75 C 19.445312 -22.1875 20.660156 -21.40625 21.703125 -20.40625 C 22.742188 -19.40625 23.554688 -18.242188 24.140625 -16.921875 C 24.722656 -15.597656 25.015625 -14.164062 25.015625 -12.625 Z M 13.4375 -18.1875 C 12.550781 -18.1875 11.722656 -18.007812 10.953125 -17.65625 C 10.191406 -17.300781 9.535156 -16.804688 8.984375 -16.171875 C 8.441406 -15.546875 8.039062 -14.828125 7.78125 -14.015625 L 19.28125 -14.015625 C 19.050781 -14.828125 18.648438 -15.546875 18.078125 -16.171875 C 17.515625 -16.804688 16.832031 -17.300781 16.03125 -17.65625 C 15.238281 -18.007812 14.375 -18.1875 13.4375 -18.1875 Z M 13.4375 -18.1875 "/></g></g></g><g fill="#218dcc" fill-opacity="1"><g transform="translate(254.339381, 206.392676)"><g><path d="M 14.03125 -4.875 C 14.332031 -4.875 14.582031 -4.796875 14.78125 -4.640625 C 14.988281 -4.484375 15.09375 -4.273438 15.09375 -4.015625 L 15.09375 -0.390625 C 15.09375 -0.117188 14.988281 0.101562 14.78125 0.28125 C 14.570312 0.457031 14.300781 0.546875 13.96875 0.546875 C 11.945312 0.546875 10.210938 0.195312 8.765625 -0.5 C 7.328125 -1.207031 6.210938 -2.253906 5.421875 -3.640625 C 4.640625 -5.023438 4.25 -6.738281 4.25 -8.78125 L 4.25 -18.25 L 1.59375 -18.25 C 1.132812 -18.25 0.90625 -18.476562 0.90625 -18.9375 L 0.90625 -22.34375 C 0.90625 -22.8125 1.132812 -23.046875 1.59375 -23.046875 L 4.25 -23.046875 L 4.25 -29.359375 C 4.25 -29.785156 4.445312 -30.050781 4.84375 -30.15625 L 9.171875 -31.109375 C 9.710938 -31.203125 9.984375 -31 9.984375 -30.5 L 9.984375 -23.046875 L 14.28125 -23.046875 C 14.71875 -23.046875 14.9375 -22.816406 14.9375 -22.359375 L 14.9375 -18.9375 C 14.9375 -18.476562 14.71875 -18.25 14.28125 -18.25 L 10.015625 -18.25 L 10.015625 -8.703125 C 10.015625 -7.410156 10.375 -6.445312 11.09375 -5.8125 C 11.8125 -5.1875 12.789062 -4.875 14.03125 -4.875 Z M 14.03125 -4.875 "/></g></g></g><g fill="#65a935" fill-opacity="1"><g transform="translate(271.67395, 206.392676)"><g><path d="M 6.296875 0.6875 C 5.628906 0.6875 5.019531 0.523438 4.46875 0.203125 C 3.925781 -0.109375 3.492188 -0.535156 3.171875 -1.078125 C 2.859375 -1.628906 2.703125 -2.234375 2.703125 -2.890625 C 2.703125 -3.546875 2.859375 -4.144531 3.171875 -4.6875 C 3.492188 -5.226562 3.925781 -5.65625 4.46875 -5.96875 C 5.019531 -6.289062 5.628906 -6.453125 6.296875 -6.453125 C 6.941406 -6.453125 7.53125 -6.289062 8.0625 -5.96875 C 8.59375 -5.65625 9.019531 -5.226562 9.34375 -4.6875 C 9.664062 -4.144531 9.828125 -3.546875 9.828125 -2.890625 C 9.828125 -2.234375 9.664062 -1.628906 9.34375 -1.078125 C 9.019531 -0.535156 8.59375 -0.109375 8.0625 0.203125 C 7.53125 0.523438 6.941406 0.6875 6.296875 0.6875 Z M 6.296875 0.6875 "/></g></g></g><g fill="#ea4c47" fill-opacity="1"><g transform="translate(284.207303, 206.392676)"><g><path d="M 30.703125 -23.5625 C 32.378906 -23.5625 33.859375 -23.160156 35.140625 -22.359375 C 36.421875 -21.554688 37.421875 -20.414062 38.140625 -18.9375 C 38.867188 -17.457031 39.234375 -15.691406 39.234375 -13.640625 L 39.234375 -0.703125 C 39.234375 -0.234375 38.992188 0 38.515625 0 L 34.1875 0 C 33.707031 0 33.46875 -0.234375 33.46875 -0.703125 L 33.46875 -13.3125 C 33.46875 -14.289062 33.28125 -15.15625 32.90625 -15.90625 C 32.539062 -16.65625 32.019531 -17.242188 31.34375 -17.671875 C 30.664062 -18.109375 29.867188 -18.328125 28.953125 -18.328125 C 27.984375 -18.328125 27.125 -18.101562 26.375 -17.65625 C 25.632812 -17.21875 25.054688 -16.613281 24.640625 -15.84375 C 24.222656 -15.070312 24.015625 -14.1875 24.015625 -13.1875 L 24 -13.234375 L 24 -0.703125 C 24 -0.234375 23.765625 0 23.296875 0 L 18.953125 0 C 18.484375 0 18.25 -0.234375 18.25 -0.703125 L 18.25 -13.3125 C 18.25 -14.289062 18.0625 -15.15625 17.6875 -15.90625 C 17.320312 -16.65625 16.796875 -17.242188 16.109375 -17.671875 C 15.429688 -18.109375 14.632812 -18.328125 13.71875 -18.328125 C 12.75 -18.328125 11.890625 -18.101562 11.140625 -17.65625 C 10.398438 -17.21875 9.820312 -16.613281 9.40625 -15.84375 C 8.988281 -15.070312 8.78125 -14.1875 8.78125 -13.1875 L 8.78125 -0.6875 C 8.78125 -0.21875 8.546875 0.015625 8.078125 0.015625 L 3.71875 0.015625 C 3.25 0.015625 3.015625 -0.21875 3.015625 -0.6875 L 3.015625 -22.3125 C 3.015625 -22.539062 3.082031 -22.722656 3.21875 -22.859375 C 3.351562 -22.992188 3.53125 -23.0625 3.75 -23.0625 L 6.265625 -23.0625 C 6.453125 -23.0625 6.609375 -23.015625 6.734375 -22.921875 C 6.859375 -22.835938 6.957031 -22.71875 7.03125 -22.5625 L 8.078125 -19.125 C 8.535156 -20.007812 9.140625 -20.785156 9.890625 -21.453125 C 10.640625 -22.117188 11.488281 -22.632812 12.4375 -23 C 13.394531 -23.375 14.40625 -23.5625 15.46875 -23.5625 C 17.21875 -23.5625 18.75 -23.125 20.0625 -22.25 C 21.382812 -21.375 22.382812 -20.148438 23.0625 -18.578125 C 23.476562 -19.578125 24.066406 -20.445312 24.828125 -21.1875 C 25.585938 -21.9375 26.472656 -22.519531 27.484375 -22.9375 C 28.503906 -23.351562 29.578125 -23.5625 30.703125 -23.5625 Z M 30.703125 -23.5625 "/></g></g></g><g fill="#ea4c47" fill-opacity="1"><g transform="translate(326.22704, 206.392676)"><g><path d="M 24.890625 -23.0625 C 25.097656 -23.0625 25.269531 -22.992188 25.40625 -22.859375 C 25.539062 -22.722656 25.609375 -22.539062 25.609375 -22.3125 L 25.609375 -0.703125 C 25.609375 -0.492188 25.539062 -0.320312 25.40625 -0.1875 C 25.269531 -0.0507812 25.097656 0.015625 24.890625 0.015625 L 22.359375 0.015625 C 21.992188 0.015625 21.738281 -0.148438 21.59375 -0.484375 L 20.65625 -3.59375 C 19.738281 -2.300781 18.59375 -1.289062 17.21875 -0.5625 C 15.851562 0.15625 14.335938 0.515625 12.671875 0.515625 C 11.097656 0.515625 9.640625 0.210938 8.296875 -0.390625 C 6.960938 -0.992188 5.796875 -1.835938 4.796875 -2.921875 C 3.796875 -4.003906 3.015625 -5.273438 2.453125 -6.734375 C 1.890625 -8.191406 1.609375 -9.773438 1.609375 -11.484375 C 1.609375 -13.242188 1.882812 -14.859375 2.4375 -16.328125 C 2.988281 -17.804688 3.765625 -19.085938 4.765625 -20.171875 C 5.765625 -21.265625 6.929688 -22.109375 8.265625 -22.703125 C 9.609375 -23.304688 11.066406 -23.609375 12.640625 -23.609375 C 14.304688 -23.609375 15.828125 -23.242188 17.203125 -22.515625 C 18.585938 -21.796875 19.738281 -20.773438 20.65625 -19.453125 L 21.59375 -22.5625 C 21.738281 -22.894531 21.992188 -23.0625 22.359375 -23.0625 Z M 13.734375 -5.125 C 14.609375 -5.125 15.429688 -5.285156 16.203125 -5.609375 C 16.984375 -5.941406 17.664062 -6.398438 18.25 -6.984375 C 18.84375 -7.566406 19.304688 -8.242188 19.640625 -9.015625 C 19.972656 -9.785156 20.140625 -10.617188 20.140625 -11.515625 C 20.140625 -12.421875 19.96875 -13.265625 19.625 -14.046875 C 19.289062 -14.828125 18.828125 -15.503906 18.234375 -16.078125 C 17.640625 -16.660156 16.957031 -17.113281 16.1875 -17.4375 C 15.414062 -17.769531 14.59375 -17.9375 13.71875 -17.9375 C 12.851562 -17.9375 12.039062 -17.769531 11.28125 -17.4375 C 10.53125 -17.113281 9.863281 -16.660156 9.28125 -16.078125 C 8.707031 -15.503906 8.253906 -14.828125 7.921875 -14.046875 C 7.585938 -13.265625 7.421875 -12.421875 7.421875 -11.515625 C 7.421875 -10.617188 7.585938 -9.785156 7.921875 -9.015625 C 8.253906 -8.242188 8.710938 -7.566406 9.296875 -6.984375 C 9.878906 -6.398438 10.546875 -5.941406 11.296875 -5.609375 C 12.054688 -5.285156 12.867188 -5.125 13.734375 -5.125 Z M 13.734375 -5.125 "/></g></g></g><g clip-path="url(#a875a0c259)"><path fill="#218dcc" d="M 134.429688 182.558594 L 152.707031 243.078125 L 156.066406 254.179688 L 154.515625 255.238281 L 128.007812 234.515625 L 118.425781 242.1875 C 125.761719 247.917969 132.300781 253.074219 138.855469 258.226562 C 152.347656 268.847656 165.84375 279.464844 179.359375 289.839844 L 173.886719 271.742188 L 155.277344 210.132812 L 151.558594 197.800781 L 145.457031 177.609375 L 132.9375 177.609375 Z M 108.167969 163.714844 L 104.5625 175.648438 L 107.160156 175.648438 C 114.976562 175.648438 122.792969 175.648438 130.609375 175.648438 L 176.402344 175.648438 L 177.019531 177.390625 L 153.210938 196.472656 L 156.941406 208.808594 C 163.175781 203.808594 169.398438 198.785156 175.621094 193.761719 C 188.070312 183.707031 200.527344 173.652344 213.167969 163.714844 Z M 106.492188 162.4375 L 116.476562 129.359375 L 118.367188 129.359375 L 128.144531 161.742188 L 140.664062 161.742188 L 117.421875 84.796875 L 93.585938 163.703125 L 92.464844 167.421875 L 91.53125 163.703125 L 92.464844 167.421875 L 89.980469 175.648438 L 89.96875 175.6875 L 89.601562 176.910156 L 83.46875 197.214844 L 93.59375 205.132812 L 93.726562 204.691406 L 93.882812 204.199219 L 94.027344 203.703125 L 94.179688 203.210938 L 94.46875 202.226562 L 94.765625 201.238281 L 94.917969 200.746094 L 95.0625 200.253906 L 98.164062 190.003906 L 104.820312 216.398438 L 98.164062 190.003906 L 102.058594 177.125 L 102.199219 176.632812 L 102.355469 176.140625 L 102.5 175.648438 L 106.105469 163.703125 Z M 91.53125 163.703125 L 18.902344 163.703125 L 31.6875 174.394531 L 68.761719 203.367188 L 98.042969 226.257812 L 105.570312 232.140625 L 115.140625 224.46875 L 104.820312 216.398438 L 93.726562 207.730469 L 92.988281 207.144531 L 70.609375 189.65625 L 54.917969 177.390625 L 55.523438 175.648438 L 87.925781 175.648438 Z M 78.550781 213.511719 L 55.378906 290.199219 L 99.941406 254.488281 L 115.878906 241.714844 L 116.835938 240.945312 L 126.417969 233.273438 L 127.382812 232.5 L 135.722656 225.816406 L 143.546875 219.539062 L 139.820312 207.207031 L 130.554688 214.632812 L 124.105469 219.796875 L 116.734375 225.714844 L 103.90625 235.992188 L 80.480469 254.765625 L 78.917969 253.71875 L 88.675781 221.421875 Z M 78.550781 213.511719 " fill-opacity="1" fill-rule="evenodd"/></g><g clip-path="url(#27aed3920d)"><path fill="#ea4c47" d="M 134.429688 182.4375 L 152.707031 242.960938 L 156.066406 254.0625 L 154.515625 255.117188 L 128.007812 234.394531 L 118.425781 242.066406 C 125.761719 247.796875 132.300781 252.953125 138.855469 258.109375 C 152.347656 268.726562 165.84375 279.347656 179.359375 289.71875 L 173.886719 271.621094 L 155.277344 210.011719 L 151.558594 197.679688 L 145.457031 177.488281 L 132.9375 177.488281 Z M 108.167969 163.59375 L 104.5625 175.527344 L 107.160156 175.527344 C 114.976562 175.527344 122.792969 175.527344 130.609375 175.527344 L 176.402344 175.527344 L 177.019531 177.273438 L 153.210938 196.355469 L 156.941406 208.6875 C 163.175781 203.6875 169.398438 198.664062 175.621094 193.644531 C 188.070312 183.589844 200.527344 173.535156 213.167969 163.59375 Z M 106.492188 162.320312 L 116.476562 129.238281 L 118.367188 129.238281 L 128.144531 161.621094 L 140.664062 161.621094 L 117.421875 84.679688 L 93.585938 163.582031 L 92.464844 167.300781 L 91.53125 163.582031 L 92.464844 167.300781 L 89.980469 175.527344 L 89.96875 175.566406 L 89.601562 176.789062 L 83.46875 197.09375 L 93.59375 205.011719 L 93.726562 204.570312 L 93.882812 204.078125 L 94.027344 203.585938 L 94.179688 203.089844 L 94.46875 202.105469 L 94.765625 201.121094 L 94.917969 200.625 L 95.0625 200.132812 L 98.164062 189.882812 L 104.820312 216.277344 L 98.164062 189.882812 L 102.058594 177.003906 L 102.199219 176.511719 L 102.355469 176.019531 L 102.5 175.527344 L 106.105469 163.582031 Z M 91.53125 163.582031 L 18.902344 163.582031 L 31.6875 174.273438 L 68.761719 203.246094 L 98.042969 226.136719 L 105.570312 232.023438 L 115.140625 224.351562 L 104.820312 216.277344 L 93.726562 207.609375 L 92.988281 207.023438 L 70.609375 189.535156 L 54.917969 177.273438 L 55.523438 175.527344 L 87.925781 175.527344 Z M 78.550781 213.390625 L 55.378906 290.078125 L 99.941406 254.371094 L 115.878906 241.59375 L 116.835938 240.824219 L 126.417969 233.152344 L 127.382812 232.382812 L 135.722656 225.695312 L 143.546875 219.421875 L 139.820312 207.085938 L 130.554688 214.511719 L 124.105469 219.675781 L 116.734375 225.59375 L 103.90625 235.875 L 80.480469 254.648438 L 78.917969 253.597656 L 88.675781 221.300781 Z M 78.550781 213.390625 " fill-opacity="1" fill-rule="evenodd"/></g><g clip-path="url(#a2d52645cb)"><path fill="#65a935" d="M 134.429688 182.4375 L 152.707031 242.960938 L 156.066406 254.0625 L 154.515625 255.117188 L 128.007812 234.394531 L 118.425781 242.066406 C 125.761719 247.796875 132.300781 252.953125 138.855469 258.109375 C 152.347656 268.726562 165.84375 279.347656 179.359375 289.71875 L 173.886719 271.621094 L 155.277344 210.011719 L 151.558594 197.679688 L 145.457031 177.488281 L 132.9375 177.488281 Z M 108.167969 163.59375 L 104.5625 175.527344 L 107.160156 175.527344 C 114.976562 175.527344 122.792969 175.527344 130.609375 175.527344 L 176.402344 175.527344 L 177.019531 177.273438 L 153.210938 196.355469 L 156.941406 208.6875 C 163.175781 203.6875 169.398438 198.664062 175.621094 193.644531 C 188.070312 183.589844 200.527344 173.535156 213.167969 163.59375 Z M 106.492188 162.320312 L 116.476562 129.238281 L 118.367188 129.238281 L 128.144531 161.621094 L 140.664062 161.621094 L 117.421875 84.679688 L 93.585938 163.582031 L 92.464844 167.300781 L 91.53125 163.582031 L 92.464844 167.300781 L 89.980469 175.527344 L 89.96875 175.566406 L 89.601562 176.789062 L 83.46875 197.09375 L 93.59375 205.011719 L 93.726562 204.570312 L 93.882812 204.078125 L 94.027344 203.585938 L 94.179688 203.089844 L 94.46875 202.105469 L 94.765625 201.121094 L 94.917969 200.625 L 95.0625 200.132812 L 98.164062 189.882812 L 104.820312 216.277344 L 98.164062 189.882812 L 102.058594 177.003906 L 102.199219 176.511719 L 102.355469 176.019531 L 102.5 175.527344 L 106.105469 163.582031 Z M 91.53125 163.582031 L 18.902344 163.582031 L 31.6875 174.273438 L 68.761719 203.246094 L 98.042969 226.136719 L 105.570312 232.023438 L 115.140625 224.351562 L 104.820312 216.277344 L 93.726562 207.609375 L 92.988281 207.023438 L 70.609375 189.535156 L 54.917969 177.273438 L 55.523438 175.527344 L 87.925781 175.527344 Z M 78.550781 213.390625 L 55.378906 290.078125 L 99.941406 254.371094 L 115.878906 241.59375 L 116.835938 240.824219 L 126.417969 233.152344 L 127.382812 232.382812 L 135.722656 225.695312 L 143.546875 219.421875 L 139.820312 207.085938 L 130.554688 214.511719 L 124.105469 219.675781 L 116.734375 225.59375 L 103.90625 235.875 L 80.480469 254.648438 L 78.917969 253.597656 L 88.675781 221.300781 Z M 78.550781 213.390625 " fill-opacity="1" fill-rule="evenodd"/></g></svg>