<svg xmlns="http://www.w3.org/2000/svg" xmlns:xlink="http://www.w3.org/1999/xlink" width="1000" zoomAndPan="magnify" viewBox="0 0 750 299.999988" height="400" preserveAspectRatio="xMidYMid meet" version="1.0"><defs><g/><clipPath id="d1067eaaf3"><path d="M 5.070312 30 L 62.820312 30 L 62.820312 252.75 L 5.070312 252.75 Z M 5.070312 30 " clip-rule="nonzero"/></clipPath><clipPath id="9aa693c0e4"><path d="M 112.417969 30 L 160.417969 30 L 160.417969 252.75 L 112.417969 252.75 Z M 112.417969 30 " clip-rule="nonzero"/></clipPath><clipPath id="6f00db6479"><path d="M 64.816406 30.128906 L 110.566406 30.128906 L 110.566406 252.128906 L 64.816406 252.128906 Z M 64.816406 30.128906 " clip-rule="nonzero"/></clipPath><clipPath id="f56a459cc8"><path d="M 162.257812 30 L 215.070312 30 L 215.070312 252.75 L 162.257812 252.75 Z M 162.257812 30 " clip-rule="nonzero"/></clipPath></defs><g fill="#000000" fill-opacity="1"><g transform="translate(198.970955, 178.856705)"><g><path d="M 25.890625 -3.15625 C 26.328125 -3.15625 26.546875 -2.953125 26.546875 -2.546875 L 26.546875 -0.609375 C 26.546875 -0.203125 26.328125 0 25.890625 0 L 2.125 0 C 1.9375 0 1.78125 -0.0507812 1.65625 -0.15625 C 1.53125 -0.257812 1.46875 -0.398438 1.46875 -0.578125 L 1.46875 -0.609375 C 1.46875 -0.753906 1.488281 -0.882812 1.53125 -1 C 1.582031 -1.125 1.640625 -1.226562 1.703125 -1.3125 L 20.546875 -29.0625 L 3.75 -29.0625 C 3.3125 -29.0625 3.09375 -29.269531 3.09375 -29.6875 L 3.09375 -31.59375 C 3.09375 -32 3.3125 -32.203125 3.75 -32.203125 L 25.4375 -32.203125 C 25.632812 -32.203125 25.789062 -32.148438 25.90625 -32.046875 C 26.019531 -31.941406 26.078125 -31.804688 26.078125 -31.640625 L 26.078125 -31.609375 C 26.078125 -31.484375 26.054688 -31.367188 26.015625 -31.265625 C 25.972656 -31.160156 25.914062 -31.054688 25.84375 -30.953125 L 7.140625 -3.15625 Z M 25.890625 -3.15625 "/></g></g></g><g fill="#000000" fill-opacity="1"><g transform="translate(227.527601, 178.856705)"><g><path d="M 29.9375 -0.765625 C 30.050781 -0.535156 30.054688 -0.335938 29.953125 -0.171875 C 29.859375 -0.015625 29.675781 0.0625 29.40625 0.0625 L 26.90625 0.0625 C 26.75 0.0625 26.609375 0.00390625 26.484375 -0.109375 C 26.367188 -0.222656 26.273438 -0.359375 26.203125 -0.515625 L 24.484375 -4.625 L 6.578125 -4.625 L 4.875 -0.53125 C 4.820312 -0.375 4.726562 -0.238281 4.59375 -0.125 C 4.457031 -0.0078125 4.3125 0.046875 4.15625 0.046875 L 1.703125 0.046875 C 1.429688 0.046875 1.242188 -0.0234375 1.140625 -0.171875 C 1.046875 -0.328125 1.046875 -0.53125 1.140625 -0.78125 L 14.671875 -31.890625 C 14.835938 -32.285156 15.097656 -32.484375 15.453125 -32.484375 L 15.625 -32.484375 C 15.78125 -32.484375 15.929688 -32.425781 16.078125 -32.3125 C 16.222656 -32.195312 16.332031 -32.046875 16.40625 -31.859375 Z M 7.859375 -7.734375 L 23.1875 -7.734375 L 15.546875 -26.15625 Z M 7.859375 -7.734375 "/></g></g></g><g fill="#000000" fill-opacity="1"><g transform="translate(258.607062, 178.856705)"><g><path d="M 22.984375 -9.875 L 27.5 -0.765625 C 27.613281 -0.546875 27.628906 -0.351562 27.546875 -0.1875 C 27.460938 -0.03125 27.296875 0.046875 27.046875 0.046875 L 24.484375 0.046875 C 24.347656 0.046875 24.207031 -0.00390625 24.0625 -0.109375 C 23.925781 -0.222656 23.820312 -0.359375 23.75 -0.515625 L 19.828125 -8.625 C 18.691406 -8.34375 17.507812 -8.203125 16.28125 -8.203125 L 8.09375 -8.203125 L 8.09375 -0.640625 C 8.09375 -0.179688 7.875 0.046875 7.4375 0.046875 L 5.234375 0.046875 C 4.785156 0.046875 4.5625 -0.179688 4.5625 -0.640625 L 4.5625 -31.5625 C 4.5625 -31.757812 4.617188 -31.921875 4.734375 -32.046875 C 4.859375 -32.171875 5.023438 -32.234375 5.234375 -32.234375 L 5.8125 -32.234375 C 6.144531 -32.234375 6.488281 -32.234375 6.84375 -32.234375 C 7.195312 -32.234375 7.4375 -32.234375 7.5625 -32.234375 L 16.28125 -32.234375 C 18.09375 -32.234375 19.757812 -31.929688 21.28125 -31.328125 C 22.8125 -30.722656 24.140625 -29.878906 25.265625 -28.796875 C 26.390625 -27.722656 27.257812 -26.445312 27.875 -24.96875 C 28.488281 -23.488281 28.796875 -21.875 28.796875 -20.125 C 28.796875 -18.625 28.554688 -17.222656 28.078125 -15.921875 C 27.609375 -14.617188 26.9375 -13.453125 26.0625 -12.421875 C 25.195312 -11.398438 24.171875 -10.550781 22.984375 -9.875 Z M 16.078125 -11.21875 C 17.410156 -11.21875 18.632812 -11.4375 19.75 -11.875 C 20.875 -12.3125 21.84375 -12.925781 22.65625 -13.71875 C 23.476562 -14.519531 24.113281 -15.460938 24.5625 -16.546875 C 25.019531 -17.640625 25.25 -18.835938 25.25 -20.140625 C 25.25 -21.441406 25.019531 -22.632812 24.5625 -23.71875 C 24.101562 -24.800781 23.457031 -25.742188 22.625 -26.546875 C 21.789062 -27.347656 20.8125 -27.96875 19.6875 -28.40625 C 18.570312 -28.84375 17.367188 -29.0625 16.078125 -29.0625 L 8.09375 -29.0625 L 8.09375 -11.21875 Z M 16.078125 -11.21875 "/></g></g></g><g fill="#000000" fill-opacity="1"><g transform="translate(290.49213, 178.856705)"><g><path d="M 35.5 -16.03125 C 35.5 -14.28125 35.253906 -12.617188 34.765625 -11.046875 C 34.273438 -9.472656 33.578125 -8.023438 32.671875 -6.703125 C 31.765625 -5.390625 30.691406 -4.226562 29.453125 -3.21875 C 28.222656 -2.21875 26.847656 -1.410156 25.328125 -0.796875 C 23.816406 -0.179688 22.207031 0.203125 20.5 0.359375 L 20.5 5.28125 C 20.5 5.75 20.296875 5.984375 19.890625 5.984375 L 17.828125 5.984375 C 17.390625 5.984375 17.171875 5.75 17.171875 5.28125 L 17.171875 0.359375 C 15.472656 0.203125 13.875 -0.179688 12.375 -0.796875 C 10.882812 -1.421875 9.519531 -2.234375 8.28125 -3.234375 C 7.039062 -4.242188 5.972656 -5.410156 5.078125 -6.734375 C 4.179688 -8.054688 3.488281 -9.5 3 -11.0625 C 2.507812 -12.632812 2.265625 -14.289062 2.265625 -16.03125 C 2.265625 -17.894531 2.539062 -19.660156 3.09375 -21.328125 C 3.644531 -22.992188 4.425781 -24.515625 5.4375 -25.890625 C 6.445312 -27.273438 7.640625 -28.46875 9.015625 -29.46875 C 10.398438 -30.46875 11.925781 -31.242188 13.59375 -31.796875 C 15.257812 -32.347656 17.019531 -32.625 18.875 -32.625 C 20.738281 -32.625 22.503906 -32.347656 24.171875 -31.796875 C 25.835938 -31.242188 27.359375 -30.46875 28.734375 -29.46875 C 30.117188 -28.46875 31.316406 -27.273438 32.328125 -25.890625 C 33.335938 -24.515625 34.117188 -22.992188 34.671875 -21.328125 C 35.222656 -19.660156 35.5 -17.894531 35.5 -16.03125 Z M 18.875 -3.09375 C 20.34375 -3.09375 21.734375 -3.304688 23.046875 -3.734375 C 24.359375 -4.160156 25.554688 -4.765625 26.640625 -5.546875 C 27.722656 -6.328125 28.660156 -7.253906 29.453125 -8.328125 C 30.253906 -9.398438 30.867188 -10.585938 31.296875 -11.890625 C 31.734375 -13.191406 31.953125 -14.570312 31.953125 -16.03125 C 31.953125 -17.5 31.734375 -18.882812 31.296875 -20.1875 C 30.867188 -21.5 30.253906 -22.695312 29.453125 -23.78125 C 28.660156 -24.875 27.722656 -25.816406 26.640625 -26.609375 C 25.554688 -27.398438 24.359375 -28.007812 23.046875 -28.4375 C 21.734375 -28.875 20.34375 -29.09375 18.875 -29.09375 C 17.414062 -29.09375 16.03125 -28.875 14.71875 -28.4375 C 13.40625 -28.007812 12.203125 -27.398438 11.109375 -26.609375 C 10.023438 -25.816406 9.085938 -24.875 8.296875 -23.78125 C 7.503906 -22.695312 6.890625 -21.5 6.453125 -20.1875 C 6.023438 -18.882812 5.8125 -17.5 5.8125 -16.03125 C 5.8125 -14.570312 6.023438 -13.191406 6.453125 -11.890625 C 6.890625 -10.585938 7.503906 -9.398438 8.296875 -8.328125 C 9.085938 -7.253906 10.023438 -6.328125 11.109375 -5.546875 C 12.203125 -4.765625 13.40625 -4.160156 14.71875 -3.734375 C 16.03125 -3.304688 17.414062 -3.09375 18.875 -3.09375 Z M 18.875 -3.09375 "/></g></g></g><g fill="#000000" fill-opacity="1"><g transform="translate(328.249654, 178.856705)"><g><path d="M 29.9375 -0.765625 C 30.050781 -0.535156 30.054688 -0.335938 29.953125 -0.171875 C 29.859375 -0.015625 29.675781 0.0625 29.40625 0.0625 L 26.90625 0.0625 C 26.75 0.0625 26.609375 0.00390625 26.484375 -0.109375 C 26.367188 -0.222656 26.273438 -0.359375 26.203125 -0.515625 L 24.484375 -4.625 L 6.578125 -4.625 L 4.875 -0.53125 C 4.820312 -0.375 4.726562 -0.238281 4.59375 -0.125 C 4.457031 -0.0078125 4.3125 0.046875 4.15625 0.046875 L 1.703125 0.046875 C 1.429688 0.046875 1.242188 -0.0234375 1.140625 -0.171875 C 1.046875 -0.328125 1.046875 -0.53125 1.140625 -0.78125 L 14.671875 -31.890625 C 14.835938 -32.285156 15.097656 -32.484375 15.453125 -32.484375 L 15.625 -32.484375 C 15.78125 -32.484375 15.929688 -32.425781 16.078125 -32.3125 C 16.222656 -32.195312 16.332031 -32.046875 16.40625 -31.859375 Z M 7.859375 -7.734375 L 23.1875 -7.734375 L 15.546875 -26.15625 Z M 7.859375 -7.734375 "/></g></g></g><g fill="#000000" fill-opacity="1"><g transform="translate(359.329115, 178.856705)"><g><path d="M 31.5625 -32.265625 C 31.9375 -32.265625 32.125 -32.085938 32.125 -31.734375 L 32.125 -0.421875 C 32.125 -0.191406 32.0625 -0.0234375 31.9375 0.078125 C 31.820312 0.191406 31.675781 0.25 31.5 0.25 L 31.484375 0.25 C 31.316406 0.25 31.15625 0.203125 31 0.109375 C 30.851562 0.0234375 30.703125 -0.09375 30.546875 -0.25 L 8.09375 -24.671875 L 8.09375 -0.484375 C 8.09375 -0.128906 7.925781 0.046875 7.59375 0.046875 L 5.109375 0.046875 C 4.722656 0.046875 4.53125 -0.128906 4.53125 -0.484375 L 4.53125 -31.828125 C 4.53125 -32.023438 4.585938 -32.179688 4.703125 -32.296875 C 4.816406 -32.421875 4.96875 -32.484375 5.15625 -32.484375 L 5.171875 -32.484375 C 5.335938 -32.484375 5.488281 -32.425781 5.625 -32.3125 C 5.757812 -32.207031 5.90625 -32.070312 6.0625 -31.90625 L 28.5625 -7.46875 L 28.5625 -31.734375 C 28.5625 -32.085938 28.742188 -32.265625 29.109375 -32.265625 Z M 31.5625 -32.265625 "/></g></g></g><g fill="#000000" fill-opacity="1"><g transform="translate(395.984229, 178.856705)"><g><path d="M 27.328125 -3.390625 C 27.609375 -3.390625 27.828125 -3.316406 27.984375 -3.171875 C 28.148438 -3.035156 28.234375 -2.847656 28.234375 -2.609375 L 28.234375 -0.65625 C 28.234375 -0.457031 28.164062 -0.296875 28.03125 -0.171875 C 27.90625 -0.0546875 27.726562 0 27.5 0 L 5.234375 0 C 4.785156 0 4.5625 -0.222656 4.5625 -0.671875 L 4.5625 -31.546875 C 4.5625 -31.984375 4.785156 -32.203125 5.234375 -32.203125 L 27.03125 -32.203125 C 27.53125 -32.203125 27.78125 -31.988281 27.78125 -31.5625 L 27.78125 -29.515625 C 27.78125 -29.054688 27.53125 -28.828125 27.03125 -28.828125 L 8.09375 -28.828125 L 8.09375 -15.515625 L 23.53125 -15.515625 C 24.09375 -15.515625 24.375 -15.28125 24.375 -14.8125 L 24.375 -12.890625 C 24.375 -12.453125 24.09375 -12.234375 23.53125 -12.234375 L 8.09375 -12.234375 L 8.09375 -3.390625 Z M 27.328125 -3.390625 "/></g></g></g><g fill="#000000" fill-opacity="1"><g transform="translate(426.406491, 178.856705)"><g/></g></g><g fill="#000000" fill-opacity="1"><g transform="translate(439.062992, 178.856705)"><g><path d="M 13.96875 0.4375 C 12.863281 0.4375 11.753906 0.300781 10.640625 0.03125 C 9.523438 -0.226562 8.453125 -0.601562 7.421875 -1.09375 C 6.398438 -1.582031 5.472656 -2.15625 4.640625 -2.8125 C 3.816406 -3.46875 3.140625 -4.1875 2.609375 -4.96875 C 2.492188 -5.113281 2.4375 -5.285156 2.4375 -5.484375 C 2.445312 -5.679688 2.546875 -5.851562 2.734375 -6 L 4.234375 -7.5 C 4.535156 -7.738281 4.878906 -7.65625 5.265625 -7.25 C 5.910156 -6.445312 6.707031 -5.71875 7.65625 -5.0625 C 8.601562 -4.414062 9.613281 -3.90625 10.6875 -3.53125 C 11.757812 -3.15625 12.804688 -2.96875 13.828125 -2.96875 C 16.222656 -2.96875 18.082031 -3.484375 19.40625 -4.515625 C 20.726562 -5.546875 21.390625 -6.957031 21.390625 -8.75 C 21.390625 -9.539062 21.179688 -10.242188 20.765625 -10.859375 C 20.359375 -11.472656 19.785156 -12.023438 19.046875 -12.515625 C 18.316406 -13.003906 17.460938 -13.457031 16.484375 -13.875 C 15.515625 -14.300781 14.46875 -14.726562 13.34375 -15.15625 C 11.96875 -15.65625 10.695312 -16.179688 9.53125 -16.734375 C 8.363281 -17.285156 7.347656 -17.910156 6.484375 -18.609375 C 5.617188 -19.304688 4.945312 -20.125 4.46875 -21.0625 C 3.988281 -22 3.75 -23.097656 3.75 -24.359375 C 3.75 -26.003906 4.164062 -27.441406 5 -28.671875 C 5.832031 -29.910156 7.007812 -30.878906 8.53125 -31.578125 C 10.0625 -32.273438 11.875 -32.625 13.96875 -32.625 C 15.15625 -32.625 16.3125 -32.472656 17.4375 -32.171875 C 18.5625 -31.878906 19.585938 -31.460938 20.515625 -30.921875 C 21.441406 -30.390625 22.191406 -29.765625 22.765625 -29.046875 C 23.097656 -28.648438 23.117188 -28.289062 22.828125 -27.96875 L 21.609375 -26.5625 C 21.421875 -26.34375 21.21875 -26.25 21 -26.28125 C 20.789062 -26.3125 20.566406 -26.421875 20.328125 -26.609375 C 19.835938 -27.171875 19.234375 -27.644531 18.515625 -28.03125 C 17.804688 -28.425781 17.046875 -28.722656 16.234375 -28.921875 C 15.429688 -29.128906 14.628906 -29.234375 13.828125 -29.234375 C 12.453125 -29.234375 11.269531 -29.019531 10.28125 -28.59375 C 9.300781 -28.175781 8.550781 -27.597656 8.03125 -26.859375 C 7.507812 -26.128906 7.25 -25.28125 7.25 -24.3125 C 7.25 -23.5 7.457031 -22.773438 7.875 -22.140625 C 8.300781 -21.515625 8.878906 -20.953125 9.609375 -20.453125 C 10.335938 -19.960938 11.175781 -19.515625 12.125 -19.109375 C 13.070312 -18.710938 14.0625 -18.320312 15.09375 -17.9375 C 16.351562 -17.5 17.578125 -17.015625 18.765625 -16.484375 C 19.960938 -15.960938 21.035156 -15.359375 21.984375 -14.671875 C 22.929688 -13.984375 23.679688 -13.160156 24.234375 -12.203125 C 24.796875 -11.242188 25.078125 -10.113281 25.078125 -8.8125 C 25.078125 -6.925781 24.617188 -5.289062 23.703125 -3.90625 C 22.785156 -2.519531 21.492188 -1.445312 19.828125 -0.6875 C 18.171875 0.0625 16.21875 0.4375 13.96875 0.4375 Z M 13.96875 0.4375 "/></g></g></g><g fill="#000000" fill-opacity="1"><g transform="translate(466.517228, 178.856705)"><g><path d="M 2.265625 -16.03125 C 2.265625 -17.894531 2.539062 -19.660156 3.09375 -21.328125 C 3.644531 -22.992188 4.425781 -24.515625 5.4375 -25.890625 C 6.445312 -27.273438 7.640625 -28.46875 9.015625 -29.46875 C 10.398438 -30.46875 11.925781 -31.242188 13.59375 -31.796875 C 15.257812 -32.347656 17.019531 -32.625 18.875 -32.625 C 20.738281 -32.625 22.503906 -32.347656 24.171875 -31.796875 C 25.835938 -31.242188 27.359375 -30.46875 28.734375 -29.46875 C 30.117188 -28.46875 31.316406 -27.273438 32.328125 -25.890625 C 33.335938 -24.515625 34.117188 -22.992188 34.671875 -21.328125 C 35.222656 -19.660156 35.5 -17.894531 35.5 -16.03125 C 35.5 -14.175781 35.222656 -12.414062 34.671875 -10.75 C 34.117188 -9.09375 33.335938 -7.582031 32.328125 -6.21875 C 31.316406 -4.851562 30.117188 -3.671875 28.734375 -2.671875 C 27.359375 -1.679688 25.835938 -0.914062 24.171875 -0.375 C 22.503906 0.164062 20.738281 0.4375 18.875 0.4375 C 17.019531 0.4375 15.257812 0.164062 13.59375 -0.375 C 11.925781 -0.914062 10.398438 -1.679688 9.015625 -2.671875 C 7.640625 -3.671875 6.445312 -4.851562 5.4375 -6.21875 C 4.425781 -7.582031 3.644531 -9.09375 3.09375 -10.75 C 2.539062 -12.414062 2.265625 -14.175781 2.265625 -16.03125 Z M 5.8125 -16.03125 C 5.8125 -14.570312 6.023438 -13.191406 6.453125 -11.890625 C 6.890625 -10.585938 7.503906 -9.398438 8.296875 -8.328125 C 9.085938 -7.253906 10.023438 -6.328125 11.109375 -5.546875 C 12.203125 -4.765625 13.40625 -4.160156 14.71875 -3.734375 C 16.03125 -3.304688 17.414062 -3.09375 18.875 -3.09375 C 20.34375 -3.09375 21.734375 -3.304688 23.046875 -3.734375 C 24.359375 -4.160156 25.554688 -4.765625 26.640625 -5.546875 C 27.722656 -6.328125 28.660156 -7.253906 29.453125 -8.328125 C 30.253906 -9.398438 30.867188 -10.585938 31.296875 -11.890625 C 31.734375 -13.191406 31.953125 -14.570312 31.953125 -16.03125 C 31.953125 -17.5 31.734375 -18.882812 31.296875 -20.1875 C 30.867188 -21.5 30.253906 -22.695312 29.453125 -23.78125 C 28.660156 -24.875 27.722656 -25.816406 26.640625 -26.609375 C 25.554688 -27.398438 24.359375 -28.007812 23.046875 -28.4375 C 21.734375 -28.875 20.34375 -29.09375 18.875 -29.09375 C 17.414062 -29.09375 16.03125 -28.875 14.71875 -28.4375 C 13.40625 -28.007812 12.203125 -27.398438 11.109375 -26.609375 C 10.023438 -25.816406 9.085938 -24.875 8.296875 -23.78125 C 7.503906 -22.695312 6.890625 -21.5 6.453125 -20.1875 C 6.023438 -18.882812 5.8125 -17.5 5.8125 -16.03125 Z M 5.8125 -16.03125 "/></g></g></g><g fill="#000000" fill-opacity="1"><g transform="translate(504.274763, 178.856705)"><g><path d="M 24.15625 -3.15625 C 24.5 -3.15625 24.671875 -2.972656 24.671875 -2.609375 L 24.671875 -0.546875 C 24.671875 -0.179688 24.488281 0 24.125 0 L 5.109375 0 C 4.742188 0 4.5625 -0.179688 4.5625 -0.546875 L 4.5625 -31.734375 C 4.5625 -32.085938 4.742188 -32.265625 5.109375 -32.265625 L 7.5625 -32.265625 C 7.914062 -32.265625 8.09375 -32.085938 8.09375 -31.734375 L 8.09375 -3.15625 Z M 24.15625 -3.15625 "/></g></g></g><g fill="#000000" fill-opacity="1"><g transform="translate(529.587765, 178.856705)"><g><path d="M 7.421875 -31.71875 L 7.421875 -12.875 C 7.421875 -11.488281 7.664062 -10.195312 8.15625 -9 C 8.644531 -7.800781 9.328125 -6.753906 10.203125 -5.859375 C 11.085938 -4.972656 12.117188 -4.28125 13.296875 -3.78125 C 14.484375 -3.28125 15.757812 -3.03125 17.125 -3.03125 C 18.5 -3.03125 19.773438 -3.28125 20.953125 -3.78125 C 22.140625 -4.28125 23.171875 -4.972656 24.046875 -5.859375 C 24.921875 -6.753906 25.601562 -7.800781 26.09375 -9 C 26.59375 -10.195312 26.84375 -11.488281 26.84375 -12.875 L 26.84375 -31.71875 C 26.84375 -32.082031 27.035156 -32.265625 27.421875 -32.265625 L 29.828125 -32.265625 C 30.210938 -32.265625 30.40625 -32.082031 30.40625 -31.71875 L 30.40625 -12.765625 C 30.40625 -10.867188 30.070312 -9.113281 29.40625 -7.5 C 28.738281 -5.894531 27.804688 -4.5 26.609375 -3.3125 C 25.421875 -2.125 24.015625 -1.203125 22.390625 -0.546875 C 20.773438 0.109375 19.019531 0.4375 17.125 0.4375 C 15.21875 0.4375 13.457031 0.109375 11.84375 -0.546875 C 10.238281 -1.210938 8.835938 -2.148438 7.640625 -3.359375 C 6.453125 -4.566406 5.523438 -5.984375 4.859375 -7.609375 C 4.203125 -9.234375 3.875 -11 3.875 -12.90625 L 3.875 -31.71875 C 3.875 -32.082031 4.050781 -32.265625 4.40625 -32.265625 L 6.90625 -32.265625 C 7.25 -32.265625 7.421875 -32.082031 7.421875 -31.71875 Z M 7.421875 -31.71875 "/></g></g></g><g fill="#000000" fill-opacity="1"><g transform="translate(563.847252, 178.856705)"><g><path d="M 1.375 -29.75 L 1.375 -31.5625 C 1.375 -31.988281 1.59375 -32.203125 2.03125 -32.203125 L 23.75 -32.203125 C 24.15625 -32.203125 24.359375 -31.988281 24.359375 -31.5625 L 24.359375 -29.75 C 24.359375 -29.289062 24.15625 -29.0625 23.75 -29.0625 L 14.625 -29.0625 L 14.625 -0.640625 C 14.625 -0.179688 14.40625 0.046875 13.96875 0.046875 L 11.75 0.046875 C 11.3125 0.046875 11.09375 -0.179688 11.09375 -0.640625 L 11.09375 -29.0625 L 2.03125 -29.0625 C 1.59375 -29.0625 1.375 -29.289062 1.375 -29.75 Z M 1.375 -29.75 "/></g></g></g><g fill="#000000" fill-opacity="1"><g transform="translate(589.58428, 178.856705)"><g><path d="M 8.09375 -31.734375 L 8.09375 -0.484375 C 8.09375 -0.128906 7.910156 0.046875 7.546875 0.046875 L 5.0625 0.046875 C 4.726562 0.046875 4.5625 -0.128906 4.5625 -0.484375 L 4.5625 -31.734375 C 4.5625 -32.085938 4.726562 -32.265625 5.0625 -32.265625 L 7.546875 -32.265625 C 7.910156 -32.265625 8.09375 -32.085938 8.09375 -31.734375 Z M 8.09375 -31.734375 "/></g></g></g><g fill="#000000" fill-opacity="1"><g transform="translate(602.240804, 178.856705)"><g><path d="M 2.265625 -16.03125 C 2.265625 -17.894531 2.539062 -19.660156 3.09375 -21.328125 C 3.644531 -22.992188 4.425781 -24.515625 5.4375 -25.890625 C 6.445312 -27.273438 7.640625 -28.46875 9.015625 -29.46875 C 10.398438 -30.46875 11.925781 -31.242188 13.59375 -31.796875 C 15.257812 -32.347656 17.019531 -32.625 18.875 -32.625 C 20.738281 -32.625 22.503906 -32.347656 24.171875 -31.796875 C 25.835938 -31.242188 27.359375 -30.46875 28.734375 -29.46875 C 30.117188 -28.46875 31.316406 -27.273438 32.328125 -25.890625 C 33.335938 -24.515625 34.117188 -22.992188 34.671875 -21.328125 C 35.222656 -19.660156 35.5 -17.894531 35.5 -16.03125 C 35.5 -14.175781 35.222656 -12.414062 34.671875 -10.75 C 34.117188 -9.09375 33.335938 -7.582031 32.328125 -6.21875 C 31.316406 -4.851562 30.117188 -3.671875 28.734375 -2.671875 C 27.359375 -1.679688 25.835938 -0.914062 24.171875 -0.375 C 22.503906 0.164062 20.738281 0.4375 18.875 0.4375 C 17.019531 0.4375 15.257812 0.164062 13.59375 -0.375 C 11.925781 -0.914062 10.398438 -1.679688 9.015625 -2.671875 C 7.640625 -3.671875 6.445312 -4.851562 5.4375 -6.21875 C 4.425781 -7.582031 3.644531 -9.09375 3.09375 -10.75 C 2.539062 -12.414062 2.265625 -14.175781 2.265625 -16.03125 Z M 5.8125 -16.03125 C 5.8125 -14.570312 6.023438 -13.191406 6.453125 -11.890625 C 6.890625 -10.585938 7.503906 -9.398438 8.296875 -8.328125 C 9.085938 -7.253906 10.023438 -6.328125 11.109375 -5.546875 C 12.203125 -4.765625 13.40625 -4.160156 14.71875 -3.734375 C 16.03125 -3.304688 17.414062 -3.09375 18.875 -3.09375 C 20.34375 -3.09375 21.734375 -3.304688 23.046875 -3.734375 C 24.359375 -4.160156 25.554688 -4.765625 26.640625 -5.546875 C 27.722656 -6.328125 28.660156 -7.253906 29.453125 -8.328125 C 30.253906 -9.398438 30.867188 -10.585938 31.296875 -11.890625 C 31.734375 -13.191406 31.953125 -14.570312 31.953125 -16.03125 C 31.953125 -17.5 31.734375 -18.882812 31.296875 -20.1875 C 30.867188 -21.5 30.253906 -22.695312 29.453125 -23.78125 C 28.660156 -24.875 27.722656 -25.816406 26.640625 -26.609375 C 25.554688 -27.398438 24.359375 -28.007812 23.046875 -28.4375 C 21.734375 -28.875 20.34375 -29.09375 18.875 -29.09375 C 17.414062 -29.09375 16.03125 -28.875 14.71875 -28.4375 C 13.40625 -28.007812 12.203125 -27.398438 11.109375 -26.609375 C 10.023438 -25.816406 9.085938 -24.875 8.296875 -23.78125 C 7.503906 -22.695312 6.890625 -21.5 6.453125 -20.1875 C 6.023438 -18.882812 5.8125 -17.5 5.8125 -16.03125 Z M 5.8125 -16.03125 "/></g></g></g><g fill="#000000" fill-opacity="1"><g transform="translate(639.998339, 178.856705)"><g><path d="M 31.5625 -32.265625 C 31.9375 -32.265625 32.125 -32.085938 32.125 -31.734375 L 32.125 -0.421875 C 32.125 -0.191406 32.0625 -0.0234375 31.9375 0.078125 C 31.820312 0.191406 31.675781 0.25 31.5 0.25 L 31.484375 0.25 C 31.316406 0.25 31.15625 0.203125 31 0.109375 C 30.851562 0.0234375 30.703125 -0.09375 30.546875 -0.25 L 8.09375 -24.671875 L 8.09375 -0.484375 C 8.09375 -0.128906 7.925781 0.046875 7.59375 0.046875 L 5.109375 0.046875 C 4.722656 0.046875 4.53125 -0.128906 4.53125 -0.484375 L 4.53125 -31.828125 C 4.53125 -32.023438 4.585938 -32.179688 4.703125 -32.296875 C 4.816406 -32.421875 4.96875 -32.484375 5.15625 -32.484375 L 5.171875 -32.484375 C 5.335938 -32.484375 5.488281 -32.425781 5.625 -32.3125 C 5.757812 -32.207031 5.90625 -32.070312 6.0625 -31.90625 L 28.5625 -7.46875 L 28.5625 -31.734375 C 28.5625 -32.085938 28.742188 -32.265625 29.109375 -32.265625 Z M 31.5625 -32.265625 "/></g></g></g><g fill="#000000" fill-opacity="1"><g transform="translate(676.653441, 178.856705)"><g><path d="M 13.96875 0.4375 C 12.863281 0.4375 11.753906 0.300781 10.640625 0.03125 C 9.523438 -0.226562 8.453125 -0.601562 7.421875 -1.09375 C 6.398438 -1.582031 5.472656 -2.15625 4.640625 -2.8125 C 3.816406 -3.46875 3.140625 -4.1875 2.609375 -4.96875 C 2.492188 -5.113281 2.4375 -5.285156 2.4375 -5.484375 C 2.445312 -5.679688 2.546875 -5.851562 2.734375 -6 L 4.234375 -7.5 C 4.535156 -7.738281 4.878906 -7.65625 5.265625 -7.25 C 5.910156 -6.445312 6.707031 -5.71875 7.65625 -5.0625 C 8.601562 -4.414062 9.613281 -3.90625 10.6875 -3.53125 C 11.757812 -3.15625 12.804688 -2.96875 13.828125 -2.96875 C 16.222656 -2.96875 18.082031 -3.484375 19.40625 -4.515625 C 20.726562 -5.546875 21.390625 -6.957031 21.390625 -8.75 C 21.390625 -9.539062 21.179688 -10.242188 20.765625 -10.859375 C 20.359375 -11.472656 19.785156 -12.023438 19.046875 -12.515625 C 18.316406 -13.003906 17.460938 -13.457031 16.484375 -13.875 C 15.515625 -14.300781 14.46875 -14.726562 13.34375 -15.15625 C 11.96875 -15.65625 10.695312 -16.179688 9.53125 -16.734375 C 8.363281 -17.285156 7.347656 -17.910156 6.484375 -18.609375 C 5.617188 -19.304688 4.945312 -20.125 4.46875 -21.0625 C 3.988281 -22 3.75 -23.097656 3.75 -24.359375 C 3.75 -26.003906 4.164062 -27.441406 5 -28.671875 C 5.832031 -29.910156 7.007812 -30.878906 8.53125 -31.578125 C 10.0625 -32.273438 11.875 -32.625 13.96875 -32.625 C 15.15625 -32.625 16.3125 -32.472656 17.4375 -32.171875 C 18.5625 -31.878906 19.585938 -31.460938 20.515625 -30.921875 C 21.441406 -30.390625 22.191406 -29.765625 22.765625 -29.046875 C 23.097656 -28.648438 23.117188 -28.289062 22.828125 -27.96875 L 21.609375 -26.5625 C 21.421875 -26.34375 21.21875 -26.25 21 -26.28125 C 20.789062 -26.3125 20.566406 -26.421875 20.328125 -26.609375 C 19.835938 -27.171875 19.234375 -27.644531 18.515625 -28.03125 C 17.804688 -28.425781 17.046875 -28.722656 16.234375 -28.921875 C 15.429688 -29.128906 14.628906 -29.234375 13.828125 -29.234375 C 12.453125 -29.234375 11.269531 -29.019531 10.28125 -28.59375 C 9.300781 -28.175781 8.550781 -27.597656 8.03125 -26.859375 C 7.507812 -26.128906 7.25 -25.28125 7.25 -24.3125 C 7.25 -23.5 7.457031 -22.773438 7.875 -22.140625 C 8.300781 -21.515625 8.878906 -20.953125 9.609375 -20.453125 C 10.335938 -19.960938 11.175781 -19.515625 12.125 -19.109375 C 13.070312 -18.710938 14.0625 -18.320312 15.09375 -17.9375 C 16.351562 -17.5 17.578125 -17.015625 18.765625 -16.484375 C 19.960938 -15.960938 21.035156 -15.359375 21.984375 -14.671875 C 22.929688 -13.984375 23.679688 -13.160156 24.234375 -12.203125 C 24.796875 -11.242188 25.078125 -10.113281 25.078125 -8.8125 C 25.078125 -6.925781 24.617188 -5.289062 23.703125 -3.90625 C 22.785156 -2.519531 21.492188 -1.445312 19.828125 -0.6875 C 18.171875 0.0625 16.21875 0.4375 13.96875 0.4375 Z M 13.96875 0.4375 "/></g></g></g><g clip-path="url(#d1067eaaf3)"><path fill="#218dcc" d="M 130.046875 135.855469 L 149.820312 201.316406 L 153.453125 213.324219 L 151.773438 214.46875 L 123.105469 192.050781 L 112.742188 200.347656 C 120.671875 206.546875 127.746094 212.125 134.835938 217.699219 C 149.429688 229.1875 164.027344 240.671875 178.644531 251.890625 L 172.722656 232.320312 L 152.597656 165.679688 L 148.574219 152.339844 L 141.976562 130.503906 L 128.4375 130.503906 Z M 101.644531 115.472656 L 97.746094 128.378906 L 100.554688 128.378906 C 109.007812 128.378906 117.460938 128.378906 125.914062 128.378906 L 175.445312 128.378906 L 176.113281 130.269531 L 150.363281 150.90625 L 154.394531 164.25 C 161.136719 158.839844 167.871094 153.40625 174.601562 147.976562 C 188.0625 137.101562 201.539062 126.226562 215.210938 115.472656 Z M 99.832031 114.09375 L 110.628906 78.316406 L 112.671875 78.316406 L 123.25 113.339844 L 136.789062 113.339844 L 111.652344 30.117188 L 85.871094 115.460938 L 84.660156 119.484375 L 83.648438 115.460938 L 84.660156 119.484375 L 81.972656 128.378906 L 81.960938 128.425781 L 81.558594 129.746094 L 74.929688 151.707031 L 85.882812 160.273438 L 86.027344 159.792969 L 86.191406 159.261719 L 86.347656 158.726562 L 86.515625 158.195312 L 86.667969 157.660156 L 86.824219 157.128906 L 87.148438 156.0625 L 87.3125 155.527344 L 87.46875 154.996094 L 90.824219 143.910156 L 98.023438 172.457031 L 90.824219 143.910156 L 95.035156 129.980469 L 95.191406 129.445312 L 95.355469 128.914062 L 95.511719 128.378906 L 99.410156 115.460938 Z M 83.648438 115.460938 L 5.09375 115.460938 L 18.921875 127.023438 L 59.023438 158.359375 L 90.691406 183.121094 L 98.832031 189.484375 L 109.1875 181.1875 L 98.023438 172.457031 L 86.027344 163.082031 L 85.226562 162.449219 L 61.019531 143.53125 L 44.046875 130.269531 L 44.703125 128.378906 L 79.75 128.378906 Z M 69.609375 169.335938 L 44.546875 252.28125 L 92.746094 213.65625 L 109.984375 199.839844 L 111.019531 199.003906 L 121.382812 190.707031 L 122.425781 189.875 L 131.445312 182.644531 L 139.910156 175.855469 L 135.878906 162.515625 L 125.859375 170.546875 L 118.882812 176.132812 L 110.90625 182.53125 L 97.035156 193.652344 L 71.695312 213.957031 L 70.007812 212.824219 L 80.558594 177.890625 Z M 69.609375 169.335938 " fill-opacity="1" fill-rule="evenodd"/></g><g clip-path="url(#9aa693c0e4)"><path fill="#65a935" d="M 130.046875 135.855469 L 149.820312 201.316406 L 153.453125 213.324219 L 151.773438 214.46875 L 123.105469 192.050781 L 112.742188 200.347656 C 120.671875 206.546875 127.746094 212.125 134.835938 217.699219 C 149.429688 229.1875 164.027344 240.671875 178.644531 251.890625 L 172.722656 232.320312 L 152.597656 165.679688 L 148.574219 152.339844 L 141.976562 130.503906 L 128.4375 130.503906 Z M 101.644531 115.472656 L 97.746094 128.378906 L 100.554688 128.378906 C 109.007812 128.378906 117.460938 128.378906 125.914062 128.378906 L 175.445312 128.378906 L 176.113281 130.269531 L 150.363281 150.90625 L 154.394531 164.25 C 161.136719 158.839844 167.871094 153.40625 174.601562 147.976562 C 188.0625 137.101562 201.539062 126.226562 215.210938 115.472656 Z M 99.832031 114.09375 L 110.628906 78.316406 L 112.671875 78.316406 L 123.25 113.339844 L 136.789062 113.339844 L 111.652344 30.117188 L 85.871094 115.460938 L 84.660156 119.484375 L 83.648438 115.460938 L 84.660156 119.484375 L 81.972656 128.378906 L 81.960938 128.425781 L 81.558594 129.746094 L 74.929688 151.707031 L 85.882812 160.273438 L 86.027344 159.792969 L 86.191406 159.261719 L 86.347656 158.726562 L 86.515625 158.195312 L 86.667969 157.660156 L 86.824219 157.128906 L 87.148438 156.0625 L 87.3125 155.527344 L 87.46875 154.996094 L 90.824219 143.910156 L 98.023438 172.457031 L 90.824219 143.910156 L 95.035156 129.980469 L 95.191406 129.445312 L 95.355469 128.914062 L 95.511719 128.378906 L 99.410156 115.460938 Z M 83.648438 115.460938 L 5.09375 115.460938 L 18.921875 127.023438 L 59.023438 158.359375 L 90.691406 183.121094 L 98.832031 189.484375 L 109.1875 181.1875 L 98.023438 172.457031 L 86.027344 163.082031 L 85.226562 162.449219 L 61.019531 143.53125 L 44.046875 130.269531 L 44.703125 128.378906 L 79.75 128.378906 Z M 69.609375 169.335938 L 44.546875 252.28125 L 92.746094 213.65625 L 109.984375 199.839844 L 111.019531 199.003906 L 121.382812 190.707031 L 122.425781 189.875 L 131.445312 182.644531 L 139.910156 175.855469 L 135.878906 162.515625 L 125.859375 170.546875 L 118.882812 176.132812 L 110.90625 182.53125 L 97.035156 193.652344 L 71.695312 213.957031 L 70.007812 212.824219 L 80.558594 177.890625 Z M 69.609375 169.335938 " fill-opacity="1" fill-rule="evenodd"/></g><g clip-path="url(#6f00db6479)"><path fill="#ea4c47" d="M 130.046875 135.726562 L 149.820312 201.1875 L 153.453125 213.195312 L 151.773438 214.335938 L 123.105469 191.921875 L 112.742188 200.21875 C 120.671875 206.417969 127.746094 211.992188 134.835938 217.570312 C 149.429688 229.054688 164.027344 240.542969 178.644531 251.761719 L 172.722656 232.1875 L 152.597656 165.550781 L 148.574219 152.210938 L 141.976562 130.371094 L 128.4375 130.371094 Z M 101.644531 115.34375 L 97.746094 128.25 L 100.554688 128.25 C 109.007812 128.25 117.460938 128.25 125.914062 128.25 L 175.445312 128.25 L 176.113281 130.140625 L 150.363281 150.777344 L 154.394531 164.117188 C 161.136719 158.707031 167.871094 153.277344 174.601562 147.84375 C 188.0625 136.96875 201.539062 126.09375 215.210938 115.34375 Z M 99.832031 113.964844 L 110.628906 78.1875 L 112.671875 78.1875 L 123.25 113.210938 L 136.789062 113.210938 L 111.652344 29.988281 L 85.871094 115.332031 L 84.660156 119.351562 L 83.648438 115.332031 L 84.660156 119.351562 L 81.972656 128.25 L 81.960938 128.296875 L 81.558594 129.617188 L 74.929688 151.578125 L 85.882812 160.140625 L 86.027344 159.664062 L 86.191406 159.132812 L 86.347656 158.597656 L 86.515625 158.066406 L 86.667969 157.53125 L 86.824219 157 L 87.148438 155.933594 L 87.3125 155.398438 L 87.46875 154.867188 L 90.824219 143.78125 L 98.023438 172.328125 L 90.824219 143.78125 L 95.035156 129.851562 L 95.191406 129.316406 L 95.355469 128.785156 L 95.511719 128.25 L 99.410156 115.332031 Z M 83.648438 115.332031 L 5.09375 115.332031 L 18.921875 126.894531 L 59.023438 158.230469 L 90.691406 182.992188 L 98.832031 189.355469 L 109.1875 181.058594 L 98.023438 172.328125 L 86.027344 162.953125 L 85.226562 162.320312 L 61.019531 143.402344 L 44.046875 130.140625 L 44.703125 128.25 L 79.75 128.25 Z M 69.609375 169.207031 L 44.546875 252.148438 L 92.746094 213.527344 L 109.984375 199.707031 L 111.019531 198.875 L 121.382812 190.578125 L 122.425781 189.746094 L 131.445312 182.511719 L 139.910156 175.726562 L 135.878906 162.386719 L 125.859375 170.417969 L 118.882812 176.003906 L 110.90625 182.402344 L 97.035156 193.519531 L 71.695312 213.828125 L 70.007812 212.695312 L 80.558594 177.757812 Z M 69.609375 169.207031 " fill-opacity="1" fill-rule="evenodd"/></g><g clip-path="url(#f56a459cc8)"><path fill="#df127a" d="M 130.046875 135.855469 L 149.820312 201.316406 L 153.453125 213.324219 L 151.773438 214.46875 L 123.105469 192.050781 L 112.742188 200.347656 C 120.671875 206.546875 127.746094 212.125 134.835938 217.699219 C 149.429688 229.1875 164.027344 240.671875 178.644531 251.890625 L 172.722656 232.320312 L 152.597656 165.679688 L 148.574219 152.339844 L 141.976562 130.503906 L 128.4375 130.503906 Z M 101.644531 115.472656 L 97.746094 128.378906 L 100.554688 128.378906 C 109.007812 128.378906 117.460938 128.378906 125.914062 128.378906 L 175.445312 128.378906 L 176.113281 130.269531 L 150.363281 150.90625 L 154.394531 164.25 C 161.136719 158.839844 167.871094 153.40625 174.601562 147.976562 C 188.0625 137.101562 201.539062 126.226562 215.210938 115.472656 Z M 99.832031 114.09375 L 110.628906 78.316406 L 112.671875 78.316406 L 123.25 113.339844 L 136.789062 113.339844 L 111.652344 30.117188 L 85.871094 115.460938 L 84.660156 119.484375 L 83.648438 115.460938 L 84.660156 119.484375 L 81.972656 128.378906 L 81.960938 128.425781 L 81.558594 129.746094 L 74.929688 151.707031 L 85.882812 160.273438 L 86.027344 159.792969 L 86.191406 159.261719 L 86.347656 158.726562 L 86.515625 158.195312 L 86.667969 157.660156 L 86.824219 157.128906 L 87.148438 156.0625 L 87.3125 155.527344 L 87.46875 154.996094 L 90.824219 143.910156 L 98.023438 172.457031 L 90.824219 143.910156 L 95.035156 129.980469 L 95.191406 129.445312 L 95.355469 128.914062 L 95.511719 128.378906 L 99.410156 115.460938 Z M 83.648438 115.460938 L 5.09375 115.460938 L 18.921875 127.023438 L 59.023438 158.359375 L 90.691406 183.121094 L 98.832031 189.484375 L 109.1875 181.1875 L 98.023438 172.457031 L 86.027344 163.082031 L 85.226562 162.449219 L 61.019531 143.53125 L 44.046875 130.269531 L 44.703125 128.378906 L 79.75 128.378906 Z M 69.609375 169.335938 L 44.546875 252.28125 L 92.746094 213.65625 L 109.984375 199.839844 L 111.019531 199.003906 L 121.382812 190.707031 L 122.425781 189.875 L 131.445312 182.644531 L 139.910156 175.855469 L 135.878906 162.515625 L 125.859375 170.546875 L 118.882812 176.132812 L 110.90625 182.53125 L 97.035156 193.652344 L 71.695312 213.957031 L 70.007812 212.824219 L 80.558594 177.890625 Z M 69.609375 169.335938 " fill-opacity="1" fill-rule="evenodd"/></g></svg>