<svg xmlns="http://www.w3.org/2000/svg" xmlns:xlink="http://www.w3.org/1999/xlink" width="1466" height="843.085" viewBox="0 0 1466 843.085">
  <defs>
    <clipPath id="clip-path">
      <rect id="Rectangle_67" data-name="Rectangle 67" width="1466" height="843.085" fill="none"/>
    </clipPath>
    <linearGradient id="linear-gradient" x1="0.854" y1="0.854" x2="0.146" y2="0.146" gradientUnits="objectBoundingBox">
      <stop offset="0" stop-color="#168831"/>
      <stop offset="1" stop-color="#94b605"/>
    </linearGradient>
    <linearGradient id="linear-gradient-2" x1="0.854" y1="0.854" x2="0.146" y2="0.146" gradientUnits="objectBoundingBox">
      <stop offset="0" stop-color="#00749c"/>
      <stop offset="0.261" stop-color="#0081b2"/>
      <stop offset="0.744" stop-color="#0098d7"/>
      <stop offset="1" stop-color="#00a1e6"/>
    </linearGradient>
    <linearGradient id="linear-gradient-3" x1="1" y1="0.5" x2="0" y2="0.5" gradientUnits="objectBoundingBox">
      <stop offset="0" stop-color="#de2035"/>
      <stop offset="0.171" stop-color="#e1332c"/>
      <stop offset="0.366" stop-color="#e44226"/>
      <stop offset="0.604" stop-color="#e54a23"/>
      <stop offset="0.999" stop-color="#e64d22"/>
    </linearGradient>
    <linearGradient id="linear-gradient-4" x1="1.234" y1="-0.846" x2="0.469" y2="-1.681" gradientUnits="objectBoundingBox">
      <stop offset="0" stop-color="#8b004e"/>
      <stop offset="0.129" stop-color="#a20057"/>
      <stop offset="0.283" stop-color="#b7005f"/>
      <stop offset="0.457" stop-color="#c50064"/>
      <stop offset="0.665" stop-color="#ce0068"/>
      <stop offset="1" stop-color="#d10069"/>
    </linearGradient>
    <linearGradient id="linear-gradient-5" x1="1.216" y1="-3.351" x2="0.15" y2="-3.351" xlink:href="#linear-gradient-2"/>
  </defs>
  <g id="Groupe_1902" data-name="Groupe 1902" transform="translate(0)" opacity="0.169">
    <g id="Groupe_1901" data-name="Groupe 1901" transform="translate(0)" clip-path="url(#clip-path)">
      <g id="Groupe_1896" data-name="Groupe 1896" transform="translate(101.996 223.041)">
        <ellipse id="Ellipse_63" data-name="Ellipse 63" cx="501.051" cy="501.051" rx="501.051" ry="501.051" transform="translate(39.83 39.828)" fill="#fff"/>
        <path id="Tracé_31463" data-name="Tracé 31463" d="M-2472.273,3377.3a544.205,544.205,0,0,0,132.791-16.537c140.057-35.216,258.018-122.865,332.15-246.8s95.568-269.325,60.354-409.38-122.866-258.016-246.8-332.151-269.323-95.565-409.378-60.352-258.018,122.864-332.151,246.8-95.567,269.323-60.354,409.378,122.864,258.016,246.8,332.153C-2663.875,3351.242-2568.8,3377.3-2472.273,3377.3Zm1.768-1002.506c82.387,0,163.518,22.233,236.059,65.626,105.776,63.271,180.583,163.948,210.639,283.48s11.761,243.621-51.51,349.4c-86.337,144.333-239.68,224.452-396.769,224.463a458.56,458.56,0,0,1-236.11-65.337c-105.773-63.271-180.58-163.947-210.636-283.48s-11.761-243.62,51.51-349.4,163.947-180.581,283.482-210.637A464.506,464.506,0,0,1-2470.505,2374.792Z" transform="translate(3012.2 -2295.54)" fill="url(#linear-gradient)"/>
      </g>
      <g id="Groupe_1897" data-name="Groupe 1897" transform="translate(-449.705 82.104)">
        <ellipse id="Ellipse_64" data-name="Ellipse 64" cx="526.454" cy="526.454" rx="526.454" ry="526.454" transform="translate(32.287 32.286)" fill="#fff"/>
        <path id="Tracé_31464" data-name="Tracé 31464" d="M-2215.87,3347.855a562.071,562.071,0,0,0,137.177-17.086c144.681-36.377,266.537-126.921,343.12-254.949s98.723-278.216,62.346-422.9-126.923-266.537-254.952-343.118-278.214-98.723-422.9-62.346-266.537,126.921-343.118,254.951-98.723,278.214-62.346,422.9,126.921,266.537,254.949,343.118C-2413.8,3320.94-2315.581,3347.855-2215.87,3347.855Zm1.858-1053.333c88.272,0,175.2,23.821,252.916,70.309,113.33,67.791,193.479,175.656,225.681,303.726s12.6,261.018-55.187,374.348-175.656,193.477-303.727,225.678a497.841,497.841,0,0,1-121.427,15.124c-88.273,0-175.2-23.822-252.917-70.311-113.33-67.791-193.477-175.656-225.68-303.728s-12.6-261.013,55.189-374.344,175.654-193.478,303.725-225.68A497.758,497.758,0,0,1-2214.012,2294.523Z" transform="translate(2773.625 -2230.374)" fill="url(#linear-gradient-2)"/>
      </g>
      <g id="Groupe_1898" data-name="Groupe 1898" transform="translate(700.99 476.865)">
        <ellipse id="Ellipse_65" data-name="Ellipse 65" cx="334.122" cy="334.122" rx="334.122" ry="334.122" transform="translate(32.098 32.098)" fill="#fff"/>
        <path id="Tracé_31465" data-name="Tracé 31465" d="M-2761.9,3145.478a367.449,367.449,0,0,0,106.178-15.762c193.319-58.284,303.178-262.978,244.895-456.3h0c-58.284-193.32-262.969-303.174-456.3-244.893s-303.176,262.979-244.892,456.3a363.793,363.793,0,0,0,177.429,216.95A364.366,364.366,0,0,0-2761.9,3145.478Zm289.678-453.548c48.079,159.466-42.543,328.316-202.009,376.394a300.074,300.074,0,0,1-230.034-23.052,300.066,300.066,0,0,1-146.359-178.959c-48.078-159.464,42.543-328.315,202.009-376.395s328.316,42.544,376.394,202.012Z" transform="translate(3127.643 -2412.902)" fill="url(#linear-gradient-3)"/>
      </g>
      <g id="Groupe_1899" data-name="Groupe 1899" transform="translate(-505.804 156.224)">
        <path id="Tracé_31466" data-name="Tracé 31466" d="M-2549.48,2882.536c-75.536,22.5-159.949,13.809-233.043-24.278-74.132-38.632-127.592-102.261-150.56-179.21-27.041-92.4-19.668-174.776,21.917-244.821,37.195-62.651,99.806-111.161,176.3-136.595,84.144-27.978,173.261-23.485,244.5,12.325,69.69,35.034,119.69,97.326,148.617,185.146l1.328,4.033,1.607,3.934c47.228,115.688,106.788,198.328,182.086,252.642l.967.7.984.679,8.638,5.98.992.686,1,.666c138.7,92,286.769,65.784,405.747,44.719,50.217-8.891,97.715-17.3,134.635-15.117,59.365,7.914,114.483,44.226,144.681,95.4,33.218,61.573,39.651,119.207,19.125,171.333-21.521,54.657-71.692,99.7-134.207,120.482-45.663,15.183-93.057,15.25-133.45.189-46.3-17.266-83.733-53.751-111.243-108.445l-2.98-5.924-3.6-5.569a845.5,845.5,0,0,0-59.291-81.243" transform="translate(2981.167 -2247.421)" fill="#fff"/>
        <path id="Tracé_31467" data-name="Tracé 31467" d="M-1625.879,3241.952a251.255,251.255,0,0,0,79.1-13.061c71.422-23.749,128.965-75.77,153.925-139.16,24.145-61.319,17.166-128.037-20.74-198.3l-.606-1.071c-34.959-59.242-99.354-101.734-168.057-110.888l-2.342-.225c-40.684-2.405-89.938,6.311-142.088,15.546-57.658,10.206-122.98,21.764-188.849,19.573-73.7-2.464-137.036-21.9-193.616-59.434l-1.5-1.012-10.046-6.975c-70.294-50.7-126.281-128.8-171.168-238.763l-1.187-2.9-.978-2.971c-31.69-96.214-87.092-164.769-164.671-203.768-78.794-39.611-176.85-44.747-269.016-14.105-83.811,27.867-152.619,81.371-193.753,150.652-46.309,78-54.76,168.907-25.118,270.2,25.516,85.485,84.635,155.971,166.513,198.635,80.034,41.706,173.709,51.393,257.014,26.573l-18.308-61.452c-67.478,20.1-143.684,12.087-209.075-21.987-66.366-34.583-114.187-91.387-134.651-159.946-24.4-83.361-18.1-157.2,18.762-219.286,33.258-56.017,89.671-99.536,158.845-122.537,76.12-25.31,156.3-21.468,219.986,10.547,61.8,31.066,106.4,87.1,132.566,166.53l2.1,6.134,1.6,3.932c49.559,121.4,112.695,208.584,193.008,266.515l2.467,1.746,11.143,7.673c66.781,44.3,141.007,67.223,226.93,70.092,72.6,2.431,141.411-9.762,202.137-20.513,47.79-8.463,92.944-16.475,125.978-14.746,49,6.906,94.776,37.163,119.831,79.242,28.267,52.65,34.057,101.028,17.213,143.805-18.083,45.921-60.886,83.982-114.494,101.8-38.746,12.884-78.568,13.087-112.134.571-38.482-14.35-70.041-45.576-93.8-92.808l-3.761-7.479-4.548-7.029a883.257,883.257,0,0,0-61.55-84.317l-49.315,40.982a819.723,819.723,0,0,1,57.034,78.175l2.658,4.107,2.2,4.371c31.262,62.151,74.556,103.9,128.683,124.079A216.614,216.614,0,0,0-1625.879,3241.952Z" transform="translate(2963.902 -2264.646)" fill="url(#linear-gradient-4)"/>
      </g>
      <g id="Groupe_1900" data-name="Groupe 1900" transform="translate(-53.483 679.842)">
        <path id="Tracé_31468" data-name="Tracé 31468" d="M-2105.208,2800.183a637.925,637.925,0,0,0-46.354-78.964c-88.886-137.274-249.63-212.979-420.163-197.7a492.48,492.48,0,0,0-85.135,15.286l-2.027.552-2,.621a291.158,291.158,0,0,1-59.9,11.83q-4.486.4-8.979.662" transform="translate(2731.619 -2489.517)" fill="#fff"/>
        <path id="Tracé_31469" data-name="Tracé 31469" d="M-2145.333,2831.7l57.41-28.565a674.867,674.867,0,0,0-48.417-82.522c-95.381-146.963-267.622-228.115-449.668-211.792a524.834,524.834,0,0,0-90.691,16.283l-5.067,1.47a258.776,258.776,0,0,1-53.3,10.533q-3.988.356-7.971.588l3.7,64.017c3.3-.192,6.662-.439,9.994-.739a323.036,323.036,0,0,0,66.507-13.132l2.982-.865a460.474,460.474,0,0,1,79.572-14.287c158.437-14.22,308.027,56,390.389,183.191l.542.809A601.632,601.632,0,0,1-2145.333,2831.7Z" transform="translate(2743.041 -2506.753)" fill="url(#linear-gradient-5)"/>
      </g>
    </g>
  </g>
</svg>
