<svg xmlns="http://www.w3.org/2000/svg" xmlns:xlink="http://www.w3.org/1999/xlink" width="500" zoomAndPan="magnify" viewBox="0 0 375 374.999991" height="500" preserveAspectRatio="xMidYMid meet" version="1.0"><defs><g/></defs><g fill="#ff914d" fill-opacity="1"><g transform="translate(-2.705672, 205.874986)"><g><path d="M 37.46875 -34.734375 C 37.78125 -34.734375 38.039062 -34.628906 38.25 -34.421875 C 38.457031 -34.210938 38.5625 -33.9375 38.5625 -33.59375 L 38.5625 -1.0625 C 38.5625 -0.738281 38.457031 -0.472656 38.25 -0.265625 C 38.039062 -0.0664062 37.78125 0.03125 37.46875 0.03125 L 33.671875 0.03125 C 33.117188 0.03125 32.726562 -0.21875 32.5 -0.71875 L 31.109375 -5.40625 C 29.710938 -3.46875 27.984375 -1.953125 25.921875 -0.859375 C 23.859375 0.234375 21.578125 0.78125 19.078125 0.78125 C 16.703125 0.78125 14.503906 0.328125 12.484375 -0.578125 C 10.472656 -1.492188 8.710938 -2.765625 7.203125 -4.390625 C 5.703125 -6.023438 4.53125 -7.941406 3.6875 -10.140625 C 2.84375 -12.335938 2.421875 -14.722656 2.421875 -17.296875 C 2.421875 -19.941406 2.835938 -22.375 3.671875 -24.59375 C 4.503906 -26.8125 5.671875 -28.738281 7.171875 -30.375 C 8.679688 -32.019531 10.441406 -33.289062 12.453125 -34.1875 C 14.472656 -35.09375 16.664062 -35.546875 19.03125 -35.546875 C 21.539062 -35.546875 23.832031 -35 25.90625 -33.90625 C 27.976562 -32.8125 29.710938 -31.273438 31.109375 -29.296875 L 32.5 -33.96875 C 32.726562 -34.476562 33.117188 -34.734375 33.671875 -34.734375 Z M 20.671875 -7.71875 C 21.992188 -7.71875 23.234375 -7.960938 24.390625 -8.453125 C 25.554688 -8.941406 26.582031 -9.625 27.46875 -10.5 C 28.363281 -11.382812 29.0625 -12.40625 29.5625 -13.5625 C 30.0625 -14.726562 30.3125 -15.984375 30.3125 -17.328125 C 30.3125 -18.691406 30.054688 -19.960938 29.546875 -21.140625 C 29.035156 -22.316406 28.332031 -23.34375 27.4375 -24.21875 C 26.550781 -25.09375 25.523438 -25.773438 24.359375 -26.265625 C 23.203125 -26.753906 21.960938 -27 20.640625 -27 C 19.347656 -27 18.128906 -26.753906 16.984375 -26.265625 C 15.847656 -25.773438 14.847656 -25.09375 13.984375 -24.21875 C 13.117188 -23.34375 12.429688 -22.316406 11.921875 -21.140625 C 11.421875 -19.960938 11.171875 -18.691406 11.171875 -17.328125 C 11.171875 -15.984375 11.421875 -14.726562 11.921875 -13.5625 C 12.429688 -12.40625 13.125 -11.382812 14 -10.5 C 14.875 -9.625 15.878906 -8.941406 17.015625 -8.453125 C 18.160156 -7.960938 19.378906 -7.71875 20.671875 -7.71875 Z M 20.671875 -7.71875 "/></g></g></g><g fill="#373737" fill-opacity="1"><g transform="translate(40.395887, 205.874986)"><g><path d="M 46.21875 -35.484375 C 48.738281 -35.484375 50.960938 -34.878906 52.890625 -33.671875 C 54.816406 -32.460938 56.328125 -30.738281 57.421875 -28.5 C 58.515625 -26.269531 59.0625 -23.617188 59.0625 -20.546875 L 59.0625 -1.0625 C 59.0625 -0.351562 58.695312 0 57.96875 0 L 51.46875 0 C 50.738281 0 50.375 -0.351562 50.375 -1.0625 L 50.375 -20.03125 C 50.375 -21.507812 50.09375 -22.8125 49.53125 -23.9375 C 48.976562 -25.070312 48.195312 -25.960938 47.1875 -26.609375 C 46.175781 -27.253906 44.972656 -27.578125 43.578125 -27.578125 C 42.117188 -27.578125 40.832031 -27.242188 39.71875 -26.578125 C 38.601562 -25.921875 37.726562 -25.007812 37.09375 -23.84375 C 36.46875 -22.6875 36.15625 -21.359375 36.15625 -19.859375 L 36.125 -19.921875 L 36.125 -1.0625 C 36.125 -0.351562 35.769531 0 35.0625 0 L 28.546875 0 C 27.835938 0 27.484375 -0.351562 27.484375 -1.0625 L 27.484375 -20.03125 C 27.484375 -21.507812 27.203125 -22.8125 26.640625 -23.9375 C 26.085938 -25.070312 25.296875 -25.960938 24.265625 -26.609375 C 23.242188 -27.253906 22.035156 -27.578125 20.640625 -27.578125 C 19.179688 -27.578125 17.894531 -27.242188 16.78125 -26.578125 C 15.664062 -25.921875 14.796875 -25.007812 14.171875 -23.84375 C 13.546875 -22.6875 13.234375 -21.359375 13.234375 -19.859375 L 13.234375 -1.03125 C 13.234375 -0.320312 12.878906 0.03125 12.171875 0.03125 L 5.609375 0.03125 C 4.898438 0.03125 4.546875 -0.320312 4.546875 -1.03125 L 4.546875 -33.59375 C 4.546875 -33.9375 4.644531 -34.210938 4.84375 -34.421875 C 5.050781 -34.628906 5.316406 -34.734375 5.640625 -34.734375 L 9.4375 -34.734375 C 9.707031 -34.734375 9.9375 -34.660156 10.125 -34.515625 C 10.320312 -34.378906 10.476562 -34.195312 10.59375 -33.96875 L 12.171875 -28.78125 C 12.847656 -30.125 13.75 -31.296875 14.875 -32.296875 C 16.007812 -33.296875 17.296875 -34.078125 18.734375 -34.640625 C 20.171875 -35.203125 21.6875 -35.484375 23.28125 -35.484375 C 25.914062 -35.484375 28.222656 -34.820312 30.203125 -33.5 C 32.191406 -32.175781 33.703125 -30.328125 34.734375 -27.953125 C 35.347656 -29.460938 36.226562 -30.78125 37.375 -31.90625 C 38.53125 -33.03125 39.867188 -33.90625 41.390625 -34.53125 C 42.921875 -35.164062 44.53125 -35.484375 46.21875 -35.484375 Z M 46.21875 -35.484375 "/></g></g></g><g fill="#373737" fill-opacity="1"><g transform="translate(103.65896, 205.874986)"><g><path d="M 37.46875 -34.734375 C 37.78125 -34.734375 38.039062 -34.628906 38.25 -34.421875 C 38.457031 -34.210938 38.5625 -33.9375 38.5625 -33.59375 L 38.5625 -1.0625 C 38.5625 -0.738281 38.457031 -0.472656 38.25 -0.265625 C 38.039062 -0.0664062 37.78125 0.03125 37.46875 0.03125 L 33.671875 0.03125 C 33.117188 0.03125 32.726562 -0.21875 32.5 -0.71875 L 31.109375 -5.40625 C 29.710938 -3.46875 27.984375 -1.953125 25.921875 -0.859375 C 23.859375 0.234375 21.578125 0.78125 19.078125 0.78125 C 16.703125 0.78125 14.503906 0.328125 12.484375 -0.578125 C 10.472656 -1.492188 8.710938 -2.765625 7.203125 -4.390625 C 5.703125 -6.023438 4.53125 -7.941406 3.6875 -10.140625 C 2.84375 -12.335938 2.421875 -14.722656 2.421875 -17.296875 C 2.421875 -19.941406 2.835938 -22.375 3.671875 -24.59375 C 4.503906 -26.8125 5.671875 -28.738281 7.171875 -30.375 C 8.679688 -32.019531 10.441406 -33.289062 12.453125 -34.1875 C 14.472656 -35.09375 16.664062 -35.546875 19.03125 -35.546875 C 21.539062 -35.546875 23.832031 -35 25.90625 -33.90625 C 27.976562 -32.8125 29.710938 -31.273438 31.109375 -29.296875 L 32.5 -33.96875 C 32.726562 -34.476562 33.117188 -34.734375 33.671875 -34.734375 Z M 20.671875 -7.71875 C 21.992188 -7.71875 23.234375 -7.960938 24.390625 -8.453125 C 25.554688 -8.941406 26.582031 -9.625 27.46875 -10.5 C 28.363281 -11.382812 29.0625 -12.40625 29.5625 -13.5625 C 30.0625 -14.726562 30.3125 -15.984375 30.3125 -17.328125 C 30.3125 -18.691406 30.054688 -19.960938 29.546875 -21.140625 C 29.035156 -22.316406 28.332031 -23.34375 27.4375 -24.21875 C 26.550781 -25.09375 25.523438 -25.773438 24.359375 -26.265625 C 23.203125 -26.753906 21.960938 -27 20.640625 -27 C 19.347656 -27 18.128906 -26.753906 16.984375 -26.265625 C 15.847656 -25.773438 14.847656 -25.09375 13.984375 -24.21875 C 13.117188 -23.34375 12.429688 -22.316406 11.921875 -21.140625 C 11.421875 -19.960938 11.171875 -18.691406 11.171875 -17.328125 C 11.171875 -15.984375 11.421875 -14.726562 11.921875 -13.5625 C 12.429688 -12.40625 13.125 -11.382812 14 -10.5 C 14.875 -9.625 15.878906 -8.941406 17.015625 -8.453125 C 18.160156 -7.960938 19.378906 -7.71875 20.671875 -7.71875 Z M 20.671875 -7.71875 "/></g></g></g><g fill="#218dcc" fill-opacity="1"><g transform="translate(146.766978, 205.874986)"><g><path d="M 24.234375 -35.546875 C 26.921875 -35.546875 29.296875 -34.941406 31.359375 -33.734375 C 33.421875 -32.523438 35.035156 -30.800781 36.203125 -28.5625 C 37.378906 -26.332031 37.96875 -23.679688 37.96875 -20.609375 L 37.96875 -1.0625 C 37.96875 -0.351562 37.617188 0 36.921875 0 L 30.390625 0 C 29.679688 0 29.328125 -0.351562 29.328125 -1.0625 L 29.328125 -20.09375 C 29.328125 -21.570312 29.003906 -22.875 28.359375 -24 C 27.722656 -25.132812 26.820312 -26.023438 25.65625 -26.671875 C 24.5 -27.328125 23.132812 -27.65625 21.5625 -27.65625 C 20.039062 -27.65625 18.644531 -27.300781 17.375 -26.59375 C 16.113281 -25.882812 15.109375 -24.945312 14.359375 -23.78125 C 13.609375 -22.625 13.234375 -21.351562 13.234375 -19.96875 L 13.234375 -1.03125 C 13.234375 -0.320312 12.878906 0.03125 12.171875 0.03125 L 5.609375 0.03125 C 4.898438 0.03125 4.546875 -0.320312 4.546875 -1.03125 L 4.546875 -33.59375 C 4.546875 -33.9375 4.644531 -34.210938 4.84375 -34.421875 C 5.050781 -34.628906 5.316406 -34.734375 5.640625 -34.734375 L 9.4375 -34.734375 C 9.707031 -34.734375 9.9375 -34.660156 10.125 -34.515625 C 10.320312 -34.378906 10.476562 -34.195312 10.59375 -33.96875 L 12.203125 -28.609375 C 12.953125 -29.953125 13.945312 -31.144531 15.1875 -32.1875 C 16.4375 -33.238281 17.835938 -34.0625 19.390625 -34.65625 C 20.953125 -35.25 22.566406 -35.546875 24.234375 -35.546875 Z M 24.234375 -35.546875 "/></g></g></g><g fill="#218dcc" fill-opacity="1"><g transform="translate(188.942356, 205.874986)"><g><path d="M 37.671875 -19 C 37.671875 -18.039062 37.46875 -17.117188 37.0625 -16.234375 C 36.664062 -15.347656 36.128906 -14.617188 35.453125 -14.046875 C 34.785156 -13.472656 34.03125 -13.1875 33.1875 -13.1875 L 11.828125 -13.1875 C 12.253906 -12.070312 12.914062 -11.078125 13.8125 -10.203125 C 14.71875 -9.328125 15.796875 -8.640625 17.046875 -8.140625 C 18.304688 -7.640625 19.664062 -7.390625 21.125 -7.390625 C 21.78125 -7.390625 22.519531 -7.5 23.34375 -7.71875 C 24.164062 -7.945312 25 -8.257812 25.84375 -8.65625 C 26.6875 -9.0625 27.445312 -9.515625 28.125 -10.015625 C 28.375 -10.222656 28.664062 -10.296875 29 -10.234375 C 29.332031 -10.179688 29.601562 -10.03125 29.8125 -9.78125 L 33.296875 -5.203125 C 33.472656 -4.921875 33.550781 -4.617188 33.53125 -4.296875 C 33.507812 -3.984375 33.375 -3.710938 33.125 -3.484375 C 32.144531 -2.660156 30.945312 -1.921875 29.53125 -1.265625 C 28.113281 -0.609375 26.644531 -0.09375 25.125 0.28125 C 23.613281 0.664062 22.203125 0.859375 20.890625 0.859375 C 18.285156 0.859375 15.863281 0.390625 13.625 -0.546875 C 11.394531 -1.484375 9.441406 -2.773438 7.765625 -4.421875 C 6.097656 -6.078125 4.789062 -8.003906 3.84375 -10.203125 C 2.894531 -12.398438 2.421875 -14.765625 2.421875 -17.296875 C 2.421875 -19.847656 2.882812 -22.222656 3.8125 -24.421875 C 4.738281 -26.617188 6.019531 -28.546875 7.65625 -30.203125 C 9.300781 -31.867188 11.207031 -33.171875 13.375 -34.109375 C 15.550781 -35.046875 17.90625 -35.515625 20.4375 -35.515625 C 22.851562 -35.515625 25.101562 -35.09375 27.1875 -34.25 C 29.269531 -33.40625 31.097656 -32.226562 32.671875 -30.71875 C 34.242188 -29.21875 35.46875 -27.46875 36.34375 -25.46875 C 37.226562 -23.476562 37.671875 -21.320312 37.671875 -19 Z M 20.234375 -27.375 C 18.890625 -27.375 17.640625 -27.101562 16.484375 -26.5625 C 15.335938 -26.03125 14.351562 -25.289062 13.53125 -24.34375 C 12.71875 -23.40625 12.113281 -22.320312 11.71875 -21.09375 L 29.015625 -21.09375 C 28.671875 -22.320312 28.070312 -23.40625 27.21875 -24.34375 C 26.363281 -25.289062 25.335938 -26.03125 24.140625 -26.5625 C 22.953125 -27.101562 21.648438 -27.375 20.234375 -27.375 Z M 20.234375 -27.375 "/></g></g></g><g fill="#218dcc" fill-opacity="1"><g transform="translate(228.998712, 205.874986)"><g><path d="M 21.125 -7.34375 C 21.582031 -7.34375 21.960938 -7.222656 22.265625 -6.984375 C 22.578125 -6.742188 22.734375 -6.429688 22.734375 -6.046875 L 22.734375 -0.578125 C 22.734375 -0.171875 22.570312 0.160156 22.25 0.421875 C 21.925781 0.691406 21.515625 0.828125 21.015625 0.828125 C 17.984375 0.828125 15.378906 0.296875 13.203125 -0.765625 C 11.035156 -1.828125 9.359375 -3.398438 8.171875 -5.484375 C 6.984375 -7.566406 6.390625 -10.148438 6.390625 -13.234375 L 6.390625 -27.484375 L 2.390625 -27.484375 C 1.710938 -27.484375 1.375 -27.820312 1.375 -28.5 L 1.375 -33.640625 C 1.375 -34.335938 1.710938 -34.6875 2.390625 -34.6875 L 6.390625 -34.6875 L 6.390625 -44.1875 C 6.390625 -44.832031 6.6875 -45.234375 7.28125 -45.390625 L 13.8125 -46.828125 C 14.632812 -46.960938 15.046875 -46.65625 15.046875 -45.90625 L 15.046875 -34.6875 L 21.5 -34.6875 C 22.15625 -34.6875 22.484375 -34.347656 22.484375 -33.671875 L 22.484375 -28.5 C 22.484375 -27.820312 22.15625 -27.484375 21.5 -27.484375 L 15.078125 -27.484375 L 15.078125 -13.09375 C 15.078125 -11.15625 15.617188 -9.710938 16.703125 -8.765625 C 17.785156 -7.816406 19.257812 -7.34375 21.125 -7.34375 Z M 21.125 -7.34375 "/></g></g></g><g fill="#65a935" fill-opacity="1"><g transform="translate(255.083373, 205.874986)"><g><path d="M 9.46875 1.03125 C 8.46875 1.03125 7.554688 0.789062 6.734375 0.3125 C 5.910156 -0.164062 5.257812 -0.816406 4.78125 -1.640625 C 4.300781 -2.460938 4.0625 -3.363281 4.0625 -4.34375 C 4.0625 -5.34375 4.300781 -6.242188 4.78125 -7.046875 C 5.257812 -7.859375 5.910156 -8.503906 6.734375 -8.984375 C 7.554688 -9.460938 8.46875 -9.703125 9.46875 -9.703125 C 10.445312 -9.703125 11.332031 -9.460938 12.125 -8.984375 C 12.925781 -8.503906 13.570312 -7.859375 14.0625 -7.046875 C 14.550781 -6.242188 14.796875 -5.34375 14.796875 -4.34375 C 14.796875 -3.363281 14.550781 -2.460938 14.0625 -1.640625 C 13.570312 -0.816406 12.925781 -0.164062 12.125 0.3125 C 11.332031 0.789062 10.445312 1.03125 9.46875 1.03125 Z M 9.46875 1.03125 "/></g></g></g><g fill="#ea4c47" fill-opacity="1"><g transform="translate(273.950559, 205.874986)"><g><path d="M 46.21875 -35.484375 C 48.738281 -35.484375 50.960938 -34.878906 52.890625 -33.671875 C 54.816406 -32.460938 56.328125 -30.738281 57.421875 -28.5 C 58.515625 -26.269531 59.0625 -23.617188 59.0625 -20.546875 L 59.0625 -1.0625 C 59.0625 -0.351562 58.695312 0 57.96875 0 L 51.46875 0 C 50.738281 0 50.375 -0.351562 50.375 -1.0625 L 50.375 -20.03125 C 50.375 -21.507812 50.09375 -22.8125 49.53125 -23.9375 C 48.976562 -25.070312 48.195312 -25.960938 47.1875 -26.609375 C 46.175781 -27.253906 44.972656 -27.578125 43.578125 -27.578125 C 42.117188 -27.578125 40.832031 -27.242188 39.71875 -26.578125 C 38.601562 -25.921875 37.726562 -25.007812 37.09375 -23.84375 C 36.46875 -22.6875 36.15625 -21.359375 36.15625 -19.859375 L 36.125 -19.921875 L 36.125 -1.0625 C 36.125 -0.351562 35.769531 0 35.0625 0 L 28.546875 0 C 27.835938 0 27.484375 -0.351562 27.484375 -1.0625 L 27.484375 -20.03125 C 27.484375 -21.507812 27.203125 -22.8125 26.640625 -23.9375 C 26.085938 -25.070312 25.296875 -25.960938 24.265625 -26.609375 C 23.242188 -27.253906 22.035156 -27.578125 20.640625 -27.578125 C 19.179688 -27.578125 17.894531 -27.242188 16.78125 -26.578125 C 15.664062 -25.921875 14.796875 -25.007812 14.171875 -23.84375 C 13.546875 -22.6875 13.234375 -21.359375 13.234375 -19.859375 L 13.234375 -1.03125 C 13.234375 -0.320312 12.878906 0.03125 12.171875 0.03125 L 5.609375 0.03125 C 4.898438 0.03125 4.546875 -0.320312 4.546875 -1.03125 L 4.546875 -33.59375 C 4.546875 -33.9375 4.644531 -34.210938 4.84375 -34.421875 C 5.050781 -34.628906 5.316406 -34.734375 5.640625 -34.734375 L 9.4375 -34.734375 C 9.707031 -34.734375 9.9375 -34.660156 10.125 -34.515625 C 10.320312 -34.378906 10.476562 -34.195312 10.59375 -33.96875 L 12.171875 -28.78125 C 12.847656 -30.125 13.75 -31.296875 14.875 -32.296875 C 16.007812 -33.296875 17.296875 -34.078125 18.734375 -34.640625 C 20.171875 -35.203125 21.6875 -35.484375 23.28125 -35.484375 C 25.914062 -35.484375 28.222656 -34.820312 30.203125 -33.5 C 32.191406 -32.175781 33.703125 -30.328125 34.734375 -27.953125 C 35.347656 -29.460938 36.226562 -30.78125 37.375 -31.90625 C 38.53125 -33.03125 39.867188 -33.90625 41.390625 -34.53125 C 42.921875 -35.164062 44.53125 -35.484375 46.21875 -35.484375 Z M 46.21875 -35.484375 "/></g></g></g><g fill="#ea4c47" fill-opacity="1"><g transform="translate(337.213632, 205.874986)"><g><path d="M 37.46875 -34.734375 C 37.78125 -34.734375 38.039062 -34.628906 38.25 -34.421875 C 38.457031 -34.210938 38.5625 -33.9375 38.5625 -33.59375 L 38.5625 -1.0625 C 38.5625 -0.738281 38.457031 -0.472656 38.25 -0.265625 C 38.039062 -0.0664062 37.78125 0.03125 37.46875 0.03125 L 33.671875 0.03125 C 33.117188 0.03125 32.726562 -0.21875 32.5 -0.71875 L 31.109375 -5.40625 C 29.710938 -3.46875 27.984375 -1.953125 25.921875 -0.859375 C 23.859375 0.234375 21.578125 0.78125 19.078125 0.78125 C 16.703125 0.78125 14.503906 0.328125 12.484375 -0.578125 C 10.472656 -1.492188 8.710938 -2.765625 7.203125 -4.390625 C 5.703125 -6.023438 4.53125 -7.941406 3.6875 -10.140625 C 2.84375 -12.335938 2.421875 -14.722656 2.421875 -17.296875 C 2.421875 -19.941406 2.835938 -22.375 3.671875 -24.59375 C 4.503906 -26.8125 5.671875 -28.738281 7.171875 -30.375 C 8.679688 -32.019531 10.441406 -33.289062 12.453125 -34.1875 C 14.472656 -35.09375 16.664062 -35.546875 19.03125 -35.546875 C 21.539062 -35.546875 23.832031 -35 25.90625 -33.90625 C 27.976562 -32.8125 29.710938 -31.273438 31.109375 -29.296875 L 32.5 -33.96875 C 32.726562 -34.476562 33.117188 -34.734375 33.671875 -34.734375 Z M 20.671875 -7.71875 C 21.992188 -7.71875 23.234375 -7.960938 24.390625 -8.453125 C 25.554688 -8.941406 26.582031 -9.625 27.46875 -10.5 C 28.363281 -11.382812 29.0625 -12.40625 29.5625 -13.5625 C 30.0625 -14.726562 30.3125 -15.984375 30.3125 -17.328125 C 30.3125 -18.691406 30.054688 -19.960938 29.546875 -21.140625 C 29.035156 -22.316406 28.332031 -23.34375 27.4375 -24.21875 C 26.550781 -25.09375 25.523438 -25.773438 24.359375 -26.265625 C 23.203125 -26.753906 21.960938 -27 20.640625 -27 C 19.347656 -27 18.128906 -26.753906 16.984375 -26.265625 C 15.847656 -25.773438 14.847656 -25.09375 13.984375 -24.21875 C 13.117188 -23.34375 12.429688 -22.316406 11.921875 -21.140625 C 11.421875 -19.960938 11.171875 -18.691406 11.171875 -17.328125 C 11.171875 -15.984375 11.421875 -14.726562 11.921875 -13.5625 C 12.429688 -12.40625 13.125 -11.382812 14 -10.5 C 14.875 -9.625 15.878906 -8.941406 17.015625 -8.453125 C 18.160156 -7.960938 19.378906 -7.71875 20.671875 -7.71875 Z M 20.671875 -7.71875 "/></g></g></g></svg>