<svg xmlns="http://www.w3.org/2000/svg" xmlns:xlink="http://www.w3.org/1999/xlink" width="500" zoomAndPan="magnify" viewBox="0 0 375 374.999991" height="500" preserveAspectRatio="xMidYMid meet" version="1.0"><defs><g/></defs><g fill="#ff914d" fill-opacity="1"><g transform="translate(36.93774, 202.124987)"><g><path d="M 29.4375 -27.28125 C 29.6875 -27.28125 29.890625 -27.195312 30.046875 -27.03125 C 30.210938 -26.875 30.296875 -26.664062 30.296875 -26.40625 L 30.296875 -0.828125 C 30.296875 -0.578125 30.210938 -0.367188 30.046875 -0.203125 C 29.890625 -0.046875 29.6875 0.03125 29.4375 0.03125 L 26.453125 0.03125 C 26.023438 0.03125 25.722656 -0.164062 25.546875 -0.5625 L 24.4375 -4.25 C 23.34375 -2.71875 21.984375 -1.519531 20.359375 -0.65625 C 18.742188 0.195312 16.953125 0.625 14.984375 0.625 C 13.117188 0.625 11.394531 0.265625 9.8125 -0.453125 C 8.226562 -1.171875 6.84375 -2.171875 5.65625 -3.453125 C 4.476562 -4.734375 3.554688 -6.234375 2.890625 -7.953125 C 2.234375 -9.679688 1.90625 -11.5625 1.90625 -13.59375 C 1.90625 -15.664062 2.234375 -17.570312 2.890625 -19.3125 C 3.546875 -21.0625 4.460938 -22.582031 5.640625 -23.875 C 6.816406 -25.164062 8.195312 -26.164062 9.78125 -26.875 C 11.375 -27.582031 13.097656 -27.9375 14.953125 -27.9375 C 16.921875 -27.9375 18.71875 -27.503906 20.34375 -26.640625 C 21.976562 -25.785156 23.34375 -24.578125 24.4375 -23.015625 L 25.546875 -26.6875 C 25.722656 -27.082031 26.023438 -27.28125 26.453125 -27.28125 Z M 16.25 -6.0625 C 17.289062 -6.0625 18.265625 -6.253906 19.171875 -6.640625 C 20.085938 -7.023438 20.894531 -7.5625 21.59375 -8.25 C 22.289062 -8.945312 22.835938 -9.75 23.234375 -10.65625 C 23.628906 -11.570312 23.828125 -12.554688 23.828125 -13.609375 C 23.828125 -14.691406 23.625 -15.691406 23.21875 -16.609375 C 22.8125 -17.535156 22.257812 -18.34375 21.5625 -19.03125 C 20.863281 -19.71875 20.054688 -20.253906 19.140625 -20.640625 C 18.234375 -21.023438 17.257812 -21.21875 16.21875 -21.21875 C 15.195312 -21.21875 14.238281 -21.023438 13.34375 -20.640625 C 12.445312 -20.253906 11.660156 -19.71875 10.984375 -19.03125 C 10.304688 -18.34375 9.769531 -17.535156 9.375 -16.609375 C 8.976562 -15.691406 8.78125 -14.691406 8.78125 -13.609375 C 8.78125 -12.554688 8.976562 -11.570312 9.375 -10.65625 C 9.769531 -9.75 10.3125 -8.945312 11 -8.25 C 11.6875 -7.5625 12.476562 -7.023438 13.375 -6.640625 C 14.269531 -6.253906 15.226562 -6.0625 16.25 -6.0625 Z M 16.25 -6.0625 "/></g></g></g><g fill="#373737" fill-opacity="1"><g transform="translate(70.804925, 202.124987)"><g><path d="M 36.3125 -27.875 C 38.300781 -27.875 40.050781 -27.398438 41.5625 -26.453125 C 43.070312 -25.503906 44.253906 -24.148438 45.109375 -22.390625 C 45.972656 -20.640625 46.40625 -18.554688 46.40625 -16.140625 L 46.40625 -0.828125 C 46.40625 -0.273438 46.117188 0 45.546875 0 L 40.4375 0 C 39.863281 0 39.578125 -0.273438 39.578125 -0.828125 L 39.578125 -15.734375 C 39.578125 -16.898438 39.359375 -17.925781 38.921875 -18.8125 C 38.484375 -19.695312 37.863281 -20.394531 37.0625 -20.90625 C 36.269531 -21.414062 35.328125 -21.671875 34.234375 -21.671875 C 33.085938 -21.671875 32.078125 -21.410156 31.203125 -20.890625 C 30.328125 -20.367188 29.640625 -19.648438 29.140625 -18.734375 C 28.648438 -17.828125 28.40625 -16.785156 28.40625 -15.609375 L 28.390625 -15.65625 L 28.390625 -0.828125 C 28.390625 -0.273438 28.109375 0 27.546875 0 L 22.421875 0 C 21.867188 0 21.59375 -0.273438 21.59375 -0.828125 L 21.59375 -15.734375 C 21.59375 -16.898438 21.375 -17.925781 20.9375 -18.8125 C 20.5 -19.695312 19.875 -20.394531 19.0625 -20.90625 C 18.257812 -21.414062 17.3125 -21.671875 16.21875 -21.671875 C 15.070312 -21.671875 14.0625 -21.410156 13.1875 -20.890625 C 12.3125 -20.367188 11.625 -19.648438 11.125 -18.734375 C 10.632812 -17.828125 10.390625 -16.785156 10.390625 -15.609375 L 10.390625 -0.8125 C 10.390625 -0.25 10.113281 0.03125 9.5625 0.03125 L 4.40625 0.03125 C 3.851562 0.03125 3.578125 -0.25 3.578125 -0.8125 L 3.578125 -26.40625 C 3.578125 -26.664062 3.65625 -26.875 3.8125 -27.03125 C 3.976562 -27.195312 4.1875 -27.28125 4.4375 -27.28125 L 7.40625 -27.28125 C 7.625 -27.28125 7.804688 -27.226562 7.953125 -27.125 C 8.109375 -27.019531 8.234375 -26.875 8.328125 -26.6875 L 9.5625 -22.609375 C 10.09375 -23.671875 10.800781 -24.59375 11.6875 -25.375 C 12.582031 -26.164062 13.59375 -26.78125 14.71875 -27.21875 C 15.84375 -27.65625 17.03125 -27.875 18.28125 -27.875 C 20.363281 -27.875 22.179688 -27.351562 23.734375 -26.3125 C 25.296875 -25.28125 26.476562 -23.832031 27.28125 -21.96875 C 27.769531 -23.144531 28.460938 -24.175781 29.359375 -25.0625 C 30.265625 -25.957031 31.316406 -26.648438 32.515625 -27.140625 C 33.722656 -27.628906 34.988281 -27.875 36.3125 -27.875 Z M 36.3125 -27.875 "/></g></g></g><g fill="#373737" fill-opacity="1"><g transform="translate(120.51087, 202.124987)"><g><path d="M 29.4375 -27.28125 C 29.6875 -27.28125 29.890625 -27.195312 30.046875 -27.03125 C 30.210938 -26.875 30.296875 -26.664062 30.296875 -26.40625 L 30.296875 -0.828125 C 30.296875 -0.578125 30.210938 -0.367188 30.046875 -0.203125 C 29.890625 -0.046875 29.6875 0.03125 29.4375 0.03125 L 26.453125 0.03125 C 26.023438 0.03125 25.722656 -0.164062 25.546875 -0.5625 L 24.4375 -4.25 C 23.34375 -2.71875 21.984375 -1.519531 20.359375 -0.65625 C 18.742188 0.195312 16.953125 0.625 14.984375 0.625 C 13.117188 0.625 11.394531 0.265625 9.8125 -0.453125 C 8.226562 -1.171875 6.84375 -2.171875 5.65625 -3.453125 C 4.476562 -4.734375 3.554688 -6.234375 2.890625 -7.953125 C 2.234375 -9.679688 1.90625 -11.5625 1.90625 -13.59375 C 1.90625 -15.664062 2.234375 -17.570312 2.890625 -19.3125 C 3.546875 -21.0625 4.460938 -22.582031 5.640625 -23.875 C 6.816406 -25.164062 8.195312 -26.164062 9.78125 -26.875 C 11.375 -27.582031 13.097656 -27.9375 14.953125 -27.9375 C 16.921875 -27.9375 18.71875 -27.503906 20.34375 -26.640625 C 21.976562 -25.785156 23.34375 -24.578125 24.4375 -23.015625 L 25.546875 -26.6875 C 25.722656 -27.082031 26.023438 -27.28125 26.453125 -27.28125 Z M 16.25 -6.0625 C 17.289062 -6.0625 18.265625 -6.253906 19.171875 -6.640625 C 20.085938 -7.023438 20.894531 -7.5625 21.59375 -8.25 C 22.289062 -8.945312 22.835938 -9.75 23.234375 -10.65625 C 23.628906 -11.570312 23.828125 -12.554688 23.828125 -13.609375 C 23.828125 -14.691406 23.625 -15.691406 23.21875 -16.609375 C 22.8125 -17.535156 22.257812 -18.34375 21.5625 -19.03125 C 20.863281 -19.71875 20.054688 -20.253906 19.140625 -20.640625 C 18.234375 -21.023438 17.257812 -21.21875 16.21875 -21.21875 C 15.195312 -21.21875 14.238281 -21.023438 13.34375 -20.640625 C 12.445312 -20.253906 11.660156 -19.71875 10.984375 -19.03125 C 10.304688 -18.34375 9.769531 -17.535156 9.375 -16.609375 C 8.976562 -15.691406 8.78125 -14.691406 8.78125 -13.609375 C 8.78125 -12.554688 8.976562 -11.570312 9.375 -10.65625 C 9.769531 -9.75 10.3125 -8.945312 11 -8.25 C 11.6875 -7.5625 12.476562 -7.023438 13.375 -6.640625 C 14.269531 -6.253906 15.226562 -6.0625 16.25 -6.0625 Z M 16.25 -6.0625 "/></g></g></g><g fill="#218dcc" fill-opacity="1"><g transform="translate(154.383045, 202.124987)"><g><path d="M 19.046875 -27.9375 C 21.148438 -27.9375 23.015625 -27.457031 24.640625 -26.5 C 26.265625 -25.550781 27.535156 -24.195312 28.453125 -22.4375 C 29.378906 -20.6875 29.84375 -18.601562 29.84375 -16.1875 L 29.84375 -0.828125 C 29.84375 -0.273438 29.5625 0 29 0 L 23.875 0 C 23.320312 0 23.046875 -0.273438 23.046875 -0.828125 L 23.046875 -15.796875 C 23.046875 -16.953125 22.789062 -17.972656 22.28125 -18.859375 C 21.78125 -19.753906 21.070312 -20.453125 20.15625 -20.953125 C 19.25 -21.460938 18.179688 -21.71875 16.953125 -21.71875 C 15.742188 -21.71875 14.644531 -21.441406 13.65625 -20.890625 C 12.664062 -20.335938 11.875 -19.601562 11.28125 -18.6875 C 10.6875 -17.78125 10.390625 -16.78125 10.390625 -15.6875 L 10.390625 -0.8125 C 10.390625 -0.25 10.113281 0.03125 9.5625 0.03125 L 4.40625 0.03125 C 3.851562 0.03125 3.578125 -0.25 3.578125 -0.8125 L 3.578125 -26.40625 C 3.578125 -26.664062 3.65625 -26.875 3.8125 -27.03125 C 3.976562 -27.195312 4.1875 -27.28125 4.4375 -27.28125 L 7.40625 -27.28125 C 7.625 -27.28125 7.804688 -27.226562 7.953125 -27.125 C 8.109375 -27.019531 8.234375 -26.875 8.328125 -26.6875 L 9.59375 -22.484375 C 10.175781 -23.535156 10.957031 -24.472656 11.9375 -25.296875 C 12.914062 -26.117188 14.015625 -26.765625 15.234375 -27.234375 C 16.460938 -27.703125 17.734375 -27.9375 19.046875 -27.9375 Z M 19.046875 -27.9375 "/></g></g></g><g fill="#218dcc" fill-opacity="1"><g transform="translate(187.520338, 202.124987)"><g><path d="M 29.59375 -14.9375 C 29.59375 -14.175781 29.4375 -13.445312 29.125 -12.75 C 28.8125 -12.050781 28.390625 -11.476562 27.859375 -11.03125 C 27.335938 -10.582031 26.742188 -10.359375 26.078125 -10.359375 L 9.296875 -10.359375 C 9.628906 -9.484375 10.148438 -8.703125 10.859375 -8.015625 C 11.566406 -7.328125 12.410156 -6.785156 13.390625 -6.390625 C 14.378906 -5.992188 15.445312 -5.796875 16.59375 -5.796875 C 17.113281 -5.796875 17.695312 -5.882812 18.34375 -6.0625 C 18.988281 -6.25 19.640625 -6.5 20.296875 -6.8125 C 20.960938 -7.125 21.566406 -7.476562 22.109375 -7.875 C 22.296875 -8.03125 22.519531 -8.082031 22.78125 -8.03125 C 23.039062 -7.988281 23.253906 -7.875 23.421875 -7.6875 L 26.15625 -4.078125 C 26.300781 -3.867188 26.363281 -3.640625 26.34375 -3.390625 C 26.320312 -3.140625 26.210938 -2.921875 26.015625 -2.734375 C 25.253906 -2.085938 24.316406 -1.503906 23.203125 -0.984375 C 22.085938 -0.472656 20.9375 -0.0703125 19.75 0.21875 C 18.5625 0.519531 17.445312 0.671875 16.40625 0.671875 C 14.363281 0.671875 12.460938 0.304688 10.703125 -0.421875 C 8.953125 -1.160156 7.421875 -2.175781 6.109375 -3.46875 C 4.796875 -4.769531 3.765625 -6.285156 3.015625 -8.015625 C 2.273438 -9.742188 1.90625 -11.601562 1.90625 -13.59375 C 1.90625 -15.59375 2.265625 -17.457031 2.984375 -19.1875 C 3.710938 -20.914062 4.722656 -22.429688 6.015625 -23.734375 C 7.304688 -25.046875 8.804688 -26.066406 10.515625 -26.796875 C 12.222656 -27.535156 14.070312 -27.90625 16.0625 -27.90625 C 17.957031 -27.90625 19.722656 -27.570312 21.359375 -26.90625 C 23.003906 -26.25 24.441406 -25.328125 25.671875 -24.140625 C 26.910156 -22.960938 27.875 -21.585938 28.5625 -20.015625 C 29.25 -18.453125 29.59375 -16.757812 29.59375 -14.9375 Z M 15.90625 -21.515625 C 14.84375 -21.515625 13.859375 -21.300781 12.953125 -20.875 C 12.054688 -20.457031 11.285156 -19.875 10.640625 -19.125 C 9.992188 -18.382812 9.519531 -17.53125 9.21875 -16.5625 L 22.796875 -16.5625 C 22.523438 -17.53125 22.054688 -18.382812 21.390625 -19.125 C 20.722656 -19.875 19.914062 -20.457031 18.96875 -20.875 C 18.03125 -21.300781 17.007812 -21.515625 15.90625 -21.515625 Z M 15.90625 -21.515625 "/></g></g></g><g fill="#218dcc" fill-opacity="1"><g transform="translate(218.992709, 202.124987)"><g><path d="M 16.59375 -5.78125 C 16.957031 -5.78125 17.257812 -5.679688 17.5 -5.484375 C 17.738281 -5.296875 17.859375 -5.050781 17.859375 -4.75 L 17.859375 -0.453125 C 17.859375 -0.128906 17.734375 0.128906 17.484375 0.328125 C 17.234375 0.535156 16.910156 0.640625 16.515625 0.640625 C 14.128906 0.640625 12.082031 0.222656 10.375 -0.609375 C 8.664062 -1.441406 7.34375 -2.675781 6.40625 -4.3125 C 5.476562 -5.945312 5.015625 -7.972656 5.015625 -10.390625 L 5.015625 -21.59375 L 1.875 -21.59375 C 1.34375 -21.59375 1.078125 -21.859375 1.078125 -22.390625 L 1.078125 -26.421875 C 1.078125 -26.984375 1.34375 -27.265625 1.875 -27.265625 L 5.015625 -27.265625 L 5.015625 -34.71875 C 5.015625 -35.21875 5.25 -35.535156 5.71875 -35.671875 L 10.84375 -36.796875 C 11.488281 -36.898438 11.8125 -36.65625 11.8125 -36.0625 L 11.8125 -27.265625 L 16.890625 -27.265625 C 17.410156 -27.265625 17.671875 -26.992188 17.671875 -26.453125 L 17.671875 -22.390625 C 17.671875 -21.859375 17.410156 -21.59375 16.890625 -21.59375 L 11.84375 -21.59375 L 11.84375 -10.28125 C 11.84375 -8.757812 12.265625 -7.628906 13.109375 -6.890625 C 13.960938 -6.148438 15.125 -5.78125 16.59375 -5.78125 Z M 16.59375 -5.78125 "/></g></g></g><g fill="#65a935" fill-opacity="1"><g transform="translate(239.484602, 202.124987)"><g><path d="M 7.4375 0.8125 C 6.644531 0.8125 5.925781 0.617188 5.28125 0.234375 C 4.644531 -0.140625 4.140625 -0.644531 3.765625 -1.28125 C 3.390625 -1.925781 3.203125 -2.632812 3.203125 -3.40625 C 3.203125 -4.195312 3.390625 -4.910156 3.765625 -5.546875 C 4.140625 -6.179688 4.644531 -6.6875 5.28125 -7.0625 C 5.925781 -7.4375 6.644531 -7.625 7.4375 -7.625 C 8.207031 -7.625 8.90625 -7.4375 9.53125 -7.0625 C 10.15625 -6.6875 10.660156 -6.179688 11.046875 -5.546875 C 11.429688 -4.910156 11.625 -4.195312 11.625 -3.40625 C 11.625 -2.632812 11.429688 -1.925781 11.046875 -1.28125 C 10.660156 -0.644531 10.15625 -0.140625 9.53125 0.234375 C 8.90625 0.617188 8.207031 0.8125 7.4375 0.8125 Z M 7.4375 0.8125 "/></g></g></g><g fill="#ea4c47" fill-opacity="1"><g transform="translate(254.308823, 202.124987)"><g><path d="M 36.3125 -27.875 C 38.300781 -27.875 40.050781 -27.398438 41.5625 -26.453125 C 43.070312 -25.503906 44.253906 -24.148438 45.109375 -22.390625 C 45.972656 -20.640625 46.40625 -18.554688 46.40625 -16.140625 L 46.40625 -0.828125 C 46.40625 -0.273438 46.117188 0 45.546875 0 L 40.4375 0 C 39.863281 0 39.578125 -0.273438 39.578125 -0.828125 L 39.578125 -15.734375 C 39.578125 -16.898438 39.359375 -17.925781 38.921875 -18.8125 C 38.484375 -19.695312 37.863281 -20.394531 37.0625 -20.90625 C 36.269531 -21.414062 35.328125 -21.671875 34.234375 -21.671875 C 33.085938 -21.671875 32.078125 -21.410156 31.203125 -20.890625 C 30.328125 -20.367188 29.640625 -19.648438 29.140625 -18.734375 C 28.648438 -17.828125 28.40625 -16.785156 28.40625 -15.609375 L 28.390625 -15.65625 L 28.390625 -0.828125 C 28.390625 -0.273438 28.109375 0 27.546875 0 L 22.421875 0 C 21.867188 0 21.59375 -0.273438 21.59375 -0.828125 L 21.59375 -15.734375 C 21.59375 -16.898438 21.375 -17.925781 20.9375 -18.8125 C 20.5 -19.695312 19.875 -20.394531 19.0625 -20.90625 C 18.257812 -21.414062 17.3125 -21.671875 16.21875 -21.671875 C 15.070312 -21.671875 14.0625 -21.410156 13.1875 -20.890625 C 12.3125 -20.367188 11.625 -19.648438 11.125 -18.734375 C 10.632812 -17.828125 10.390625 -16.785156 10.390625 -15.609375 L 10.390625 -0.8125 C 10.390625 -0.25 10.113281 0.03125 9.5625 0.03125 L 4.40625 0.03125 C 3.851562 0.03125 3.578125 -0.25 3.578125 -0.8125 L 3.578125 -26.40625 C 3.578125 -26.664062 3.65625 -26.875 3.8125 -27.03125 C 3.976562 -27.195312 4.1875 -27.28125 4.4375 -27.28125 L 7.40625 -27.28125 C 7.625 -27.28125 7.804688 -27.226562 7.953125 -27.125 C 8.109375 -27.019531 8.234375 -26.875 8.328125 -26.6875 L 9.5625 -22.609375 C 10.09375 -23.671875 10.800781 -24.59375 11.6875 -25.375 C 12.582031 -26.164062 13.59375 -26.78125 14.71875 -27.21875 C 15.84375 -27.65625 17.03125 -27.875 18.28125 -27.875 C 20.363281 -27.875 22.179688 -27.351562 23.734375 -26.3125 C 25.296875 -25.28125 26.476562 -23.832031 27.28125 -21.96875 C 27.769531 -23.144531 28.460938 -24.175781 29.359375 -25.0625 C 30.265625 -25.957031 31.316406 -26.648438 32.515625 -27.140625 C 33.722656 -27.628906 34.988281 -27.875 36.3125 -27.875 Z M 36.3125 -27.875 "/></g></g></g><g fill="#ea4c47" fill-opacity="1"><g transform="translate(304.014768, 202.124987)"><g><path d="M 29.4375 -27.28125 C 29.6875 -27.28125 29.890625 -27.195312 30.046875 -27.03125 C 30.210938 -26.875 30.296875 -26.664062 30.296875 -26.40625 L 30.296875 -0.828125 C 30.296875 -0.578125 30.210938 -0.367188 30.046875 -0.203125 C 29.890625 -0.046875 29.6875 0.03125 29.4375 0.03125 L 26.453125 0.03125 C 26.023438 0.03125 25.722656 -0.164062 25.546875 -0.5625 L 24.4375 -4.25 C 23.34375 -2.71875 21.984375 -1.519531 20.359375 -0.65625 C 18.742188 0.195312 16.953125 0.625 14.984375 0.625 C 13.117188 0.625 11.394531 0.265625 9.8125 -0.453125 C 8.226562 -1.171875 6.84375 -2.171875 5.65625 -3.453125 C 4.476562 -4.734375 3.554688 -6.234375 2.890625 -7.953125 C 2.234375 -9.679688 1.90625 -11.5625 1.90625 -13.59375 C 1.90625 -15.664062 2.234375 -17.570312 2.890625 -19.3125 C 3.546875 -21.0625 4.460938 -22.582031 5.640625 -23.875 C 6.816406 -25.164062 8.195312 -26.164062 9.78125 -26.875 C 11.375 -27.582031 13.097656 -27.9375 14.953125 -27.9375 C 16.921875 -27.9375 18.71875 -27.503906 20.34375 -26.640625 C 21.976562 -25.785156 23.34375 -24.578125 24.4375 -23.015625 L 25.546875 -26.6875 C 25.722656 -27.082031 26.023438 -27.28125 26.453125 -27.28125 Z M 16.25 -6.0625 C 17.289062 -6.0625 18.265625 -6.253906 19.171875 -6.640625 C 20.085938 -7.023438 20.894531 -7.5625 21.59375 -8.25 C 22.289062 -8.945312 22.835938 -9.75 23.234375 -10.65625 C 23.628906 -11.570312 23.828125 -12.554688 23.828125 -13.609375 C 23.828125 -14.691406 23.625 -15.691406 23.21875 -16.609375 C 22.8125 -17.535156 22.257812 -18.34375 21.5625 -19.03125 C 20.863281 -19.71875 20.054688 -20.253906 19.140625 -20.640625 C 18.234375 -21.023438 17.257812 -21.21875 16.21875 -21.21875 C 15.195312 -21.21875 14.238281 -21.023438 13.34375 -20.640625 C 12.445312 -20.253906 11.660156 -19.71875 10.984375 -19.03125 C 10.304688 -18.34375 9.769531 -17.535156 9.375 -16.609375 C 8.976562 -15.691406 8.78125 -14.691406 8.78125 -13.609375 C 8.78125 -12.554688 8.976562 -11.570312 9.375 -10.65625 C 9.769531 -9.75 10.3125 -8.945312 11 -8.25 C 11.6875 -7.5625 12.476562 -7.023438 13.375 -6.640625 C 14.269531 -6.253906 15.226562 -6.0625 16.25 -6.0625 Z M 16.25 -6.0625 "/></g></g></g></svg>