<svg xmlns="http://www.w3.org/2000/svg" xmlns:xlink="http://www.w3.org/1999/xlink" width="1000" zoomAndPan="magnify" viewBox="0 0 750 374.999991" height="500" preserveAspectRatio="xMidYMid meet" version="1.0"><defs><g/><clipPath id="e427b0ddb6"><path d="M 13 126 L 161 126 L 161 279.738281 L 13 279.738281 Z M 13 126 " clip-rule="nonzero"/></clipPath><clipPath id="5a889ded60"><path d="M 18 126 L 165.9375 126 L 165.9375 279.738281 L 18 279.738281 Z M 18 126 " clip-rule="nonzero"/></clipPath><clipPath id="c916f23d0d"><path d="M 13 126.371094 L 83.4375 126.371094 L 83.4375 198.371094 L 13 198.371094 Z M 13 126.371094 " clip-rule="nonzero"/></clipPath><clipPath id="777ecb1906"><path d="M 18 127 L 83.4375 127 L 83.4375 198.371094 L 18 198.371094 Z M 18 127 " clip-rule="nonzero"/></clipPath></defs><g fill="#000000" fill-opacity="1"><g transform="translate(183.75066, 215.409774)"><g><path d="M 26.421875 -3.21875 C 26.867188 -3.21875 27.09375 -3.007812 27.09375 -2.59375 L 27.09375 -0.625 C 27.09375 -0.207031 26.867188 0 26.421875 0 L 2.15625 0 C 1.96875 0 1.8125 -0.0507812 1.6875 -0.15625 C 1.5625 -0.269531 1.5 -0.410156 1.5 -0.578125 L 1.5 -0.625 C 1.5 -0.769531 1.519531 -0.90625 1.5625 -1.03125 C 1.613281 -1.15625 1.671875 -1.257812 1.734375 -1.34375 L 20.96875 -29.671875 L 3.828125 -29.671875 C 3.378906 -29.671875 3.15625 -29.878906 3.15625 -30.296875 L 3.15625 -32.234375 C 3.15625 -32.648438 3.378906 -32.859375 3.828125 -32.859375 L 25.96875 -32.859375 C 26.164062 -32.859375 26.320312 -32.804688 26.4375 -32.703125 C 26.550781 -32.597656 26.609375 -32.457031 26.609375 -32.28125 L 26.609375 -32.265625 C 26.609375 -32.128906 26.585938 -32.003906 26.546875 -31.890625 C 26.503906 -31.785156 26.445312 -31.6875 26.375 -31.59375 L 7.296875 -3.21875 Z M 26.421875 -3.21875 "/></g></g></g><g fill="#000000" fill-opacity="1"><g transform="translate(212.891719, 215.409774)"><g><path d="M 30.546875 -0.78125 C 30.660156 -0.550781 30.664062 -0.351562 30.5625 -0.1875 C 30.46875 -0.0195312 30.285156 0.0625 30.015625 0.0625 L 27.453125 0.0625 C 27.296875 0.0625 27.15625 0.00390625 27.03125 -0.109375 C 26.90625 -0.222656 26.8125 -0.359375 26.75 -0.515625 L 24.984375 -4.71875 L 6.703125 -4.71875 L 4.96875 -0.546875 C 4.914062 -0.378906 4.820312 -0.238281 4.6875 -0.125 C 4.550781 -0.0078125 4.398438 0.046875 4.234375 0.046875 L 1.734375 0.046875 C 1.453125 0.046875 1.257812 -0.0234375 1.15625 -0.171875 C 1.0625 -0.328125 1.066406 -0.535156 1.171875 -0.796875 L 14.96875 -32.546875 C 15.144531 -32.941406 15.410156 -33.140625 15.765625 -33.140625 L 15.953125 -33.140625 C 16.109375 -33.140625 16.257812 -33.082031 16.40625 -32.96875 C 16.5625 -32.851562 16.675781 -32.703125 16.75 -32.515625 Z M 8.03125 -7.890625 L 23.671875 -7.890625 L 15.859375 -26.703125 Z M 8.03125 -7.890625 "/></g></g></g><g fill="#000000" fill-opacity="1"><g transform="translate(244.607229, 215.409774)"><g><path d="M 23.453125 -10.078125 L 28.0625 -0.78125 C 28.175781 -0.5625 28.191406 -0.367188 28.109375 -0.203125 C 28.023438 -0.0351562 27.859375 0.046875 27.609375 0.046875 L 24.984375 0.046875 C 24.847656 0.046875 24.707031 -0.00390625 24.5625 -0.109375 C 24.414062 -0.222656 24.304688 -0.359375 24.234375 -0.515625 L 20.234375 -8.8125 C 19.078125 -8.519531 17.875 -8.375 16.625 -8.375 L 8.265625 -8.375 L 8.265625 -0.65625 C 8.265625 -0.1875 8.039062 0.046875 7.59375 0.046875 L 5.34375 0.046875 C 4.882812 0.046875 4.65625 -0.1875 4.65625 -0.65625 L 4.65625 -32.21875 C 4.65625 -32.414062 4.710938 -32.578125 4.828125 -32.703125 C 4.953125 -32.828125 5.125 -32.890625 5.34375 -32.890625 L 5.921875 -32.890625 C 6.273438 -32.890625 6.628906 -32.890625 6.984375 -32.890625 C 7.347656 -32.890625 7.59375 -32.890625 7.71875 -32.890625 L 16.625 -32.890625 C 18.46875 -32.890625 20.164062 -32.582031 21.71875 -31.96875 C 23.28125 -31.351562 24.632812 -30.492188 25.78125 -29.390625 C 26.925781 -28.285156 27.8125 -26.976562 28.4375 -25.46875 C 29.070312 -23.96875 29.390625 -22.320312 29.390625 -20.53125 C 29.390625 -19 29.144531 -17.570312 28.65625 -16.25 C 28.175781 -14.925781 27.488281 -13.738281 26.59375 -12.6875 C 25.707031 -11.644531 24.660156 -10.773438 23.453125 -10.078125 Z M 16.40625 -11.453125 C 17.769531 -11.453125 19.019531 -11.671875 20.15625 -12.109375 C 21.300781 -12.554688 22.289062 -13.1875 23.125 -14 C 23.96875 -14.820312 24.617188 -15.785156 25.078125 -16.890625 C 25.535156 -18.003906 25.765625 -19.226562 25.765625 -20.5625 C 25.765625 -21.882812 25.53125 -23.097656 25.0625 -24.203125 C 24.59375 -25.304688 23.929688 -26.269531 23.078125 -27.09375 C 22.234375 -27.914062 21.238281 -28.550781 20.09375 -29 C 18.957031 -29.445312 17.726562 -29.671875 16.40625 -29.671875 L 8.265625 -29.671875 L 8.265625 -11.453125 Z M 16.40625 -11.453125 "/></g></g></g><g fill="#000000" fill-opacity="1"><g transform="translate(277.144833, 215.409774)"><g><path d="M 36.21875 -16.359375 C 36.21875 -14.566406 35.96875 -12.867188 35.46875 -11.265625 C 34.976562 -9.671875 34.269531 -8.195312 33.34375 -6.84375 C 32.414062 -5.5 31.320312 -4.3125 30.0625 -3.28125 C 28.800781 -2.257812 27.398438 -1.4375 25.859375 -0.8125 C 24.316406 -0.1875 22.671875 0.207031 20.921875 0.375 L 20.921875 5.390625 C 20.921875 5.867188 20.710938 6.109375 20.296875 6.109375 L 18.203125 6.109375 C 17.753906 6.109375 17.53125 5.867188 17.53125 5.390625 L 17.53125 0.375 C 15.789062 0.207031 14.15625 -0.191406 12.625 -0.828125 C 11.101562 -1.460938 9.710938 -2.289062 8.453125 -3.3125 C 7.191406 -4.332031 6.101562 -5.515625 5.1875 -6.859375 C 4.269531 -8.210938 3.5625 -9.691406 3.0625 -11.296875 C 2.5625 -12.898438 2.3125 -14.585938 2.3125 -16.359375 C 2.3125 -18.265625 2.59375 -20.066406 3.15625 -21.765625 C 3.71875 -23.460938 4.515625 -25.015625 5.546875 -26.421875 C 6.578125 -27.835938 7.796875 -29.054688 9.203125 -30.078125 C 10.609375 -31.097656 12.160156 -31.890625 13.859375 -32.453125 C 15.566406 -33.015625 17.363281 -33.296875 19.25 -33.296875 C 21.15625 -33.296875 22.957031 -33.015625 24.65625 -32.453125 C 26.363281 -31.890625 27.921875 -31.097656 29.328125 -30.078125 C 30.734375 -29.054688 31.953125 -27.835938 32.984375 -26.421875 C 34.015625 -25.015625 34.8125 -23.460938 35.375 -21.765625 C 35.9375 -20.066406 36.21875 -18.265625 36.21875 -16.359375 Z M 19.25 -3.15625 C 20.75 -3.15625 22.171875 -3.367188 23.515625 -3.796875 C 24.859375 -4.234375 26.082031 -4.851562 27.1875 -5.65625 C 28.289062 -6.457031 29.25 -7.40625 30.0625 -8.5 C 30.875 -9.59375 31.5 -10.800781 31.9375 -12.125 C 32.382812 -13.457031 32.609375 -14.867188 32.609375 -16.359375 C 32.609375 -17.859375 32.382812 -19.273438 31.9375 -20.609375 C 31.5 -21.941406 30.875 -23.160156 30.0625 -24.265625 C 29.25 -25.378906 28.289062 -26.335938 27.1875 -27.140625 C 26.082031 -27.953125 24.859375 -28.578125 23.515625 -29.015625 C 22.171875 -29.460938 20.75 -29.6875 19.25 -29.6875 C 17.769531 -29.6875 16.359375 -29.460938 15.015625 -29.015625 C 13.671875 -28.578125 12.441406 -27.953125 11.328125 -27.140625 C 10.222656 -26.335938 9.265625 -25.378906 8.453125 -24.265625 C 7.648438 -23.160156 7.023438 -21.941406 6.578125 -20.609375 C 6.140625 -19.273438 5.921875 -17.859375 5.921875 -16.359375 C 5.921875 -14.867188 6.140625 -13.457031 6.578125 -12.125 C 7.023438 -10.800781 7.648438 -9.59375 8.453125 -8.5 C 9.265625 -7.40625 10.222656 -6.457031 11.328125 -5.65625 C 12.441406 -4.851562 13.671875 -4.234375 15.015625 -3.796875 C 16.359375 -3.367188 17.769531 -3.15625 19.25 -3.15625 Z M 19.25 -3.15625 "/></g></g></g><g fill="#000000" fill-opacity="1"><g transform="translate(315.675067, 215.409774)"><g><path d="M 30.546875 -0.78125 C 30.660156 -0.550781 30.664062 -0.351562 30.5625 -0.1875 C 30.46875 -0.0195312 30.285156 0.0625 30.015625 0.0625 L 27.453125 0.0625 C 27.296875 0.0625 27.15625 0.00390625 27.03125 -0.109375 C 26.90625 -0.222656 26.8125 -0.359375 26.75 -0.515625 L 24.984375 -4.71875 L 6.703125 -4.71875 L 4.96875 -0.546875 C 4.914062 -0.378906 4.820312 -0.238281 4.6875 -0.125 C 4.550781 -0.0078125 4.398438 0.046875 4.234375 0.046875 L 1.734375 0.046875 C 1.453125 0.046875 1.257812 -0.0234375 1.15625 -0.171875 C 1.0625 -0.328125 1.066406 -0.535156 1.171875 -0.796875 L 14.96875 -32.546875 C 15.144531 -32.941406 15.410156 -33.140625 15.765625 -33.140625 L 15.953125 -33.140625 C 16.109375 -33.140625 16.257812 -33.082031 16.40625 -32.96875 C 16.5625 -32.851562 16.675781 -32.703125 16.75 -32.515625 Z M 8.03125 -7.890625 L 23.671875 -7.890625 L 15.859375 -26.703125 Z M 8.03125 -7.890625 "/></g></g></g><g fill="#000000" fill-opacity="1"><g transform="translate(347.390578, 215.409774)"><g><path d="M 32.21875 -32.9375 C 32.59375 -32.9375 32.78125 -32.753906 32.78125 -32.390625 L 32.78125 -0.4375 C 32.78125 -0.207031 32.71875 -0.0351562 32.59375 0.078125 C 32.46875 0.203125 32.320312 0.265625 32.15625 0.265625 L 32.125 0.265625 C 31.957031 0.265625 31.796875 0.21875 31.640625 0.125 C 31.492188 0.03125 31.335938 -0.0976562 31.171875 -0.265625 L 8.265625 -25.1875 L 8.265625 -0.5 C 8.265625 -0.132812 8.09375 0.046875 7.75 0.046875 L 5.21875 0.046875 C 4.820312 0.046875 4.625 -0.132812 4.625 -0.5 L 4.625 -32.484375 C 4.625 -32.679688 4.679688 -32.835938 4.796875 -32.953125 C 4.910156 -33.078125 5.0625 -33.140625 5.25 -33.140625 L 5.28125 -33.140625 C 5.457031 -33.140625 5.613281 -33.085938 5.75 -32.984375 C 5.882812 -32.878906 6.03125 -32.738281 6.1875 -32.5625 L 29.140625 -7.609375 L 29.140625 -32.390625 C 29.140625 -32.753906 29.328125 -32.9375 29.703125 -32.9375 Z M 32.21875 -32.9375 "/></g></g></g><g fill="#000000" fill-opacity="1"><g transform="translate(384.795842, 215.409774)"><g><path d="M 27.890625 -3.46875 C 28.179688 -3.46875 28.410156 -3.394531 28.578125 -3.25 C 28.742188 -3.101562 28.828125 -2.90625 28.828125 -2.65625 L 28.828125 -0.671875 C 28.828125 -0.472656 28.753906 -0.3125 28.609375 -0.1875 C 28.472656 -0.0625 28.289062 0 28.0625 0 L 5.34375 0 C 4.882812 0 4.65625 -0.226562 4.65625 -0.6875 L 4.65625 -32.203125 C 4.65625 -32.640625 4.882812 -32.859375 5.34375 -32.859375 L 27.59375 -32.859375 C 28.09375 -32.859375 28.34375 -32.644531 28.34375 -32.21875 L 28.34375 -30.125 C 28.34375 -29.65625 28.09375 -29.421875 27.59375 -29.421875 L 8.265625 -29.421875 L 8.265625 -15.84375 L 24.015625 -15.84375 C 24.585938 -15.84375 24.875 -15.601562 24.875 -15.125 L 24.875 -13.15625 C 24.875 -12.707031 24.585938 -12.484375 24.015625 -12.484375 L 8.265625 -12.484375 L 8.265625 -3.46875 Z M 27.890625 -3.46875 "/></g></g></g><g fill="#000000" fill-opacity="1"><g transform="translate(415.840696, 215.409774)"><g/></g></g><g fill="#000000" fill-opacity="1"><g transform="translate(428.756221, 215.409774)"><g><path d="M 14.265625 0.453125 C 13.140625 0.453125 12.003906 0.3125 10.859375 0.03125 C 9.722656 -0.238281 8.628906 -0.617188 7.578125 -1.109375 C 6.535156 -1.609375 5.59375 -2.191406 4.75 -2.859375 C 3.90625 -3.535156 3.207031 -4.269531 2.65625 -5.0625 C 2.539062 -5.21875 2.488281 -5.394531 2.5 -5.59375 C 2.507812 -5.800781 2.609375 -5.976562 2.796875 -6.125 L 4.328125 -7.65625 C 4.628906 -7.90625 4.972656 -7.820312 5.359375 -7.40625 C 6.023438 -6.582031 6.84375 -5.835938 7.8125 -5.171875 C 8.78125 -4.503906 9.8125 -3.976562 10.90625 -3.59375 C 12 -3.21875 13.066406 -3.03125 14.109375 -3.03125 C 16.554688 -3.03125 18.453125 -3.554688 19.796875 -4.609375 C 21.148438 -5.660156 21.828125 -7.101562 21.828125 -8.9375 C 21.828125 -9.738281 21.617188 -10.453125 21.203125 -11.078125 C 20.785156 -11.710938 20.203125 -12.273438 19.453125 -12.765625 C 18.703125 -13.265625 17.828125 -13.734375 16.828125 -14.171875 C 15.835938 -14.609375 14.765625 -15.039062 13.609375 -15.46875 C 12.210938 -15.976562 10.914062 -16.515625 9.71875 -17.078125 C 8.53125 -17.640625 7.492188 -18.273438 6.609375 -18.984375 C 5.734375 -19.703125 5.050781 -20.539062 4.5625 -21.5 C 4.070312 -22.457031 3.828125 -23.578125 3.828125 -24.859375 C 3.828125 -26.535156 4.253906 -28.003906 5.109375 -29.265625 C 5.960938 -30.523438 7.164062 -31.507812 8.71875 -32.21875 C 10.28125 -32.9375 12.128906 -33.296875 14.265625 -33.296875 C 15.472656 -33.296875 16.648438 -33.144531 17.796875 -32.84375 C 18.941406 -32.539062 19.984375 -32.113281 20.921875 -31.5625 C 21.867188 -31.019531 22.640625 -30.378906 23.234375 -29.640625 C 23.566406 -29.234375 23.585938 -28.867188 23.296875 -28.546875 L 22.046875 -27.109375 C 21.859375 -26.878906 21.65625 -26.78125 21.4375 -26.8125 C 21.226562 -26.851562 21 -26.96875 20.75 -27.15625 C 20.25 -27.726562 19.632812 -28.210938 18.90625 -28.609375 C 18.175781 -29.003906 17.398438 -29.304688 16.578125 -29.515625 C 15.753906 -29.734375 14.929688 -29.84375 14.109375 -29.84375 C 12.710938 -29.84375 11.507812 -29.625 10.5 -29.1875 C 9.5 -28.757812 8.734375 -28.164062 8.203125 -27.40625 C 7.671875 -26.65625 7.40625 -25.789062 7.40625 -24.8125 C 7.40625 -23.976562 7.617188 -23.238281 8.046875 -22.59375 C 8.484375 -21.957031 9.070312 -21.382812 9.8125 -20.875 C 10.550781 -20.375 11.40625 -19.914062 12.375 -19.5 C 13.34375 -19.09375 14.351562 -18.695312 15.40625 -18.3125 C 16.6875 -17.863281 17.9375 -17.367188 19.15625 -16.828125 C 20.375 -16.296875 21.46875 -15.675781 22.4375 -14.96875 C 23.40625 -14.257812 24.171875 -13.414062 24.734375 -12.4375 C 25.304688 -11.46875 25.59375 -10.320312 25.59375 -9 C 25.59375 -7.070312 25.125 -5.398438 24.1875 -3.984375 C 23.25 -2.566406 21.929688 -1.472656 20.234375 -0.703125 C 18.546875 0.0664062 16.554688 0.453125 14.265625 0.453125 Z M 14.265625 0.453125 "/></g></g></g><g fill="#000000" fill-opacity="1"><g transform="translate(456.772309, 215.409774)"><g><path d="M 2.3125 -16.359375 C 2.3125 -18.265625 2.59375 -20.066406 3.15625 -21.765625 C 3.71875 -23.460938 4.515625 -25.015625 5.546875 -26.421875 C 6.578125 -27.835938 7.796875 -29.054688 9.203125 -30.078125 C 10.609375 -31.097656 12.160156 -31.890625 13.859375 -32.453125 C 15.566406 -33.015625 17.363281 -33.296875 19.25 -33.296875 C 21.15625 -33.296875 22.957031 -33.015625 24.65625 -32.453125 C 26.363281 -31.890625 27.921875 -31.097656 29.328125 -30.078125 C 30.734375 -29.054688 31.953125 -27.835938 32.984375 -26.421875 C 34.015625 -25.015625 34.8125 -23.460938 35.375 -21.765625 C 35.9375 -20.066406 36.21875 -18.265625 36.21875 -16.359375 C 36.21875 -14.460938 35.9375 -12.664062 35.375 -10.96875 C 34.8125 -9.28125 34.015625 -7.738281 32.984375 -6.34375 C 31.953125 -4.957031 30.734375 -3.753906 29.328125 -2.734375 C 27.921875 -1.722656 26.363281 -0.9375 24.65625 -0.375 C 22.957031 0.175781 21.15625 0.453125 19.25 0.453125 C 17.363281 0.453125 15.566406 0.175781 13.859375 -0.375 C 12.160156 -0.9375 10.609375 -1.722656 9.203125 -2.734375 C 7.796875 -3.753906 6.578125 -4.957031 5.546875 -6.34375 C 4.515625 -7.738281 3.71875 -9.28125 3.15625 -10.96875 C 2.59375 -12.664062 2.3125 -14.460938 2.3125 -16.359375 Z M 5.921875 -16.359375 C 5.921875 -14.867188 6.140625 -13.457031 6.578125 -12.125 C 7.023438 -10.800781 7.648438 -9.59375 8.453125 -8.5 C 9.265625 -7.40625 10.222656 -6.457031 11.328125 -5.65625 C 12.441406 -4.851562 13.671875 -4.234375 15.015625 -3.796875 C 16.359375 -3.367188 17.769531 -3.15625 19.25 -3.15625 C 20.75 -3.15625 22.171875 -3.367188 23.515625 -3.796875 C 24.859375 -4.234375 26.082031 -4.851562 27.1875 -5.65625 C 28.289062 -6.457031 29.25 -7.40625 30.0625 -8.5 C 30.875 -9.59375 31.5 -10.800781 31.9375 -12.125 C 32.382812 -13.457031 32.609375 -14.867188 32.609375 -16.359375 C 32.609375 -17.859375 32.382812 -19.273438 31.9375 -20.609375 C 31.5 -21.941406 30.875 -23.160156 30.0625 -24.265625 C 29.25 -25.378906 28.289062 -26.335938 27.1875 -27.140625 C 26.082031 -27.953125 24.859375 -28.578125 23.515625 -29.015625 C 22.171875 -29.460938 20.75 -29.6875 19.25 -29.6875 C 17.769531 -29.6875 16.359375 -29.460938 15.015625 -29.015625 C 13.671875 -28.578125 12.441406 -27.953125 11.328125 -27.140625 C 10.222656 -26.335938 9.265625 -25.378906 8.453125 -24.265625 C 7.648438 -23.160156 7.023438 -21.941406 6.578125 -20.609375 C 6.140625 -19.273438 5.921875 -17.859375 5.921875 -16.359375 Z M 5.921875 -16.359375 "/></g></g></g><g fill="#000000" fill-opacity="1"><g transform="translate(495.30256, 215.409774)"><g><path d="M 24.640625 -3.21875 C 25.003906 -3.21875 25.1875 -3.03125 25.1875 -2.65625 L 25.1875 -0.5625 C 25.1875 -0.1875 25 0 24.625 0 L 5.21875 0 C 4.84375 0 4.65625 -0.1875 4.65625 -0.5625 L 4.65625 -32.390625 C 4.65625 -32.753906 4.84375 -32.9375 5.21875 -32.9375 L 7.71875 -32.9375 C 8.082031 -32.9375 8.265625 -32.753906 8.265625 -32.390625 L 8.265625 -3.21875 Z M 24.640625 -3.21875 "/></g></g></g><g fill="#000000" fill-opacity="1"><g transform="translate(521.13361, 215.409774)"><g><path d="M 7.578125 -32.375 L 7.578125 -13.140625 C 7.578125 -11.722656 7.820312 -10.40625 8.3125 -9.1875 C 8.8125 -7.96875 9.507812 -6.898438 10.40625 -5.984375 C 11.3125 -5.078125 12.367188 -4.367188 13.578125 -3.859375 C 14.785156 -3.347656 16.085938 -3.09375 17.484375 -3.09375 C 18.878906 -3.09375 20.175781 -3.347656 21.375 -3.859375 C 22.582031 -4.367188 23.632812 -5.078125 24.53125 -5.984375 C 25.425781 -6.898438 26.125 -7.96875 26.625 -9.1875 C 27.132812 -10.40625 27.390625 -11.722656 27.390625 -13.140625 L 27.390625 -32.375 C 27.390625 -32.75 27.585938 -32.9375 27.984375 -32.9375 L 30.4375 -32.9375 C 30.832031 -32.9375 31.03125 -32.75 31.03125 -32.375 L 31.03125 -13.03125 C 31.03125 -11.09375 30.691406 -9.300781 30.015625 -7.65625 C 29.335938 -6.007812 28.390625 -4.582031 27.171875 -3.375 C 25.953125 -2.164062 24.515625 -1.222656 22.859375 -0.546875 C 21.203125 0.117188 19.410156 0.453125 17.484375 0.453125 C 15.535156 0.453125 13.738281 0.113281 12.09375 -0.5625 C 10.445312 -1.238281 9.015625 -2.191406 7.796875 -3.421875 C 6.578125 -4.660156 5.628906 -6.109375 4.953125 -7.765625 C 4.285156 -9.421875 3.953125 -11.222656 3.953125 -13.171875 L 3.953125 -32.375 C 3.953125 -32.75 4.132812 -32.9375 4.5 -32.9375 L 7.046875 -32.9375 C 7.398438 -32.9375 7.578125 -32.75 7.578125 -32.375 Z M 7.578125 -32.375 "/></g></g></g><g fill="#000000" fill-opacity="1"><g transform="translate(556.094226, 215.409774)"><g><path d="M 1.40625 -30.359375 L 1.40625 -32.21875 C 1.40625 -32.644531 1.628906 -32.859375 2.078125 -32.859375 L 24.234375 -32.859375 C 24.648438 -32.859375 24.859375 -32.644531 24.859375 -32.21875 L 24.859375 -30.359375 C 24.859375 -29.898438 24.648438 -29.671875 24.234375 -29.671875 L 14.921875 -29.671875 L 14.921875 -0.65625 C 14.921875 -0.1875 14.703125 0.046875 14.265625 0.046875 L 11.984375 0.046875 C 11.535156 0.046875 11.3125 -0.1875 11.3125 -0.65625 L 11.3125 -29.671875 L 2.078125 -29.671875 C 1.628906 -29.671875 1.40625 -29.898438 1.40625 -30.359375 Z M 1.40625 -30.359375 "/></g></g></g><g fill="#000000" fill-opacity="1"><g transform="translate(582.357957, 215.409774)"><g><path d="M 8.265625 -32.390625 L 8.265625 -0.5 C 8.265625 -0.132812 8.078125 0.046875 7.703125 0.046875 L 5.171875 0.046875 C 4.828125 0.046875 4.65625 -0.132812 4.65625 -0.5 L 4.65625 -32.390625 C 4.65625 -32.753906 4.828125 -32.9375 5.171875 -32.9375 L 7.703125 -32.9375 C 8.078125 -32.9375 8.265625 -32.753906 8.265625 -32.390625 Z M 8.265625 -32.390625 "/></g></g></g><g fill="#000000" fill-opacity="1"><g transform="translate(595.273498, 215.409774)"><g><path d="M 2.3125 -16.359375 C 2.3125 -18.265625 2.59375 -20.066406 3.15625 -21.765625 C 3.71875 -23.460938 4.515625 -25.015625 5.546875 -26.421875 C 6.578125 -27.835938 7.796875 -29.054688 9.203125 -30.078125 C 10.609375 -31.097656 12.160156 -31.890625 13.859375 -32.453125 C 15.566406 -33.015625 17.363281 -33.296875 19.25 -33.296875 C 21.15625 -33.296875 22.957031 -33.015625 24.65625 -32.453125 C 26.363281 -31.890625 27.921875 -31.097656 29.328125 -30.078125 C 30.734375 -29.054688 31.953125 -27.835938 32.984375 -26.421875 C 34.015625 -25.015625 34.8125 -23.460938 35.375 -21.765625 C 35.9375 -20.066406 36.21875 -18.265625 36.21875 -16.359375 C 36.21875 -14.460938 35.9375 -12.664062 35.375 -10.96875 C 34.8125 -9.28125 34.015625 -7.738281 32.984375 -6.34375 C 31.953125 -4.957031 30.734375 -3.753906 29.328125 -2.734375 C 27.921875 -1.722656 26.363281 -0.9375 24.65625 -0.375 C 22.957031 0.175781 21.15625 0.453125 19.25 0.453125 C 17.363281 0.453125 15.566406 0.175781 13.859375 -0.375 C 12.160156 -0.9375 10.609375 -1.722656 9.203125 -2.734375 C 7.796875 -3.753906 6.578125 -4.957031 5.546875 -6.34375 C 4.515625 -7.738281 3.71875 -9.28125 3.15625 -10.96875 C 2.59375 -12.664062 2.3125 -14.460938 2.3125 -16.359375 Z M 5.921875 -16.359375 C 5.921875 -14.867188 6.140625 -13.457031 6.578125 -12.125 C 7.023438 -10.800781 7.648438 -9.59375 8.453125 -8.5 C 9.265625 -7.40625 10.222656 -6.457031 11.328125 -5.65625 C 12.441406 -4.851562 13.671875 -4.234375 15.015625 -3.796875 C 16.359375 -3.367188 17.769531 -3.15625 19.25 -3.15625 C 20.75 -3.15625 22.171875 -3.367188 23.515625 -3.796875 C 24.859375 -4.234375 26.082031 -4.851562 27.1875 -5.65625 C 28.289062 -6.457031 29.25 -7.40625 30.0625 -8.5 C 30.875 -9.59375 31.5 -10.800781 31.9375 -12.125 C 32.382812 -13.457031 32.609375 -14.867188 32.609375 -16.359375 C 32.609375 -17.859375 32.382812 -19.273438 31.9375 -20.609375 C 31.5 -21.941406 30.875 -23.160156 30.0625 -24.265625 C 29.25 -25.378906 28.289062 -26.335938 27.1875 -27.140625 C 26.082031 -27.953125 24.859375 -28.578125 23.515625 -29.015625 C 22.171875 -29.460938 20.75 -29.6875 19.25 -29.6875 C 17.769531 -29.6875 16.359375 -29.460938 15.015625 -29.015625 C 13.671875 -28.578125 12.441406 -27.953125 11.328125 -27.140625 C 10.222656 -26.335938 9.265625 -25.378906 8.453125 -24.265625 C 7.648438 -23.160156 7.023438 -21.941406 6.578125 -20.609375 C 6.140625 -19.273438 5.921875 -17.859375 5.921875 -16.359375 Z M 5.921875 -16.359375 "/></g></g></g><g fill="#000000" fill-opacity="1"><g transform="translate(633.803749, 215.409774)"><g><path d="M 32.21875 -32.9375 C 32.59375 -32.9375 32.78125 -32.753906 32.78125 -32.390625 L 32.78125 -0.4375 C 32.78125 -0.207031 32.71875 -0.0351562 32.59375 0.078125 C 32.46875 0.203125 32.320312 0.265625 32.15625 0.265625 L 32.125 0.265625 C 31.957031 0.265625 31.796875 0.21875 31.640625 0.125 C 31.492188 0.03125 31.335938 -0.0976562 31.171875 -0.265625 L 8.265625 -25.1875 L 8.265625 -0.5 C 8.265625 -0.132812 8.09375 0.046875 7.75 0.046875 L 5.21875 0.046875 C 4.820312 0.046875 4.625 -0.132812 4.625 -0.5 L 4.625 -32.484375 C 4.625 -32.679688 4.679688 -32.835938 4.796875 -32.953125 C 4.910156 -33.078125 5.0625 -33.140625 5.25 -33.140625 L 5.28125 -33.140625 C 5.457031 -33.140625 5.613281 -33.085938 5.75 -32.984375 C 5.882812 -32.878906 6.03125 -32.738281 6.1875 -32.5625 L 29.140625 -7.609375 L 29.140625 -32.390625 C 29.140625 -32.753906 29.328125 -32.9375 29.703125 -32.9375 Z M 32.21875 -32.9375 "/></g></g></g><g fill="#000000" fill-opacity="1"><g transform="translate(671.209029, 215.409774)"><g><path d="M 14.265625 0.453125 C 13.140625 0.453125 12.003906 0.3125 10.859375 0.03125 C 9.722656 -0.238281 8.628906 -0.617188 7.578125 -1.109375 C 6.535156 -1.609375 5.59375 -2.191406 4.75 -2.859375 C 3.90625 -3.535156 3.207031 -4.269531 2.65625 -5.0625 C 2.539062 -5.21875 2.488281 -5.394531 2.5 -5.59375 C 2.507812 -5.800781 2.609375 -5.976562 2.796875 -6.125 L 4.328125 -7.65625 C 4.628906 -7.90625 4.972656 -7.820312 5.359375 -7.40625 C 6.023438 -6.582031 6.84375 -5.835938 7.8125 -5.171875 C 8.78125 -4.503906 9.8125 -3.976562 10.90625 -3.59375 C 12 -3.21875 13.066406 -3.03125 14.109375 -3.03125 C 16.554688 -3.03125 18.453125 -3.554688 19.796875 -4.609375 C 21.148438 -5.660156 21.828125 -7.101562 21.828125 -8.9375 C 21.828125 -9.738281 21.617188 -10.453125 21.203125 -11.078125 C 20.785156 -11.710938 20.203125 -12.273438 19.453125 -12.765625 C 18.703125 -13.265625 17.828125 -13.734375 16.828125 -14.171875 C 15.835938 -14.609375 14.765625 -15.039062 13.609375 -15.46875 C 12.210938 -15.976562 10.914062 -16.515625 9.71875 -17.078125 C 8.53125 -17.640625 7.492188 -18.273438 6.609375 -18.984375 C 5.734375 -19.703125 5.050781 -20.539062 4.5625 -21.5 C 4.070312 -22.457031 3.828125 -23.578125 3.828125 -24.859375 C 3.828125 -26.535156 4.253906 -28.003906 5.109375 -29.265625 C 5.960938 -30.523438 7.164062 -31.507812 8.71875 -32.21875 C 10.28125 -32.9375 12.128906 -33.296875 14.265625 -33.296875 C 15.472656 -33.296875 16.648438 -33.144531 17.796875 -32.84375 C 18.941406 -32.539062 19.984375 -32.113281 20.921875 -31.5625 C 21.867188 -31.019531 22.640625 -30.378906 23.234375 -29.640625 C 23.566406 -29.234375 23.585938 -28.867188 23.296875 -28.546875 L 22.046875 -27.109375 C 21.859375 -26.878906 21.65625 -26.78125 21.4375 -26.8125 C 21.226562 -26.851562 21 -26.96875 20.75 -27.15625 C 20.25 -27.726562 19.632812 -28.210938 18.90625 -28.609375 C 18.175781 -29.003906 17.398438 -29.304688 16.578125 -29.515625 C 15.753906 -29.734375 14.929688 -29.84375 14.109375 -29.84375 C 12.710938 -29.84375 11.507812 -29.625 10.5 -29.1875 C 9.5 -28.757812 8.734375 -28.164062 8.203125 -27.40625 C 7.671875 -26.65625 7.40625 -25.789062 7.40625 -24.8125 C 7.40625 -23.976562 7.617188 -23.238281 8.046875 -22.59375 C 8.484375 -21.957031 9.070312 -21.382812 9.8125 -20.875 C 10.550781 -20.375 11.40625 -19.914062 12.375 -19.5 C 13.34375 -19.09375 14.351562 -18.695312 15.40625 -18.3125 C 16.6875 -17.863281 17.9375 -17.367188 19.15625 -16.828125 C 20.375 -16.296875 21.46875 -15.675781 22.4375 -14.96875 C 23.40625 -14.257812 24.171875 -13.414062 24.734375 -12.4375 C 25.304688 -11.46875 25.59375 -10.320312 25.59375 -9 C 25.59375 -7.070312 25.125 -5.398438 24.1875 -3.984375 C 23.25 -2.566406 21.929688 -1.472656 20.234375 -0.703125 C 18.546875 0.0664062 16.554688 0.453125 14.265625 0.453125 Z M 14.265625 0.453125 "/></g></g></g><g clip-path="url(#e427b0ddb6)"><path fill="#ea4c47" d="M 35.117188 278.464844 L 35.308594 279.148438 L 35.148438 279.035156 C 35.0625 278.902344 35.03125 278.730469 35.09375 278.53125 Z M 116.625 219.738281 L 100.738281 238.96875 L 94.832031 246.117188 L 72.71875 222.195312 L 72.25 222.925781 L 71.992188 223.328125 L 71.082031 222.34375 L 71.992188 223.328125 L 72.71875 222.195312 L 94.832031 246.117188 L 100.738281 238.96875 L 116.625 219.738281 L 117.449219 220.765625 L 117.261719 220.527344 Z M 83.6875 154.070312 L 103.265625 157.527344 L 118.191406 160.160156 L 119.6875 160.425781 L 160.222656 167.582031 C 160.753906 167.675781 160.789062 168.335938 160.511719 168.675781 L 143.867188 188.820312 L 118.296875 219.746094 L 133.402344 238.613281 C 133.632812 238.898438 133.707031 239.460938 133.269531 239.636719 L 122.644531 244.140625 L 101.347656 253.164062 L 107.882812 260.234375 C 107.960938 260.3125 108.015625 260.410156 108.046875 260.515625 C 108.144531 260.863281 107.941406 261.226562 107.59375 261.324219 L 91.949219 265.269531 L 35.847656 279.410156 C 35.6875 279.453125 35.511719 279.429688 35.367188 279.347656 L 35.308594 279.148438 L 35.117188 278.464844 L 35.113281 278.453125 L 35.128906 278.429688 L 40.117188 262.894531 C 46.03125 244.46875 51.953125 226.039062 57.875 207.605469 C 57.902344 207.503906 57.957031 207.410156 58.03125 207.332031 C 58.285156 207.074219 58.703125 207.066406 58.964844 207.320312 L 69.695312 218.929688 L 71.808594 221.210938 L 72.71875 222.195312 L 72.515625 221.976562 L 71.808594 221.210938 L 92.496094 188.925781 C 92.523438 188.878906 92.558594 188.835938 92.597656 188.796875 C 92.851562 188.542969 93.265625 188.542969 93.523438 188.796875 L 102.25 199.707031 L 117.46875 218.714844 L 117.476562 218.707031 L 117.46875 218.714844 L 116.796875 217.875 L 117.480469 218.703125 L 130.15625 203.359375 L 133.402344 199.433594 L 133.402344 199.429688 L 132.832031 199.15625 L 126.851562 183.21875 L 118.722656 161.574219 L 82.703125 155.214844 Z M 106.78125 127.160156 L 106.09375 127.960938 Z M 106.136719 126.078125 C 106.488281 125.972656 106.855469 126.171875 106.960938 126.523438 L 112.941406 142.457031 L 119.6875 160.425781 L 119.492188 160.390625 L 118.976562 160.300781 L 118.191406 160.160156 L 103.265625 157.527344 L 83.6875 154.070312 L 83.433594 154.367188 L 82.703125 155.214844 L 71.085938 168.726562 L 48.234375 195.359375 C 48.199219 195.398438 48.15625 195.429688 48.113281 195.453125 C 47.800781 195.640625 47.394531 195.539062 47.210938 195.226562 L 39.816406 183.710938 C 31.046875 170.0625 22.28125 156.414062 13.515625 142.761719 C 13.183594 142.242188 13.734375 141.714844 14.257812 141.804688 L 46.324219 147.46875 L 82.191406 153.804688 L 83.6875 154.070312 L 82.191406 153.804688 L 82.125 153.792969 L 85.222656 150.273438 L 83.015625 152.84375 L 82.191406 153.804688 L 83.015625 152.84375 L 105.867188 126.234375 C 105.941406 126.164062 106.035156 126.109375 106.136719 126.078125 Z M 106.136719 126.078125 " fill-opacity="1" fill-rule="evenodd"/></g><g clip-path="url(#5a889ded60)"><path fill="#218dcc" d="M 40.003906 279.078125 L 40.199219 279.757812 L 40.035156 279.644531 C 39.949219 279.515625 39.917969 279.34375 39.984375 279.140625 Z M 42.179688 276.617188 L 41.585938 278.460938 L 40.394531 278.761719 L 41.585938 278.460938 Z M 89.105469 259.621094 L 89.898438 260.644531 Z M 98.882812 247.742188 L 99.765625 248.699219 Z M 100.605469 247.6875 L 99.765625 248.699219 L 91.628906 258.550781 L 89.898438 260.644531 L 91.628906 258.550781 L 99.734375 255.117188 L 104.019531 253.300781 L 104.960938 254.316406 L 111.085938 260.941406 L 56.039062 274.816406 L 42.003906 278.355469 L 56.039062 274.816406 L 111.085938 260.941406 L 104.960938 254.316406 L 104.019531 253.300781 L 101.117188 250.160156 L 99.765625 248.699219 Z M 138.292969 200.042969 L 138.578125 200.179688 Z M 138.988281 199.421875 L 138.957031 199.914062 L 138.578125 200.179688 C 138.894531 200.09375 139.136719 199.8125 138.988281 199.421875 Z M 163.714844 169.269531 L 164.75 169.449219 Z M 88.578125 154.679688 L 108.152344 158.136719 L 123.078125 160.773438 L 124.574219 161.035156 L 165.113281 168.191406 C 165.644531 168.289062 165.679688 168.945312 165.398438 169.285156 L 148.753906 189.433594 L 123.183594 220.355469 L 138.292969 239.226562 C 138.519531 239.507812 138.59375 240.070312 138.15625 240.25 L 127.535156 244.753906 L 106.234375 253.777344 L 112.769531 260.84375 C 112.847656 260.925781 112.90625 261.019531 112.933594 261.128906 C 113.03125 261.476562 112.828125 261.835938 112.480469 261.933594 L 96.835938 265.882812 L 40.738281 280.023438 C 40.574219 280.0625 40.402344 280.039062 40.253906 279.957031 L 40.199219 279.757812 L 40.003906 279.078125 L 40 279.0625 L 40.015625 279.039062 L 45.003906 263.507812 C 50.921875 245.082031 56.839844 226.648438 62.761719 208.21875 C 62.792969 208.113281 62.847656 208.019531 62.921875 207.945312 C 63.175781 207.683594 63.589844 207.675781 63.851562 207.929688 L 74.585938 219.539062 L 76.695312 221.820312 L 77.605469 222.804688 L 76.878906 223.9375 L 75.96875 222.953125 L 63.679688 209.660156 L 75.96875 222.953125 L 75.007812 224.453125 L 52.621094 259.363281 L 42.792969 274.707031 L 52.621094 259.363281 L 75.007812 224.453125 L 75.96875 222.953125 L 76.878906 223.9375 L 98.882812 247.742188 L 76.878906 223.9375 L 77.605469 222.804688 L 99.71875 246.726562 L 105.628906 239.578125 L 121.515625 220.347656 L 122.339844 221.378906 L 128.632812 229.234375 L 136.777344 239.421875 L 105.296875 252.761719 L 136.777344 239.421875 L 128.632812 229.234375 L 122.339844 221.378906 L 121.515625 220.347656 L 97.996094 190.984375 L 98.503906 190.195312 L 97.996094 190.984375 L 85.882812 209.894531 L 77.605469 222.804688 L 76.695312 221.820312 L 97.386719 189.539062 C 97.414062 189.492188 97.449219 189.449219 97.484375 189.410156 C 97.742188 189.152344 98.15625 189.152344 98.410156 189.40625 L 107.136719 200.320312 L 122.359375 219.328125 L 135.046875 203.96875 L 138.292969 200.042969 L 137.722656 199.765625 L 131.738281 183.832031 L 123.609375 162.1875 L 87.589844 155.828125 Z M 19.144531 142.414062 L 51.214844 148.078125 L 87.082031 154.414062 L 88.578125 154.679688 L 87.589844 155.828125 L 75.972656 169.339844 L 53.125 195.972656 C 53.085938 196.007812 53.046875 196.039062 53 196.066406 C 52.6875 196.25 52.285156 196.148438 52.097656 195.835938 L 44.703125 184.324219 C 35.9375 170.675781 27.171875 157.023438 18.402344 143.375 C 18.074219 142.851562 18.621094 142.324219 19.144531 142.414062 Z M 111.023438 126.691406 C 111.375 126.585938 111.742188 126.785156 111.847656 127.132812 L 117.832031 143.070312 L 124.574219 161.035156 L 123.078125 160.773438 L 110.984375 128.570312 L 111.671875 127.769531 L 110.574219 127.484375 L 111.671875 127.769531 L 110.984375 128.570312 L 98.820312 142.765625 L 88.578125 154.679688 L 87.082031 154.414062 L 87.90625 153.453125 L 110.753906 126.847656 C 110.832031 126.773438 110.921875 126.71875 111.023438 126.691406 Z M 111.023438 126.691406 " fill-opacity="1" fill-rule="evenodd"/></g><g clip-path="url(#c916f23d0d)"><path fill="#df127a" d="M 35.117188 278.847656 L 35.308594 279.53125 L 35.148438 279.417969 C 35.0625 279.285156 35.03125 279.113281 35.09375 278.914062 Z M 116.625 220.121094 L 100.738281 239.351562 L 94.832031 246.5 L 72.71875 222.578125 L 72.25 223.308594 L 71.992188 223.710938 L 71.082031 222.726562 L 71.992188 223.710938 L 72.71875 222.578125 L 94.832031 246.5 L 100.738281 239.351562 L 116.625 220.121094 L 117.449219 221.148438 L 117.261719 220.910156 Z M 83.6875 154.449219 L 103.265625 157.910156 L 118.191406 160.542969 L 119.6875 160.808594 L 160.222656 167.964844 C 160.753906 168.058594 160.789062 168.71875 160.511719 169.058594 L 143.867188 189.203125 L 118.296875 220.128906 L 133.402344 238.996094 C 133.632812 239.28125 133.707031 239.84375 133.269531 240.019531 L 122.644531 244.523438 L 101.347656 253.546875 L 107.882812 260.617188 C 107.960938 260.695312 108.015625 260.792969 108.046875 260.898438 C 108.144531 261.246094 107.941406 261.609375 107.59375 261.707031 L 91.949219 265.652344 L 35.847656 279.792969 C 35.6875 279.835938 35.511719 279.8125 35.367188 279.730469 L 35.308594 279.53125 L 35.117188 278.847656 L 35.113281 278.835938 L 35.128906 278.808594 L 40.117188 263.277344 C 46.03125 244.851562 51.953125 226.421875 57.875 207.988281 C 57.902344 207.886719 57.957031 207.792969 58.03125 207.714844 C 58.285156 207.457031 58.703125 207.449219 58.964844 207.703125 L 69.695312 219.3125 L 71.808594 221.59375 L 72.71875 222.578125 L 72.515625 222.359375 L 71.808594 221.59375 L 92.496094 189.308594 C 92.523438 189.261719 92.558594 189.21875 92.597656 189.179688 C 92.851562 188.925781 93.265625 188.921875 93.523438 189.179688 L 102.25 200.089844 L 117.46875 219.097656 L 117.476562 219.089844 L 117.46875 219.097656 L 116.796875 218.257812 L 117.480469 219.085938 L 130.15625 203.742188 L 133.402344 199.8125 L 132.832031 199.539062 L 126.851562 183.601562 L 118.722656 161.957031 L 82.703125 155.597656 Z M 106.78125 127.542969 L 106.09375 128.34375 Z M 106.136719 126.460938 C 106.488281 126.355469 106.855469 126.554688 106.960938 126.90625 L 112.941406 142.839844 L 119.6875 160.808594 L 119.492188 160.773438 L 118.976562 160.683594 L 118.191406 160.542969 L 103.265625 157.910156 L 83.6875 154.449219 L 83.433594 154.75 L 82.703125 155.597656 L 71.085938 169.109375 L 48.234375 195.742188 C 48.199219 195.78125 48.15625 195.808594 48.113281 195.835938 C 47.800781 196.023438 47.394531 195.921875 47.210938 195.609375 L 39.816406 184.09375 C 31.046875 170.445312 22.28125 156.796875 13.515625 143.144531 C 13.183594 142.625 13.734375 142.097656 14.257812 142.1875 L 46.324219 147.851562 L 82.191406 154.1875 L 83.6875 154.449219 L 82.191406 154.1875 L 82.125 154.175781 L 85.222656 150.65625 L 83.015625 153.226562 L 82.191406 154.1875 L 83.015625 153.226562 L 105.867188 126.617188 C 105.941406 126.546875 106.035156 126.492188 106.136719 126.460938 Z M 106.136719 126.460938 " fill-opacity="1" fill-rule="evenodd"/></g><g clip-path="url(#777ecb1906)"><path fill="#65a935" d="M 40.003906 279.457031 L 40.199219 280.140625 L 40.035156 280.027344 C 39.949219 279.894531 39.917969 279.726562 39.984375 279.523438 Z M 42.179688 277 L 41.585938 278.84375 L 40.394531 279.144531 L 41.585938 278.84375 Z M 89.105469 260.003906 L 89.898438 261.027344 Z M 98.882812 248.125 L 99.765625 249.082031 Z M 100.605469 248.070312 L 99.765625 249.082031 L 91.628906 258.933594 L 89.898438 261.027344 L 91.628906 258.933594 L 99.734375 255.5 L 104.019531 253.683594 L 104.960938 254.699219 L 111.085938 261.324219 L 56.039062 275.199219 L 42.003906 278.738281 L 56.039062 275.199219 L 111.085938 261.324219 L 104.960938 254.699219 L 104.019531 253.683594 L 101.117188 250.542969 L 99.765625 249.082031 Z M 138.292969 200.425781 L 138.578125 200.5625 Z M 138.988281 199.804688 L 138.957031 200.296875 L 138.578125 200.5625 C 138.894531 200.476562 139.136719 200.195312 138.988281 199.804688 Z M 163.714844 169.648438 L 164.75 169.832031 Z M 88.578125 155.0625 L 108.152344 158.519531 L 123.078125 161.15625 L 124.574219 161.417969 L 165.113281 168.574219 C 165.644531 168.671875 165.679688 169.328125 165.398438 169.667969 L 148.753906 189.816406 L 123.183594 220.738281 L 138.292969 239.609375 C 138.519531 239.890625 138.59375 240.453125 138.15625 240.632812 L 127.535156 245.136719 L 106.234375 254.160156 L 112.769531 261.226562 C 112.847656 261.308594 112.90625 261.402344 112.933594 261.511719 C 113.03125 261.859375 112.828125 262.21875 112.480469 262.316406 L 96.835938 266.265625 L 40.738281 280.402344 C 40.574219 280.445312 40.402344 280.421875 40.253906 280.339844 L 40.199219 280.140625 L 40.003906 279.457031 L 40 279.445312 L 40.015625 279.421875 L 45.003906 263.890625 C 50.921875 245.460938 56.839844 227.03125 62.761719 208.601562 C 62.792969 208.496094 62.847656 208.402344 62.921875 208.328125 C 63.175781 208.066406 63.589844 208.058594 63.851562 208.3125 L 74.585938 219.921875 L 76.695312 222.203125 L 77.605469 223.1875 L 76.878906 224.320312 L 75.96875 223.335938 L 63.679688 210.042969 L 75.96875 223.335938 L 75.007812 224.835938 L 52.621094 259.746094 L 42.792969 275.089844 L 52.621094 259.746094 L 75.007812 224.835938 L 75.96875 223.335938 L 76.878906 224.320312 L 98.882812 248.125 L 76.878906 224.320312 L 77.605469 223.1875 L 99.71875 247.109375 L 105.628906 239.960938 L 121.515625 220.730469 L 122.339844 221.761719 L 128.632812 229.617188 L 136.777344 239.804688 L 105.296875 253.144531 L 136.777344 239.804688 L 128.632812 229.617188 L 122.339844 221.761719 L 121.515625 220.730469 L 97.996094 191.367188 L 98.503906 190.578125 L 97.996094 191.367188 L 85.882812 210.277344 L 77.605469 223.1875 L 76.695312 222.203125 L 97.386719 189.921875 C 97.414062 189.875 97.449219 189.828125 97.484375 189.792969 C 97.742188 189.535156 98.15625 189.535156 98.410156 189.789062 L 107.136719 200.703125 L 122.359375 219.710938 L 135.046875 204.351562 L 138.292969 200.425781 L 137.722656 200.148438 L 131.738281 184.214844 L 123.609375 162.570312 L 87.589844 156.210938 Z M 19.144531 142.796875 L 51.214844 148.460938 L 87.082031 154.796875 L 88.578125 155.0625 L 87.589844 156.210938 L 75.972656 169.71875 L 53.125 196.355469 C 53.085938 196.390625 53.046875 196.421875 53 196.449219 C 52.6875 196.632812 52.285156 196.53125 52.097656 196.21875 L 44.703125 184.707031 C 35.9375 171.054688 27.171875 157.40625 18.402344 143.757812 C 18.074219 143.234375 18.621094 142.707031 19.144531 142.796875 Z M 111.023438 127.074219 C 111.375 126.96875 111.742188 127.167969 111.847656 127.515625 L 117.832031 143.453125 L 124.574219 161.417969 L 123.078125 161.15625 L 110.984375 128.953125 L 111.671875 128.152344 L 110.574219 127.867188 L 111.671875 128.152344 L 110.984375 128.953125 L 98.820312 143.148438 L 88.578125 155.0625 L 87.082031 154.796875 L 87.90625 153.835938 L 110.753906 127.230469 C 110.832031 127.15625 110.921875 127.101562 111.023438 127.074219 Z M 111.023438 127.074219 " fill-opacity="1" fill-rule="evenodd"/></g></svg>