<svg xmlns="http://www.w3.org/2000/svg" xmlns:xlink="http://www.w3.org/1999/xlink" width="567" zoomAndPan="magnify" viewBox="0 0 425.25 148.499996" height="198" preserveAspectRatio="xMidYMid meet" version="1.0"><defs><g/><clipPath id="9fdac7b9eb"><path d="M 152.003906 50.984375 L 424.164062 50.984375 L 424.164062 141.203125 L 152.003906 141.203125 Z M 152.003906 50.984375 " clip-rule="nonzero"/></clipPath><clipPath id="fe0dc5c628"><path d="M 8.507812 31.710938 L 104 31.710938 L 104 131 L 8.507812 131 Z M 8.507812 31.710938 " clip-rule="nonzero"/></clipPath></defs><g clip-path="url(#9fdac7b9eb)"><path fill="#ffffff" d="M 152.003906 50.984375 L 426.1875 50.984375 L 426.1875 141.203125 L 152.003906 141.203125 Z M 152.003906 50.984375 " fill-opacity="1" fill-rule="nonzero"/></g><g clip-path="url(#fe0dc5c628)"><path fill="#2c5aa4" d="M 22.769531 129.769531 L 22.894531 130.210938 L 22.789062 130.136719 C 22.734375 130.050781 22.714844 129.941406 22.753906 129.8125 Z M 75.191406 92.003906 L 64.972656 104.371094 L 61.171875 108.96875 L 46.953125 93.582031 L 46.652344 94.050781 L 46.484375 94.3125 L 45.898438 93.679688 L 46.484375 94.3125 L 46.953125 93.582031 L 61.171875 108.96875 L 64.972656 104.371094 L 75.191406 92.003906 L 75.71875 92.664062 L 75.597656 92.511719 Z M 54.007812 49.769531 L 66.597656 51.992188 L 76.195312 53.6875 L 77.160156 53.859375 L 103.226562 58.460938 C 103.570312 58.523438 103.59375 58.945312 103.414062 59.164062 L 92.707031 72.121094 L 76.261719 92.007812 L 85.980469 104.140625 C 86.125 104.324219 86.171875 104.6875 85.894531 104.800781 L 79.0625 107.699219 L 65.363281 113.5 L 69.566406 118.046875 C 69.617188 118.097656 69.652344 118.160156 69.671875 118.226562 C 69.734375 118.453125 69.605469 118.683594 69.378906 118.746094 L 59.320312 121.285156 L 23.242188 130.378906 C 23.136719 130.40625 23.023438 130.390625 22.929688 130.335938 L 22.894531 130.210938 L 22.769531 129.769531 L 22.765625 129.761719 L 22.777344 129.746094 L 25.984375 119.757812 C 29.789062 107.90625 33.597656 96.054688 37.40625 84.199219 C 37.425781 84.136719 37.460938 84.074219 37.507812 84.027344 C 37.671875 83.859375 37.9375 83.851562 38.105469 84.015625 L 45.007812 91.480469 L 46.367188 92.949219 L 46.953125 93.582031 L 46.820312 93.445312 L 46.367188 92.949219 L 59.671875 72.1875 C 59.691406 72.15625 59.710938 72.128906 59.738281 72.105469 C 59.902344 71.941406 60.167969 71.941406 60.332031 72.105469 L 65.941406 79.121094 L 75.734375 91.34375 L 75.738281 91.339844 L 75.734375 91.34375 L 75.300781 90.804688 L 75.738281 91.339844 L 83.890625 81.46875 L 85.980469 78.945312 L 85.980469 78.941406 L 85.613281 78.765625 L 81.765625 68.519531 L 76.535156 54.597656 L 53.371094 50.507812 Z M 68.859375 32.464844 L 68.417969 32.980469 Z M 68.441406 31.769531 C 68.667969 31.703125 68.90625 31.832031 68.972656 32.054688 L 72.820312 42.304688 L 77.160156 53.859375 L 77.035156 53.835938 L 76.703125 53.777344 L 76.195312 53.6875 L 66.597656 51.992188 L 54.007812 49.769531 L 53.84375 49.960938 L 53.371094 50.507812 L 45.902344 59.195312 L 31.207031 76.324219 C 31.183594 76.347656 31.15625 76.367188 31.128906 76.386719 C 30.925781 76.503906 30.667969 76.441406 30.546875 76.238281 L 25.792969 68.835938 C 20.152344 60.054688 14.515625 51.277344 8.878906 42.5 C 8.664062 42.164062 9.019531 41.824219 9.355469 41.882812 L 29.976562 45.527344 L 53.042969 49.601562 L 54.007812 49.769531 L 53.042969 49.601562 L 53 49.59375 L 54.996094 47.328125 L 53.574219 48.984375 L 53.042969 49.601562 L 53.046875 49.601562 L 53.574219 48.984375 L 68.269531 31.871094 C 68.320312 31.824219 68.378906 31.789062 68.441406 31.769531 Z M 68.441406 31.769531 " fill-opacity="1" fill-rule="evenodd"/></g><path fill="#58a13b" d="M 25.914062 130.164062 L 26.039062 130.601562 L 25.933594 130.53125 C 25.878906 130.445312 25.859375 130.335938 25.898438 130.207031 Z M 27.3125 128.582031 L 26.929688 129.769531 L 26.164062 129.960938 L 26.929688 129.769531 Z M 57.492188 117.652344 L 58 118.308594 Z M 63.777344 110.011719 L 64.347656 110.628906 Z M 64.886719 109.976562 L 64.347656 110.628906 L 59.113281 116.964844 L 58 118.308594 L 59.113281 116.964844 L 64.324219 114.753906 L 67.082031 113.585938 L 67.6875 114.242188 L 71.625 118.5 L 36.226562 127.425781 L 27.199219 129.699219 L 36.226562 127.425781 L 71.625 118.5 L 67.6875 114.242188 L 67.082031 113.585938 L 65.214844 111.566406 L 64.347656 110.628906 Z M 89.121094 79.335938 L 89.304688 79.425781 Z M 89.570312 78.9375 L 89.550781 79.253906 L 89.304688 79.425781 C 89.507812 79.371094 89.664062 79.1875 89.570312 78.9375 Z M 105.472656 59.546875 L 106.136719 59.664062 Z M 57.152344 50.164062 L 69.742188 52.386719 L 79.339844 54.082031 L 80.300781 54.25 L 106.371094 58.851562 C 106.714844 58.914062 106.734375 59.339844 106.554688 59.554688 L 95.851562 72.511719 L 79.40625 92.402344 L 89.125 104.535156 C 89.269531 104.71875 89.316406 105.078125 89.035156 105.195312 L 82.203125 108.089844 L 68.507812 113.894531 L 72.710938 118.4375 C 72.761719 118.488281 72.796875 118.550781 72.816406 118.621094 C 72.878906 118.84375 72.75 119.078125 72.523438 119.140625 L 62.460938 121.679688 L 26.386719 130.773438 C 26.28125 130.796875 26.167969 130.785156 26.074219 130.730469 L 26.039062 130.601562 L 25.914062 130.164062 L 25.910156 130.15625 L 25.921875 130.140625 L 29.128906 120.152344 C 32.933594 108.300781 36.742188 96.449219 40.550781 84.59375 C 40.566406 84.527344 40.601562 84.46875 40.652344 84.417969 C 40.8125 84.25 41.082031 84.246094 41.25 84.410156 L 48.152344 91.875 L 49.507812 93.34375 L 50.09375 93.976562 L 49.628906 94.703125 L 49.042969 94.070312 L 41.140625 85.519531 L 49.042969 94.070312 L 48.425781 95.035156 L 34.027344 117.488281 L 27.707031 127.355469 L 34.027344 117.488281 L 48.425781 95.035156 L 49.042969 94.070312 L 49.628906 94.703125 L 63.777344 110.011719 L 49.628906 94.703125 L 50.09375 93.976562 L 64.316406 109.359375 L 68.117188 104.761719 L 78.332031 92.394531 L 78.863281 93.058594 L 82.910156 98.109375 L 88.148438 104.660156 L 67.902344 113.238281 L 88.148438 104.660156 L 82.910156 98.109375 L 78.863281 93.058594 L 78.332031 92.394531 L 63.210938 73.511719 L 63.535156 73.003906 L 63.210938 73.511719 L 55.417969 85.671875 L 50.09375 93.976562 L 49.507812 93.34375 L 62.816406 72.582031 C 62.832031 72.550781 62.855469 72.523438 62.878906 72.496094 C 63.042969 72.332031 63.3125 72.332031 63.476562 72.496094 L 69.085938 79.515625 L 78.875 91.738281 L 87.035156 81.863281 L 89.121094 79.335938 L 88.757812 79.160156 L 84.910156 68.910156 L 79.679688 54.992188 L 56.515625 50.902344 Z M 12.5 42.277344 L 33.121094 45.917969 L 56.1875 49.992188 L 57.152344 50.164062 L 56.515625 50.902344 L 49.046875 59.589844 L 34.351562 76.71875 C 34.328125 76.742188 34.300781 76.761719 34.273438 76.777344 C 34.070312 76.898438 33.8125 76.832031 33.691406 76.632812 L 28.9375 69.226562 C 23.296875 60.449219 17.660156 51.671875 12.023438 42.894531 C 11.808594 42.554688 12.164062 42.21875 12.5 42.277344 Z M 71.585938 32.164062 C 71.8125 32.09375 72.050781 32.222656 72.117188 32.449219 L 75.964844 42.695312 L 80.300781 54.25 L 79.339844 54.082031 L 71.5625 33.371094 L 72.003906 32.859375 L 71.296875 32.671875 L 72.003906 32.859375 L 71.5625 33.371094 L 63.738281 42.5 L 57.152344 50.164062 L 56.1875 49.992188 L 56.71875 49.375 L 71.414062 32.265625 C 71.460938 32.214844 71.523438 32.183594 71.585938 32.164062 Z M 71.585938 32.164062 " fill-opacity="1" fill-rule="evenodd"/><g fill="#000000" fill-opacity="1"><g transform="translate(114.588434, 96.07653)"><g><path d="M 15.4375 -1.890625 C 15.707031 -1.890625 15.84375 -1.765625 15.84375 -1.515625 L 15.84375 -0.359375 C 15.84375 -0.117188 15.707031 0 15.4375 0 L 1.265625 0 C 1.148438 0 1.054688 -0.03125 0.984375 -0.09375 C 0.910156 -0.15625 0.875 -0.238281 0.875 -0.34375 L 0.875 -0.359375 C 0.875 -0.453125 0.890625 -0.53125 0.921875 -0.59375 C 0.953125 -0.664062 0.984375 -0.726562 1.015625 -0.78125 L 12.25 -17.34375 L 2.234375 -17.34375 C 1.972656 -17.34375 1.84375 -17.460938 1.84375 -17.703125 L 1.84375 -18.84375 C 1.84375 -19.09375 1.972656 -19.21875 2.234375 -19.21875 L 15.171875 -19.21875 C 15.296875 -19.21875 15.390625 -19.1875 15.453125 -19.125 C 15.523438 -19.0625 15.5625 -18.976562 15.5625 -18.875 L 15.5625 -18.859375 C 15.5625 -18.785156 15.546875 -18.71875 15.515625 -18.65625 C 15.492188 -18.59375 15.460938 -18.53125 15.421875 -18.46875 L 4.265625 -1.890625 Z M 15.4375 -1.890625 "/></g></g></g><g fill="#000000" fill-opacity="1"><g transform="translate(131.626513, 96.07653)"><g><path d="M 17.859375 -0.453125 C 17.929688 -0.316406 17.9375 -0.203125 17.875 -0.109375 C 17.8125 -0.015625 17.703125 0.03125 17.546875 0.03125 L 16.046875 0.03125 C 15.953125 0.03125 15.867188 0 15.796875 -0.0625 C 15.734375 -0.132812 15.679688 -0.210938 15.640625 -0.296875 L 14.609375 -2.75 L 3.921875 -2.75 L 2.90625 -0.3125 C 2.875 -0.21875 2.816406 -0.132812 2.734375 -0.0625 C 2.660156 0 2.578125 0.03125 2.484375 0.03125 L 1.015625 0.03125 C 0.847656 0.03125 0.734375 -0.0078125 0.671875 -0.09375 C 0.617188 -0.1875 0.625 -0.3125 0.6875 -0.46875 L 8.75 -19.03125 C 8.851562 -19.257812 9.007812 -19.375 9.21875 -19.375 L 9.328125 -19.375 C 9.421875 -19.375 9.507812 -19.335938 9.59375 -19.265625 C 9.6875 -19.203125 9.753906 -19.117188 9.796875 -19.015625 Z M 4.6875 -4.609375 L 13.84375 -4.609375 L 9.265625 -15.609375 Z M 4.6875 -4.609375 "/></g></g></g><g fill="#000000" fill-opacity="1"><g transform="translate(150.169812, 96.07653)"><g><path d="M 13.71875 -5.890625 L 16.40625 -0.453125 C 16.46875 -0.328125 16.472656 -0.210938 16.421875 -0.109375 C 16.378906 -0.015625 16.285156 0.03125 16.140625 0.03125 L 14.609375 0.03125 C 14.523438 0.03125 14.441406 0 14.359375 -0.0625 C 14.273438 -0.132812 14.210938 -0.210938 14.171875 -0.296875 L 11.828125 -5.140625 C 11.148438 -4.972656 10.445312 -4.890625 9.71875 -4.890625 L 4.828125 -4.890625 L 4.828125 -0.375 C 4.828125 -0.101562 4.695312 0.03125 4.4375 0.03125 L 3.125 0.03125 C 2.851562 0.03125 2.71875 -0.101562 2.71875 -0.375 L 2.71875 -18.828125 C 2.71875 -18.953125 2.753906 -19.050781 2.828125 -19.125 C 2.898438 -19.195312 3 -19.234375 3.125 -19.234375 L 3.46875 -19.234375 C 3.664062 -19.234375 3.867188 -19.234375 4.078125 -19.234375 C 4.296875 -19.234375 4.441406 -19.234375 4.515625 -19.234375 L 9.71875 -19.234375 C 10.789062 -19.234375 11.78125 -19.050781 12.6875 -18.6875 C 13.601562 -18.332031 14.394531 -17.832031 15.0625 -17.1875 C 15.738281 -16.539062 16.257812 -15.773438 16.625 -14.890625 C 16.988281 -14.015625 17.171875 -13.050781 17.171875 -12 C 17.171875 -11.101562 17.03125 -10.269531 16.75 -9.5 C 16.46875 -8.726562 16.066406 -8.035156 15.546875 -7.421875 C 15.035156 -6.804688 14.425781 -6.296875 13.71875 -5.890625 Z M 9.59375 -6.6875 C 10.394531 -6.6875 11.125 -6.816406 11.78125 -7.078125 C 12.445312 -7.335938 13.023438 -7.707031 13.515625 -8.1875 C 14.003906 -8.664062 14.382812 -9.226562 14.65625 -9.875 C 14.925781 -10.53125 15.0625 -11.242188 15.0625 -12.015625 C 15.0625 -12.796875 14.925781 -13.503906 14.65625 -14.140625 C 14.382812 -14.785156 14 -15.347656 13.5 -15.828125 C 13 -16.316406 12.414062 -16.691406 11.75 -16.953125 C 11.082031 -17.210938 10.363281 -17.34375 9.59375 -17.34375 L 4.828125 -17.34375 L 4.828125 -6.6875 Z M 9.59375 -6.6875 "/></g></g></g><g fill="#000000" fill-opacity="1"><g transform="translate(169.19377, 96.07653)"><g><path d="M 21.171875 -9.5625 C 21.171875 -8.519531 21.023438 -7.53125 20.734375 -6.59375 C 20.441406 -5.65625 20.023438 -4.789062 19.484375 -4 C 18.953125 -3.21875 18.316406 -2.523438 17.578125 -1.921875 C 16.835938 -1.328125 16.015625 -0.84375 15.109375 -0.46875 C 14.210938 -0.101562 13.253906 0.125 12.234375 0.21875 L 12.234375 3.15625 C 12.234375 3.425781 12.109375 3.5625 11.859375 3.5625 L 10.640625 3.5625 C 10.378906 3.5625 10.25 3.425781 10.25 3.15625 L 10.25 0.21875 C 9.238281 0.125 8.285156 -0.101562 7.390625 -0.46875 C 6.492188 -0.84375 5.675781 -1.328125 4.9375 -1.921875 C 4.195312 -2.523438 3.554688 -3.222656 3.015625 -4.015625 C 2.484375 -4.804688 2.070312 -5.664062 1.78125 -6.59375 C 1.5 -7.53125 1.359375 -8.519531 1.359375 -9.5625 C 1.359375 -10.675781 1.519531 -11.726562 1.84375 -12.71875 C 2.175781 -13.71875 2.644531 -14.628906 3.25 -15.453125 C 3.851562 -16.273438 4.5625 -16.984375 5.375 -17.578125 C 6.195312 -18.179688 7.101562 -18.644531 8.09375 -18.96875 C 9.09375 -19.300781 10.148438 -19.46875 11.265625 -19.46875 C 12.367188 -19.46875 13.414062 -19.300781 14.40625 -18.96875 C 15.40625 -18.644531 16.316406 -18.179688 17.140625 -17.578125 C 17.960938 -16.984375 18.675781 -16.273438 19.28125 -15.453125 C 19.882812 -14.628906 20.347656 -13.71875 20.671875 -12.71875 C 21.003906 -11.726562 21.171875 -10.675781 21.171875 -9.5625 Z M 11.265625 -1.84375 C 12.140625 -1.84375 12.96875 -1.96875 13.75 -2.21875 C 14.53125 -2.476562 15.242188 -2.84375 15.890625 -3.3125 C 16.535156 -3.78125 17.097656 -4.332031 17.578125 -4.96875 C 18.054688 -5.613281 18.421875 -6.320312 18.671875 -7.09375 C 18.929688 -7.875 19.0625 -8.695312 19.0625 -9.5625 C 19.0625 -10.4375 18.929688 -11.265625 18.671875 -12.046875 C 18.421875 -12.828125 18.054688 -13.539062 17.578125 -14.1875 C 17.097656 -14.84375 16.535156 -15.40625 15.890625 -15.875 C 15.242188 -16.34375 14.53125 -16.707031 13.75 -16.96875 C 12.96875 -17.226562 12.140625 -17.359375 11.265625 -17.359375 C 10.390625 -17.359375 9.5625 -17.226562 8.78125 -16.96875 C 8 -16.707031 7.28125 -16.34375 6.625 -15.875 C 5.976562 -15.40625 5.414062 -14.84375 4.9375 -14.1875 C 4.46875 -13.539062 4.101562 -12.828125 3.84375 -12.046875 C 3.59375 -11.265625 3.46875 -10.4375 3.46875 -9.5625 C 3.46875 -8.695312 3.59375 -7.875 3.84375 -7.09375 C 4.101562 -6.320312 4.46875 -5.613281 4.9375 -4.96875 C 5.414062 -4.332031 5.976562 -3.78125 6.625 -3.3125 C 7.28125 -2.84375 8 -2.476562 8.78125 -2.21875 C 9.5625 -1.96875 10.390625 -1.84375 11.265625 -1.84375 Z M 11.265625 -1.84375 "/></g></g></g><g fill="#000000" fill-opacity="1"><g transform="translate(191.721475, 96.07653)"><g><path d="M 17.859375 -0.453125 C 17.929688 -0.316406 17.9375 -0.203125 17.875 -0.109375 C 17.8125 -0.015625 17.703125 0.03125 17.546875 0.03125 L 16.046875 0.03125 C 15.953125 0.03125 15.867188 0 15.796875 -0.0625 C 15.734375 -0.132812 15.679688 -0.210938 15.640625 -0.296875 L 14.609375 -2.75 L 3.921875 -2.75 L 2.90625 -0.3125 C 2.875 -0.21875 2.816406 -0.132812 2.734375 -0.0625 C 2.660156 0 2.578125 0.03125 2.484375 0.03125 L 1.015625 0.03125 C 0.847656 0.03125 0.734375 -0.0078125 0.671875 -0.09375 C 0.617188 -0.1875 0.625 -0.3125 0.6875 -0.46875 L 8.75 -19.03125 C 8.851562 -19.257812 9.007812 -19.375 9.21875 -19.375 L 9.328125 -19.375 C 9.421875 -19.375 9.507812 -19.335938 9.59375 -19.265625 C 9.6875 -19.203125 9.753906 -19.117188 9.796875 -19.015625 Z M 4.6875 -4.609375 L 13.84375 -4.609375 L 9.265625 -15.609375 Z M 4.6875 -4.609375 "/></g></g></g><g fill="#000000" fill-opacity="1"><g transform="translate(210.264774, 96.07653)"><g><path d="M 18.828125 -19.25 C 19.046875 -19.25 19.15625 -19.144531 19.15625 -18.9375 L 19.15625 -0.25 C 19.15625 -0.113281 19.117188 -0.015625 19.046875 0.046875 C 18.984375 0.117188 18.898438 0.15625 18.796875 0.15625 L 18.78125 0.15625 C 18.675781 0.15625 18.578125 0.125 18.484375 0.0625 C 18.398438 0.0078125 18.316406 -0.0625 18.234375 -0.15625 L 4.828125 -14.71875 L 4.828125 -0.296875 C 4.828125 -0.078125 4.726562 0.03125 4.53125 0.03125 L 3.046875 0.03125 C 2.816406 0.03125 2.703125 -0.078125 2.703125 -0.296875 L 2.703125 -18.984375 C 2.703125 -19.097656 2.734375 -19.191406 2.796875 -19.265625 C 2.867188 -19.335938 2.960938 -19.375 3.078125 -19.375 L 3.09375 -19.375 C 3.1875 -19.375 3.273438 -19.34375 3.359375 -19.28125 C 3.441406 -19.21875 3.53125 -19.132812 3.625 -19.03125 L 17.03125 -4.453125 L 17.03125 -18.9375 C 17.03125 -19.144531 17.144531 -19.25 17.375 -19.25 Z M 18.828125 -19.25 "/></g></g></g><g fill="#000000" fill-opacity="1"><g transform="translate(232.134736, 96.07653)"><g><path d="M 16.3125 -2.03125 C 16.476562 -2.03125 16.609375 -1.984375 16.703125 -1.890625 C 16.796875 -1.804688 16.84375 -1.695312 16.84375 -1.5625 L 16.84375 -0.390625 C 16.84375 -0.273438 16.800781 -0.179688 16.71875 -0.109375 C 16.644531 -0.0351562 16.539062 0 16.40625 0 L 3.125 0 C 2.851562 0 2.71875 -0.132812 2.71875 -0.40625 L 2.71875 -18.828125 C 2.71875 -19.085938 2.851562 -19.21875 3.125 -19.21875 L 16.125 -19.21875 C 16.425781 -19.21875 16.578125 -19.085938 16.578125 -18.828125 L 16.578125 -17.609375 C 16.578125 -17.335938 16.425781 -17.203125 16.125 -17.203125 L 4.828125 -17.203125 L 4.828125 -9.265625 L 14.046875 -9.265625 C 14.378906 -9.265625 14.546875 -9.125 14.546875 -8.84375 L 14.546875 -7.6875 C 14.546875 -7.425781 14.378906 -7.296875 14.046875 -7.296875 L 4.828125 -7.296875 L 4.828125 -2.03125 Z M 16.3125 -2.03125 "/></g></g></g><g fill="#000000" fill-opacity="1"><g transform="translate(250.28592, 96.07653)"><g/></g></g><g fill="#000000" fill-opacity="1"><g transform="translate(257.837318, 96.07653)"><g><path d="M 8.34375 0.265625 C 7.675781 0.265625 7.007812 0.179688 6.34375 0.015625 C 5.675781 -0.140625 5.035156 -0.363281 4.421875 -0.65625 C 3.816406 -0.945312 3.265625 -1.285156 2.765625 -1.671875 C 2.273438 -2.066406 1.875 -2.492188 1.5625 -2.953125 C 1.488281 -3.046875 1.453125 -3.148438 1.453125 -3.265625 C 1.460938 -3.390625 1.519531 -3.492188 1.625 -3.578125 L 2.53125 -4.484375 C 2.707031 -4.617188 2.910156 -4.566406 3.140625 -4.328125 C 3.523438 -3.847656 4 -3.410156 4.5625 -3.015625 C 5.125 -2.628906 5.726562 -2.320312 6.375 -2.09375 C 7.019531 -1.875 7.644531 -1.765625 8.25 -1.765625 C 9.675781 -1.765625 10.785156 -2.070312 11.578125 -2.6875 C 12.367188 -3.3125 12.765625 -4.15625 12.765625 -5.21875 C 12.765625 -5.695312 12.640625 -6.117188 12.390625 -6.484375 C 12.148438 -6.847656 11.8125 -7.175781 11.375 -7.46875 C 10.9375 -7.757812 10.425781 -8.03125 9.84375 -8.28125 C 9.257812 -8.539062 8.628906 -8.796875 7.953125 -9.046875 C 7.140625 -9.335938 6.382812 -9.644531 5.6875 -9.96875 C 4.988281 -10.300781 4.378906 -10.675781 3.859375 -11.09375 C 3.347656 -11.507812 2.945312 -12 2.65625 -12.5625 C 2.375 -13.125 2.234375 -13.78125 2.234375 -14.53125 C 2.234375 -15.507812 2.484375 -16.367188 2.984375 -17.109375 C 3.484375 -17.847656 4.1875 -18.425781 5.09375 -18.84375 C 6.007812 -19.257812 7.09375 -19.46875 8.34375 -19.46875 C 9.050781 -19.46875 9.738281 -19.378906 10.40625 -19.203125 C 11.070312 -19.023438 11.679688 -18.773438 12.234375 -18.453125 C 12.785156 -18.128906 13.234375 -17.753906 13.578125 -17.328125 C 13.773438 -17.085938 13.789062 -16.875 13.625 -16.6875 L 12.890625 -15.84375 C 12.773438 -15.707031 12.65625 -15.648438 12.53125 -15.671875 C 12.40625 -15.691406 12.269531 -15.757812 12.125 -15.875 C 11.832031 -16.207031 11.472656 -16.488281 11.046875 -16.71875 C 10.617188 -16.957031 10.164062 -17.132812 9.6875 -17.25 C 9.207031 -17.375 8.726562 -17.4375 8.25 -17.4375 C 7.425781 -17.4375 6.722656 -17.3125 6.140625 -17.0625 C 5.554688 -16.8125 5.109375 -16.46875 4.796875 -16.03125 C 4.484375 -15.59375 4.328125 -15.085938 4.328125 -14.515625 C 4.328125 -14.023438 4.453125 -13.59375 4.703125 -13.21875 C 4.953125 -12.84375 5.296875 -12.503906 5.734375 -12.203125 C 6.171875 -11.910156 6.671875 -11.644531 7.234375 -11.40625 C 7.796875 -11.164062 8.382812 -10.929688 9 -10.703125 C 9.75 -10.441406 10.476562 -10.15625 11.1875 -9.84375 C 11.90625 -9.53125 12.546875 -9.164062 13.109375 -8.75 C 13.679688 -8.34375 14.132812 -7.851562 14.46875 -7.28125 C 14.800781 -6.707031 14.96875 -6.035156 14.96875 -5.265625 C 14.96875 -4.128906 14.691406 -3.148438 14.140625 -2.328125 C 13.585938 -1.503906 12.816406 -0.863281 11.828125 -0.40625 C 10.835938 0.0390625 9.675781 0.265625 8.34375 0.265625 Z M 8.34375 0.265625 "/></g></g></g><g fill="#000000" fill-opacity="1"><g transform="translate(274.217653, 96.07653)"><g><path d="M 1.359375 -9.5625 C 1.359375 -10.675781 1.519531 -11.726562 1.84375 -12.71875 C 2.175781 -13.71875 2.644531 -14.628906 3.25 -15.453125 C 3.851562 -16.273438 4.5625 -16.984375 5.375 -17.578125 C 6.195312 -18.179688 7.101562 -18.644531 8.09375 -18.96875 C 9.09375 -19.300781 10.148438 -19.46875 11.265625 -19.46875 C 12.367188 -19.46875 13.414062 -19.300781 14.40625 -18.96875 C 15.40625 -18.644531 16.316406 -18.179688 17.140625 -17.578125 C 17.960938 -16.984375 18.675781 -16.273438 19.28125 -15.453125 C 19.882812 -14.628906 20.347656 -13.71875 20.671875 -12.71875 C 21.003906 -11.726562 21.171875 -10.675781 21.171875 -9.5625 C 21.171875 -8.457031 21.003906 -7.410156 20.671875 -6.421875 C 20.347656 -5.429688 19.882812 -4.523438 19.28125 -3.703125 C 18.675781 -2.890625 17.960938 -2.1875 17.140625 -1.59375 C 16.316406 -1 15.40625 -0.539062 14.40625 -0.21875 C 13.414062 0.101562 12.367188 0.265625 11.265625 0.265625 C 10.148438 0.265625 9.09375 0.101562 8.09375 -0.21875 C 7.101562 -0.539062 6.195312 -1 5.375 -1.59375 C 4.5625 -2.1875 3.851562 -2.890625 3.25 -3.703125 C 2.644531 -4.523438 2.175781 -5.429688 1.84375 -6.421875 C 1.519531 -7.410156 1.359375 -8.457031 1.359375 -9.5625 Z M 3.46875 -9.5625 C 3.46875 -8.695312 3.59375 -7.875 3.84375 -7.09375 C 4.101562 -6.320312 4.46875 -5.613281 4.9375 -4.96875 C 5.414062 -4.332031 5.976562 -3.78125 6.625 -3.3125 C 7.28125 -2.84375 8 -2.476562 8.78125 -2.21875 C 9.5625 -1.96875 10.390625 -1.84375 11.265625 -1.84375 C 12.140625 -1.84375 12.96875 -1.96875 13.75 -2.21875 C 14.53125 -2.476562 15.242188 -2.84375 15.890625 -3.3125 C 16.535156 -3.78125 17.097656 -4.332031 17.578125 -4.96875 C 18.054688 -5.613281 18.421875 -6.320312 18.671875 -7.09375 C 18.929688 -7.875 19.0625 -8.695312 19.0625 -9.5625 C 19.0625 -10.4375 18.929688 -11.265625 18.671875 -12.046875 C 18.421875 -12.828125 18.054688 -13.539062 17.578125 -14.1875 C 17.097656 -14.84375 16.535156 -15.40625 15.890625 -15.875 C 15.242188 -16.34375 14.53125 -16.707031 13.75 -16.96875 C 12.96875 -17.226562 12.140625 -17.359375 11.265625 -17.359375 C 10.390625 -17.359375 9.5625 -17.226562 8.78125 -16.96875 C 8 -16.707031 7.28125 -16.34375 6.625 -15.875 C 5.976562 -15.40625 5.414062 -14.84375 4.9375 -14.1875 C 4.46875 -13.539062 4.101562 -12.828125 3.84375 -12.046875 C 3.59375 -11.265625 3.46875 -10.4375 3.46875 -9.5625 Z M 3.46875 -9.5625 "/></g></g></g><g fill="#000000" fill-opacity="1"><g transform="translate(296.745359, 96.07653)"><g><path d="M 14.40625 -1.890625 C 14.613281 -1.890625 14.71875 -1.78125 14.71875 -1.5625 L 14.71875 -0.328125 C 14.71875 -0.109375 14.609375 0 14.390625 0 L 3.046875 0 C 2.828125 0 2.71875 -0.109375 2.71875 -0.328125 L 2.71875 -18.9375 C 2.71875 -19.144531 2.828125 -19.25 3.046875 -19.25 L 4.515625 -19.25 C 4.722656 -19.25 4.828125 -19.144531 4.828125 -18.9375 L 4.828125 -1.890625 Z M 14.40625 -1.890625 "/></g></g></g><g fill="#000000" fill-opacity="1"><g transform="translate(311.848166, 96.07653)"><g><path d="M 4.421875 -18.921875 L 4.421875 -7.671875 C 4.421875 -6.847656 4.566406 -6.078125 4.859375 -5.359375 C 5.148438 -4.648438 5.554688 -4.03125 6.078125 -3.5 C 6.609375 -2.96875 7.226562 -2.550781 7.9375 -2.25 C 8.644531 -1.957031 9.40625 -1.8125 10.21875 -1.8125 C 11.039062 -1.8125 11.800781 -1.957031 12.5 -2.25 C 13.207031 -2.550781 13.820312 -2.96875 14.34375 -3.5 C 14.863281 -4.03125 15.269531 -4.648438 15.5625 -5.359375 C 15.863281 -6.078125 16.015625 -6.847656 16.015625 -7.671875 L 16.015625 -18.921875 C 16.015625 -19.140625 16.128906 -19.25 16.359375 -19.25 L 17.796875 -19.25 C 18.023438 -19.25 18.140625 -19.140625 18.140625 -18.921875 L 18.140625 -7.609375 C 18.140625 -6.484375 17.941406 -5.4375 17.546875 -4.46875 C 17.148438 -3.507812 16.59375 -2.675781 15.875 -1.96875 C 15.164062 -1.257812 14.328125 -0.707031 13.359375 -0.3125 C 12.398438 0.0703125 11.351562 0.265625 10.21875 0.265625 C 9.082031 0.265625 8.03125 0.0664062 7.0625 -0.328125 C 6.101562 -0.722656 5.265625 -1.28125 4.546875 -2 C 3.835938 -2.726562 3.285156 -3.578125 2.890625 -4.546875 C 2.503906 -5.515625 2.3125 -6.566406 2.3125 -7.703125 L 2.3125 -18.921875 C 2.3125 -19.140625 2.414062 -19.25 2.625 -19.25 L 4.125 -19.25 C 4.320312 -19.25 4.421875 -19.140625 4.421875 -18.921875 Z M 4.421875 -18.921875 "/></g></g></g><g fill="#000000" fill-opacity="1"><g transform="translate(332.288801, 96.07653)"><g><path d="M 0.828125 -17.75 L 0.828125 -18.828125 C 0.828125 -19.085938 0.957031 -19.21875 1.21875 -19.21875 L 14.171875 -19.21875 C 14.410156 -19.21875 14.53125 -19.085938 14.53125 -18.828125 L 14.53125 -17.75 C 14.53125 -17.476562 14.410156 -17.34375 14.171875 -17.34375 L 8.734375 -17.34375 L 8.734375 -0.375 C 8.734375 -0.101562 8.601562 0.03125 8.34375 0.03125 L 7.015625 0.03125 C 6.742188 0.03125 6.609375 -0.101562 6.609375 -0.375 L 6.609375 -17.34375 L 1.21875 -17.34375 C 0.957031 -17.34375 0.828125 -17.476562 0.828125 -17.75 Z M 0.828125 -17.75 "/></g></g></g><g fill="#000000" fill-opacity="1"><g transform="translate(347.644575, 96.07653)"><g><path d="M 4.828125 -18.9375 L 4.828125 -0.296875 C 4.828125 -0.078125 4.71875 0.03125 4.5 0.03125 L 3.015625 0.03125 C 2.816406 0.03125 2.71875 -0.078125 2.71875 -0.296875 L 2.71875 -18.9375 C 2.71875 -19.144531 2.816406 -19.25 3.015625 -19.25 L 4.5 -19.25 C 4.71875 -19.25 4.828125 -19.144531 4.828125 -18.9375 Z M 4.828125 -18.9375 "/></g></g></g><g fill="#000000" fill-opacity="1"><g transform="translate(355.195985, 96.07653)"><g><path d="M 1.359375 -9.5625 C 1.359375 -10.675781 1.519531 -11.726562 1.84375 -12.71875 C 2.175781 -13.71875 2.644531 -14.628906 3.25 -15.453125 C 3.851562 -16.273438 4.5625 -16.984375 5.375 -17.578125 C 6.195312 -18.179688 7.101562 -18.644531 8.09375 -18.96875 C 9.09375 -19.300781 10.148438 -19.46875 11.265625 -19.46875 C 12.367188 -19.46875 13.414062 -19.300781 14.40625 -18.96875 C 15.40625 -18.644531 16.316406 -18.179688 17.140625 -17.578125 C 17.960938 -16.984375 18.675781 -16.273438 19.28125 -15.453125 C 19.882812 -14.628906 20.347656 -13.71875 20.671875 -12.71875 C 21.003906 -11.726562 21.171875 -10.675781 21.171875 -9.5625 C 21.171875 -8.457031 21.003906 -7.410156 20.671875 -6.421875 C 20.347656 -5.429688 19.882812 -4.523438 19.28125 -3.703125 C 18.675781 -2.890625 17.960938 -2.1875 17.140625 -1.59375 C 16.316406 -1 15.40625 -0.539062 14.40625 -0.21875 C 13.414062 0.101562 12.367188 0.265625 11.265625 0.265625 C 10.148438 0.265625 9.09375 0.101562 8.09375 -0.21875 C 7.101562 -0.539062 6.195312 -1 5.375 -1.59375 C 4.5625 -2.1875 3.851562 -2.890625 3.25 -3.703125 C 2.644531 -4.523438 2.175781 -5.429688 1.84375 -6.421875 C 1.519531 -7.410156 1.359375 -8.457031 1.359375 -9.5625 Z M 3.46875 -9.5625 C 3.46875 -8.695312 3.59375 -7.875 3.84375 -7.09375 C 4.101562 -6.320312 4.46875 -5.613281 4.9375 -4.96875 C 5.414062 -4.332031 5.976562 -3.78125 6.625 -3.3125 C 7.28125 -2.84375 8 -2.476562 8.78125 -2.21875 C 9.5625 -1.96875 10.390625 -1.84375 11.265625 -1.84375 C 12.140625 -1.84375 12.96875 -1.96875 13.75 -2.21875 C 14.53125 -2.476562 15.242188 -2.84375 15.890625 -3.3125 C 16.535156 -3.78125 17.097656 -4.332031 17.578125 -4.96875 C 18.054688 -5.613281 18.421875 -6.320312 18.671875 -7.09375 C 18.929688 -7.875 19.0625 -8.695312 19.0625 -9.5625 C 19.0625 -10.4375 18.929688 -11.265625 18.671875 -12.046875 C 18.421875 -12.828125 18.054688 -13.539062 17.578125 -14.1875 C 17.097656 -14.84375 16.535156 -15.40625 15.890625 -15.875 C 15.242188 -16.34375 14.53125 -16.707031 13.75 -16.96875 C 12.96875 -17.226562 12.140625 -17.359375 11.265625 -17.359375 C 10.390625 -17.359375 9.5625 -17.226562 8.78125 -16.96875 C 8 -16.707031 7.28125 -16.34375 6.625 -15.875 C 5.976562 -15.40625 5.414062 -14.84375 4.9375 -14.1875 C 4.46875 -13.539062 4.101562 -12.828125 3.84375 -12.046875 C 3.59375 -11.265625 3.46875 -10.4375 3.46875 -9.5625 Z M 3.46875 -9.5625 "/></g></g></g><g fill="#000000" fill-opacity="1"><g transform="translate(377.723679, 96.07653)"><g><path d="M 18.828125 -19.25 C 19.046875 -19.25 19.15625 -19.144531 19.15625 -18.9375 L 19.15625 -0.25 C 19.15625 -0.113281 19.117188 -0.015625 19.046875 0.046875 C 18.984375 0.117188 18.898438 0.15625 18.796875 0.15625 L 18.78125 0.15625 C 18.675781 0.15625 18.578125 0.125 18.484375 0.0625 C 18.398438 0.0078125 18.316406 -0.0625 18.234375 -0.15625 L 4.828125 -14.71875 L 4.828125 -0.296875 C 4.828125 -0.078125 4.726562 0.03125 4.53125 0.03125 L 3.046875 0.03125 C 2.816406 0.03125 2.703125 -0.078125 2.703125 -0.296875 L 2.703125 -18.984375 C 2.703125 -19.097656 2.734375 -19.191406 2.796875 -19.265625 C 2.867188 -19.335938 2.960938 -19.375 3.078125 -19.375 L 3.09375 -19.375 C 3.1875 -19.375 3.273438 -19.34375 3.359375 -19.28125 C 3.441406 -19.21875 3.53125 -19.132812 3.625 -19.03125 L 17.03125 -4.453125 L 17.03125 -18.9375 C 17.03125 -19.144531 17.144531 -19.25 17.375 -19.25 Z M 18.828125 -19.25 "/></g></g></g><g fill="#000000" fill-opacity="1"><g transform="translate(399.59363, 96.07653)"><g><path d="M 8.34375 0.265625 C 7.675781 0.265625 7.007812 0.179688 6.34375 0.015625 C 5.675781 -0.140625 5.035156 -0.363281 4.421875 -0.65625 C 3.816406 -0.945312 3.265625 -1.285156 2.765625 -1.671875 C 2.273438 -2.066406 1.875 -2.492188 1.5625 -2.953125 C 1.488281 -3.046875 1.453125 -3.148438 1.453125 -3.265625 C 1.460938 -3.390625 1.519531 -3.492188 1.625 -3.578125 L 2.53125 -4.484375 C 2.707031 -4.617188 2.910156 -4.566406 3.140625 -4.328125 C 3.523438 -3.847656 4 -3.410156 4.5625 -3.015625 C 5.125 -2.628906 5.726562 -2.320312 6.375 -2.09375 C 7.019531 -1.875 7.644531 -1.765625 8.25 -1.765625 C 9.675781 -1.765625 10.785156 -2.070312 11.578125 -2.6875 C 12.367188 -3.3125 12.765625 -4.15625 12.765625 -5.21875 C 12.765625 -5.695312 12.640625 -6.117188 12.390625 -6.484375 C 12.148438 -6.847656 11.8125 -7.175781 11.375 -7.46875 C 10.9375 -7.757812 10.425781 -8.03125 9.84375 -8.28125 C 9.257812 -8.539062 8.628906 -8.796875 7.953125 -9.046875 C 7.140625 -9.335938 6.382812 -9.644531 5.6875 -9.96875 C 4.988281 -10.300781 4.378906 -10.675781 3.859375 -11.09375 C 3.347656 -11.507812 2.945312 -12 2.65625 -12.5625 C 2.375 -13.125 2.234375 -13.78125 2.234375 -14.53125 C 2.234375 -15.507812 2.484375 -16.367188 2.984375 -17.109375 C 3.484375 -17.847656 4.1875 -18.425781 5.09375 -18.84375 C 6.007812 -19.257812 7.09375 -19.46875 8.34375 -19.46875 C 9.050781 -19.46875 9.738281 -19.378906 10.40625 -19.203125 C 11.070312 -19.023438 11.679688 -18.773438 12.234375 -18.453125 C 12.785156 -18.128906 13.234375 -17.753906 13.578125 -17.328125 C 13.773438 -17.085938 13.789062 -16.875 13.625 -16.6875 L 12.890625 -15.84375 C 12.773438 -15.707031 12.65625 -15.648438 12.53125 -15.671875 C 12.40625 -15.691406 12.269531 -15.757812 12.125 -15.875 C 11.832031 -16.207031 11.472656 -16.488281 11.046875 -16.71875 C 10.617188 -16.957031 10.164062 -17.132812 9.6875 -17.25 C 9.207031 -17.375 8.726562 -17.4375 8.25 -17.4375 C 7.425781 -17.4375 6.722656 -17.3125 6.140625 -17.0625 C 5.554688 -16.8125 5.109375 -16.46875 4.796875 -16.03125 C 4.484375 -15.59375 4.328125 -15.085938 4.328125 -14.515625 C 4.328125 -14.023438 4.453125 -13.59375 4.703125 -13.21875 C 4.953125 -12.84375 5.296875 -12.503906 5.734375 -12.203125 C 6.171875 -11.910156 6.671875 -11.644531 7.234375 -11.40625 C 7.796875 -11.164062 8.382812 -10.929688 9 -10.703125 C 9.75 -10.441406 10.476562 -10.15625 11.1875 -9.84375 C 11.90625 -9.53125 12.546875 -9.164062 13.109375 -8.75 C 13.679688 -8.34375 14.132812 -7.851562 14.46875 -7.28125 C 14.800781 -6.707031 14.96875 -6.035156 14.96875 -5.265625 C 14.96875 -4.128906 14.691406 -3.148438 14.140625 -2.328125 C 13.585938 -1.503906 12.816406 -0.863281 11.828125 -0.40625 C 10.835938 0.0390625 9.675781 0.265625 8.34375 0.265625 Z M 8.34375 0.265625 "/></g></g></g></svg>